SplineFontDB: 3.0
FontName: LisuTzimu-BoldItalic
FullName: LisuTzimu Bold Italic
FamilyName: LisuTzimu
Weight: Bold
Copyright: Copyright (c) 1998-2009 by David Morse; licensed under the SIL Open Font License with Reserved Font Name "LisuTzimu".
Version: 2.002
ItalicAngle: -11
UnderlinePosition: -307
UnderlineWidth: 82
Ascent: 1638
Descent: 410
sfntRevision: 0x00020083
LayerCount: 2
Layer: 0 1 "Back"  1
Layer: 1 1 "Fore"  0
XUID: [1021 646 1676337484 5674110]
FSType: 0
OS2Version: 3
OS2_WeightWidthSlopeOnly: 0
OS2_UseTypoMetrics: 1
CreationTime: 1244570400
ModificationTime: 1378802058
PfmFamily: 17
TTFWeight: 700
TTFWidth: 5
LineGap: 0
VLineGap: 0
Panose: 2 11 8 1 4 10 2 8 2 1
OS2TypoAscent: 1640
OS2TypoAOffset: 0
OS2TypoDescent: -410
OS2TypoDOffset: 0
OS2TypoLinegap: 0
OS2WinAscent: 1640
OS2WinAOffset: 0
OS2WinDescent: 410
OS2WinDOffset: 0
HheadAscent: 1638
HheadAOffset: 0
HheadDescent: -410
HheadDOffset: 0
OS2SubXSize: 1434
OS2SubYSize: 1331
OS2SubXOff: 0
OS2SubYOff: 293
OS2SupXSize: 1434
OS2SupYSize: 1331
OS2SupXOff: 0
OS2SupYOff: 928
OS2StrikeYSize: 102
OS2StrikeYPos: 530
OS2Vendor: 'PYRS'
OS2CodePages: 00040001.00000000
OS2UnicodeRanges: 80000023.00016000.00000000.00000000
Lookup: 258 0 0 "'kern' Horizontal Kerning in Latin lookup 0"  {"'kern' Horizontal Kerning in Latin lookup 0 subtable"  } ['kern' ('latn' <'dflt' > ) ]
DEI: 91125
KernClass2: 3+ 3 "'kern' Horizontal Kerning in Latin lookup 0 subtable"
 28 macronlowmod uniA4FA uniA4FB
 63 uniA4D1 uniA4D4 uniA4DD uniA4E6 uniA4E9 uniA4EA uniA4EC uniA4EF
 9 afii57929
 5 space
 44 macronlowmod uniA4F8 uniA4F9 uniA4FA uniA4FB
 0 {} -148 {} 0 {} 0 {} 0 {} -82 {} 0 {} 0 {} -246 {}
TtTable: prep
PUSHW_1
 0
CALL
EndTTInstrs
TtTable: fpgm
PUSHW_1
 0
FDEF
MPPEM
PUSHW_1
 3
LT
IF
PUSHB_2
 1
 1
INSTCTRL
EIF
PUSHW_1
 511
SCANCTRL
PUSHW_1
 68
SCVTCI
PUSHW_2
 3
 3
SDS
SDB
ENDF
PUSHW_1
 1
FDEF
DUP
DUP
RCVT
ROUND[Black]
WCVTP
PUSHB_1
 1
ADD
ENDF
PUSHW_1
 2
FDEF
PUSHW_1
 1
LOOPCALL
POP
ENDF
PUSHW_1
 3
FDEF
DUP
GC[cur]
PUSHB_1
 3

StartChar: .notdef
Encoding: 166 -1 0
Width: 1024
Flags: W
LayerCount: 2
Fore
SplineSet
129 0 m 1,0,-1
 129 1638 l 1,1,-1
 897 1638 l 1,2,-1
 897 0 l 1,3,-1
 129 0 l 1,0,-1
256 129 m 1,4,-1
 768 129 l 1,5,-1
 768 1511 l 1,6,-1
 256 1511 l 1,7,-1
 256 129 l 1,4,-1
EndSplineSet
EndChar

StartChar: exclam
Encoding: 1 33 4
Width: 707
Flags: W
LayerCount: 2
Fore
SplineSet
709 1145 m 0,0,1
 709 1124 709 1124 544 792.5 c 128,-1,2
 379 461 379 461 354 436 c 1,3,4
 340 420 340 420 258 418 c 1,5,6
 203 418 203 418 150 418 c 1,7,-1
 152 420 l 1,8,9
 150 442 150 442 156 469 c 0,10,11
 205 668 205 668 307 1061 c 1,12,13
 315 1096 315 1096 328 1143 c 1,14,15
 336 1155 336 1155 434 1155 c 2,16,-1
 686 1155 l 1,17,18
 709 1157 709 1157 709 1145 c 0,0,1
319 141 m 0,19,20
 319 72 319 72 269 26 c 128,-1,21
 219 -20 219 -20 150 -20 c 0,22,23
 35 -20 35 -20 35 84 c 0,24,25
 35 150 35 150 88 194 c 128,-1,26
 141 238 141 238 205 238 c 0,27,28
 252 238 252 238 285.5 212 c 128,-1,29
 319 186 319 186 319 141 c 0,19,20
EndSplineSet
EndChar

StartChar: quotedbl
Encoding: 2 34 5
Width: 842
Flags: W
LayerCount: 2
Fore
SplineSet
967 1124 m 0,0,1
 967 1106 967 1106 828.5 911.5 c 128,-1,2
 690 717 690 717 662 692 c 1,3,4
 643 678 643 678 610 678 c 0,5,6
 584 678 584 678 578 692 c 1,7,8
 573 698 573 698 573 731 c 0,9,10
 573 788 573 788 608 883 c 1,11,12
 639 956 639 956 668 1030 c 0,13,14
 692 1092 692 1092 723 1117.5 c 128,-1,15
 754 1143 754 1143 815 1145 c 1,16,-1
 897 1145 l 1,17,18
 967 1147 967 1147 967 1124 c 0,0,1
514 1124 m 0,19,20
 514 1106 514 1106 377 911.5 c 128,-1,21
 240 717 240 717 209 692 c 0,22,23
 193 678 193 678 158 678 c 0,24,25
 131 678 131 678 125 692 c 1,26,27
 121 698 121 698 121 731 c 0,28,29
 121 788 121 788 156 883 c 1,30,31
 186 956 186 956 215 1030 c 0,32,33
 240 1092 240 1092 270.5 1117.5 c 128,-1,34
 301 1143 301 1143 362 1145 c 1,35,-1
 444 1145 l 1,36,37
 514 1147 514 1147 514 1124 c 0,19,20
EndSplineSet
EndChar

StartChar: numbersign
Encoding: 3 35 6
Width: 1180
Flags: W
LayerCount: 2
Fore
SplineSet
1067 795 m 1,0,-1
 1053 743 l 1,1,-1
 809 743 l 1,2,-1
 711 389 l 1,3,-1
 956 389 l 1,4,-1
 942 338 l 1,5,-1
 698 338 l 1,6,-1
 604 0 l 1,7,-1
 541 0 l 1,8,-1
 635 338 l 1,9,-1
 358 338 l 1,10,-1
 266 0 l 1,11,-1
 203 0 l 1,12,-1
 295 338 l 1,13,-1
 49 338 l 1,14,-1
 63 389 l 1,15,-1
 309 389 l 1,16,-1
 406 743 l 1,17,-1
 160 743 l 1,18,-1
 172 795 l 1,19,-1
 420 795 l 1,20,-1
 510 1133 l 1,21,-1
 575 1133 l 1,22,-1
 483 795 l 1,23,-1
 758 795 l 1,24,-1
 848 1133 l 1,25,-1
 913 1133 l 1,26,-1
 821 795 l 1,27,-1
 1067 795 l 1,0,-1
745 743 m 1,28,-1
 469 743 l 1,29,-1
 373 389 l 1,30,-1
 645 389 l 1,31,-1
 745 743 l 1,28,-1
EndSplineSet
EndChar

StartChar: dollar
Encoding: 4 36 7
Width: 961
Flags: W
LayerCount: 2
Fore
SplineSet
909 973 m 0,0,1
 909 928 909 928 893 881 c 0,2,3
 872 819 872 819 838 819 c 0,4,5
 805 819 805 819 738.5 831.5 c 128,-1,6
 672 844 672 844 637 844 c 0,7,8
 477 844 477 844 477 756 c 0,9,10
 477 709 477 709 559 666 c 0,11,12
 690 598 690 598 713 582 c 1,13,14
 795 516 795 516 795 414 c 0,15,16
 795 324 795 324 674 250 c 1,17,18
 565 182 565 182 471 188 c 1,19,20
 422 39 422 39 408 25 c 0,21,22
 377 -8 377 -8 238 -8 c 0,23,24
 123 -8 123 -8 123 29 c 1,25,26
 123 27 123 27 195 197 c 1,27,28
 49 229 49 229 49 246 c 0,29,30
 49 256 49 256 77.5 321.5 c 128,-1,31
 106 387 106 387 115 401 c 1,32,33
 317 367 317 367 369 367 c 0,34,35
 520 367 520 367 520 457 c 0,36,37
 520 508 520 508 433 551 c 128,-1,38
 346 594 346 594 262 635 c 1,39,40
 172 694 172 694 172 776 c 0,41,42
 172 895 172 895 205 930 c 1,43,44
 233 958 233 958 360 981 c 0,45,46
 424 993 424 993 455 1001 c 1,47,48
 475 1055 475 1055 496 1106 c 1,49,50
 516 1137 516 1137 594 1137 c 0,51,52
 633 1137 633 1137 700 1128 c 1,53,54
 786 1118 786 1118 786 1106 c 0,55,56
 786 1081 786 1081 752 1016 c 1,57,58
 795 1008 795 1008 838 999 c 0,59,60
 909 985 909 985 909 973 c 0,0,1
EndSplineSet
EndChar

StartChar: percent
Encoding: 5 37 8
Width: 1808
Flags: W
LayerCount: 2
Fore
SplineSet
1739 467 m 0,0,1
 1739 279 1739 279 1614 137 c 1,2,3
 1483 -10 1483 -10 1296 -10 c 0,4,5
 1182 -10 1182 -10 1096 76 c 128,-1,6
 1010 162 1010 162 1010 276 c 0,7,8
 1010 391 1010 391 1055 473 c 0,9,10
 1110 573 1110 573 1217 569 c 1,11,12
 1239 641 1239 641 1323 678 c 0,13,14
 1391 709 1391 709 1477 709 c 0,15,16
 1593 709 1593 709 1666 645.5 c 128,-1,17
 1739 582 1739 582 1739 467 c 0,0,1
1450 1028 m 1,18,-1
 1346 1061 l 1,19,20
 1286 952 1286 952 1136.5 751.5 c 128,-1,21
 987 551 987 551 926 440 c 0,22,23
 870 340 870 340 696 16 c 1,24,-1
 788 53 l 1,25,-1
 723 68 l 1,26,27
 684 -12 684 -12 670 -12 c 0,28,29
 637 -12 637 -12 598 0 c 0,30,31
 549 16 549 16 549 41 c 0,32,33
 549 104 549 104 961 745 c 0,34,35
 1223 1153 1223 1153 1274 1153 c 0,36,37
 1292 1153 1292 1153 1328 1123.5 c 128,-1,38
 1364 1094 1364 1094 1364 1077 c 0,39,40
 1364 1061 1364 1061 1282 997 c 1,41,-1
 1450 1028 l 1,18,-1
872 926 m 0,42,43
 872 737 872 737 756 596 c 1,44,45
 633 449 633 449 446 449 c 0,46,47
 326 449 326 449 236.5 530.5 c 128,-1,48
 147 612 147 612 147 731 c 0,49,50
 147 846 147 846 193 928 c 1,51,52
 248 1030 248 1030 354 1030 c 1,53,54
 385 1098 385 1098 471 1135 c 0,55,56
 545 1167 545 1167 629 1167 c 0,57,58
 741 1167 741 1167 806.5 1102.5 c 128,-1,59
 872 1038 872 1038 872 926 c 0,42,43
1585 467 m 0,60,61
 1585 588 1585 588 1444 588 c 0,62,63
 1413 588 1413 588 1364 551 c 128,-1,64
 1315 514 1315 514 1303 514 c 0,65,66
 1288 514 1288 514 1255 526 c 1,67,68
 1163 418 1163 418 1163 291 c 0,69,70
 1163 215 1163 215 1205 168 c 128,-1,71
 1247 121 1247 121 1323 121 c 0,72,73
 1432 121 1432 121 1511 244 c 1,74,75
 1585 352 1585 352 1585 467 c 0,60,61
723 932 m 0,76,77
 723 1042 723 1042 586 1042 c 0,78,79
 543 1042 543 1042 465 971 c 1,80,-1
 451 967 l 1,81,-1
 393 983 l 1,82,83
 301 866 301 866 301 758 c 0,84,85
 301 678 301 678 344 624.5 c 128,-1,86
 387 571 387 571 465 571 c 0,87,88
 575 571 575 571 653 700 c 1,89,90
 723 813 723 813 723 932 c 0,76,77
EndSplineSet
EndChar

StartChar: ampersand
Encoding: 6 38 9
Width: 1147
Flags: W
LayerCount: 2
Fore
SplineSet
1069 504 m 1,0,1
 1069 467 1069 467 1040 412 c 1,2,3
 1010 350 1010 350 979 346 c 0,4,5
 969 344 969 344 924 344 c 0,6,7
 870 344 870 344 668 317 c 1,8,9
 731 301 731 301 795 287 c 1,10,11
 905 258 905 258 905 240 c 0,12,13
 905 223 905 223 858 172 c 0,14,15
 686 -18 686 -18 338 -18 c 0,16,17
 264 -18 264 -18 169 18.5 c 128,-1,18
 74 55 74 55 23 104 c 1,19,20
 -37 160 -37 160 -37 268 c 0,21,22
 -37 293 -37 293 -20 367 c 0,23,24
 27 569 27 569 324 655 c 1,25,26
 236 770 236 770 236 842 c 0,27,28
 236 973 236 973 379 1067 c 1,29,30
 508 1153 508 1153 643 1153 c 0,31,32
 829 1153 829 1153 924 1096 c 0,33,34
 1006 1047 1006 1047 1014 1005 c 128,-1,35
 1022 963 1022 963 1022 928 c 0,36,37
 1022 887 1022 887 995 872 c 0,38,39
 981 864 981 864 930 860 c 1,40,41
 848 850 848 850 815 850 c 0,42,43
 801 850 801 850 797 854 c 128,-1,44
 793 858 793 858 788 883 c 1,45,46
 776 977 776 977 647 977 c 0,47,48
 592 977 592 977 536.5 932 c 128,-1,49
 481 887 481 887 481 831 c 0,50,51
 481 756 481 756 612 713 c 1,52,53
 608 688 608 688 573.5 624.5 c 128,-1,54
 539 561 539 561 526.5 553 c 128,-1,55
 514 545 514 545 469 535 c 0,56,57
 215 475 215 475 215 299 c 0,58,59
 215 164 215 164 383 164 c 0,60,61
 571 164 571 164 690 354 c 1,62,63
 596 344 596 344 598 344 c 1,64,65
 580 344 580 344 569 346 c 1,66,67
 618 459 618 459 635 477 c 0,68,69
 674 518 674 518 770 518 c 0,70,71
 1040 518 1040 518 1065 508 c 1,72,-1
 1069 504 l 1,0,1
EndSplineSet
EndChar

StartChar: quotesingle
Encoding: 7 39 10
Width: 389
Flags: W
LayerCount: 2
Fore
SplineSet
514 1124 m 0,0,1
 514 1106 514 1106 376 911.5 c 128,-1,2
 238 717 238 717 209 692 c 1,3,4
 190 678 190 678 158 678 c 0,5,6
 131 678 131 678 125 692 c 1,7,8
 121 698 121 698 121 731 c 0,9,10
 121 788 121 788 156 883 c 1,11,12
 186 956 186 956 215 1030 c 0,13,14
 240 1092 240 1092 270.5 1117.5 c 128,-1,15
 301 1143 301 1143 362 1145 c 1,16,-1
 444 1145 l 1,17,18
 514 1147 514 1147 514 1124 c 0,0,1
EndSplineSet
EndChar

StartChar: parenleft
Encoding: 8 40 11
Width: 1044
Flags: W
LayerCount: 2
Fore
SplineSet
1223 1255 m 0,0,1
 1223 1198 1223 1198 1149 1171 c 1,2,3
 1108 1161 1108 1161 1028 1137 c 1,4,5
 854 1079 854 1079 725 809 c 0,6,7
 612 571 612 571 612 362 c 0,8,9
 612 33 612 33 813 -186 c 1,10,11
 784 -223 784 -223 688 -223 c 0,12,13
 668 -223 668 -223 639 -207 c 0,14,15
 537 -150 537 -150 483 45 c 0,16,17
 442 193 442 193 442 354 c 0,18,19
 442 623 442 623 516 807 c 1,20,21
 600 1022 600 1022 797 1163 c 0,22,23
 973 1290 973 1290 1171 1290 c 0,24,25
 1223 1290 1223 1290 1223 1255 c 0,0,1
EndSplineSet
EndChar

StartChar: parenright
Encoding: 9 41 12
Width: 993
Flags: W
LayerCount: 2
Fore
SplineSet
686 797 m 0,0,1
 686 580 686 580 618 389 c 1,2,3
 545 178 545 178 401 41 c 0,4,5
 168 -182 168 -182 -43 -182 c 0,6,7
 -98 -182 -98 -182 -98 -147 c 0,8,9
 -98 -90 -98 -90 -23 -53 c 1,10,11
 20 -39 20 -39 104 -8 c 0,12,13
 131 2 131 2 233 96 c 1,14,15
 373 223 373 223 444 418 c 1,16,17
 512 596 512 596 512 799 c 0,18,19
 512 1102 512 1102 326 1278 c 0,20,21
 317 1286 317 1286 313 1294 c 1,22,23
 313 1331 313 1331 414 1331 c 2,24,-1
 438 1331 l 2,25,26
 555 1331 555 1331 629 1114 c 0,27,28
 686 946 686 946 686 797 c 0,0,1
EndSplineSet
EndChar

StartChar: asterisk
Encoding: 10 42 13
Width: 918
Flags: W
LayerCount: 2
Fore
SplineSet
1061 1042 m 0,0,1
 1061 1010 1061 1010 766 950 c 1,2,3
 801 864 801 864 854 690 c 1,4,-1
 854 688 l 1,5,6
 776 709 776 709 600 899 c 1,7,8
 375 766 375 766 254 760 c 1,9,10
 260 809 260 809 348 897 c 0,11,12
 424 973 424 973 479 1008 c 1,13,14
 395 1073 395 1073 242 1219 c 1,15,16
 252 1221 252 1221 266 1221 c 0,17,18
 393 1221 393 1221 567 1147 c 1,19,20
 756 1395 756 1395 791 1395 c 0,21,22
 819 1395 819 1395 819 1292 c 0,23,24
 819 1264 819 1264 797 1198 c 0,25,26
 766 1108 766 1108 764 1098 c 1,27,28
 819 1094 819 1094 930 1083 c 0,29,30
 1061 1069 1061 1069 1061 1042 c 0,0,1
EndSplineSet
EndChar

StartChar: plus
Encoding: 11 43 14
Width: 1360
Flags: W
LayerCount: 2
Fore
SplineSet
1223 463 m 0,0,1
 1223 383 1223 383 1112 383 c 2,2,-1
 745 383 l 1,3,-1
 745 88 l 2,4,5
 745 0 745 0 643 0 c 256,6,7
 541 0 541 0 541 88 c 2,8,-1
 541 383 l 1,9,-1
 174 383 l 2,10,11
 63 383 63 383 63 463 c 0,12,13
 63 545 63 545 174 545 c 2,14,-1
 541 545 l 1,15,-1
 541 838 l 2,16,17
 541 928 541 928 643 928 c 256,18,19
 745 928 745 928 745 838 c 2,20,-1
 745 545 l 1,21,-1
 1112 545 l 2,22,23
 1223 545 1223 545 1223 463 c 0,0,1
EndSplineSet
EndChar

StartChar: hyphen
Encoding: 13 45 16
Width: 922
Flags: W
LayerCount: 2
Fore
SplineSet
793 571 m 1,0,-1
 748 391 l 1,1,-1
 137 391 l 1,2,-1
 182 571 l 1,3,-1
 793 571 l 1,0,-1
EndSplineSet
EndChar

StartChar: slash
Encoding: 15 47 18
Width: 862
Flags: W
LayerCount: 2
Fore
SplineSet
1022 1214 m 0,0,1
 1022 1206 1022 1206 995 1167 c 0,2,3
 924 1067 924 1067 573 600 c 0,4,5
 295 229 295 229 164 23 c 1,6,7
 147 -10 147 -10 113 -74 c 1,8,9
 72 -147 72 -147 51 -147 c 0,10,11
 -45 -147 -45 -147 -80 -88 c 1,12,13
 -25 51 -25 51 158 276 c 2,14,-1
 442 627 l 1,15,16
 489 702 489 702 621 897 c 0,17,18
 711 1030 711 1030 860 1237 c 1,19,-1
 883 1192 l 1,20,21
 889 1303 889 1303 928 1303 c 0,22,23
 961 1303 961 1303 991.5 1275 c 128,-1,24
 1022 1247 1022 1247 1022 1214 c 0,0,1
EndSplineSet
EndChar

StartChar: zero
Encoding: 16 48 19
Width: 1190
Flags: W
LayerCount: 2
Fore
SplineSet
1106 768 m 0,0,1
 1106 715 1106 715 1081 604 c 1,2,3
 1012 279 1012 279 733 82 c 0,4,5
 608 -6 608 -6 487 -6 c 0,6,7
 262 -6 262 -6 168 111 c 0,8,9
 82 217 82 217 82 446 c 0,10,11
 82 465 82 465 94 530 c 0,12,13
 150 811 150 811 315 983 c 1,14,15
 498 1171 498 1171 772 1171 c 0,16,17
 852 1171 852 1171 930 1130 c 0,18,19
 1038 1073 1038 1073 1077 977 c 0,20,21
 1106 905 1106 905 1106 768 c 0,0,1
850 827 m 0,22,23
 850 889 850 889 813 930 c 128,-1,24
 776 971 776 971 717 971 c 0,25,26
 604 971 604 971 498 799 c 1,27,28
 416 670 416 670 377 524 c 1,29,30
 352 440 352 440 352 350 c 0,31,32
 352 215 352 215 489 215 c 0,33,34
 578 215 578 215 684 358 c 0,35,36
 774 481 774 481 807 588 c 0,37,38
 850 727 850 727 850 827 c 0,22,23
EndSplineSet
EndChar

StartChar: one
Encoding: 17 49 20
Width: 807
Flags: W
LayerCount: 2
Fore
SplineSet
754 1094 m 0,0,1
 754 1042 754 1042 606 645 c 0,2,3
 512 395 512 395 420 147 c 1,4,5
 410 111 410 111 381 43 c 1,6,7
 360 4 360 4 328 -2 c 1,8,9
 322 -2 322 -2 252 -2 c 0,10,11
 76 -2 76 -2 76 43 c 0,12,13
 76 78 76 78 193 403 c 0,14,15
 264 600 264 600 336 797 c 1,16,17
 174 829 174 829 174 854 c 0,18,19
 174 862 174 862 469 1133 c 0,20,21
 485 1149 485 1149 510 1149 c 0,22,23
 754 1149 754 1149 754 1094 c 0,0,1
EndSplineSet
EndChar

StartChar: two
Encoding: 18 50 21
Width: 1104
Flags: W
LayerCount: 2
Fore
SplineSet
1020 948 m 0,0,1
 1020 799 1020 799 918 651 c 0,2,3
 842 541 842 541 688 408 c 0,4,5
 563 301 563 301 438 197 c 1,6,7
 571 190 571 190 633 190 c 0,8,9
 668 190 668 190 737.5 194.5 c 128,-1,10
 807 199 807 199 842 199 c 0,11,12
 879 199 879 199 879 180 c 0,13,14
 879 143 879 143 853 84 c 128,-1,15
 827 25 827 25 799 14 c 1,16,17
 745 -2 745 -2 406 -2 c 0,18,19
 211 -2 211 -2 170 8 c 0,20,21
 141 16 141 16 94 88 c 0,22,23
 74 119 74 119 51 170 c 1,24,25
 55 182 55 182 182 281 c 0,26,27
 258 340 258 340 334 399 c 1,28,29
 436 483 436 483 559 618 c 0,30,31
 719 795 719 795 719 864 c 0,32,33
 719 952 719 952 614 952 c 0,34,35
 518 952 518 952 426 842 c 1,36,37
 406 836 406 836 305 836 c 0,38,39
 168 836 168 836 168 862 c 0,40,41
 168 895 168 895 207 961 c 0,42,43
 326 1165 326 1165 684 1165 c 0,44,45
 762 1165 762 1165 891 1125 c 128,-1,46
 1020 1085 1020 1085 1020 948 c 0,0,1
EndSplineSet
EndChar

StartChar: three
Encoding: 19 51 22
Width: 1126
Flags: W
LayerCount: 2
Fore
SplineSet
1055 909 m 0,0,1
 1055 707 1055 707 686 604 c 1,2,3
 944 512 944 512 944 350 c 0,4,5
 944 227 944 227 842.5 126 c 128,-1,6
 741 25 741 25 618 4 c 0,7,8
 530 -12 530 -12 453 -12 c 0,9,10
 160 -12 160 -12 86 125 c 0,11,12
 43 205 43 205 43 238 c 0,13,14
 43 315 43 315 63.5 345 c 128,-1,15
 84 375 84 375 160 375 c 0,16,17
 174 375 174 375 219 367.5 c 128,-1,18
 264 360 264 360 271.5 354 c 128,-1,19
 279 348 279 348 279 309 c 0,20,21
 279 248 279 248 319.5 212 c 128,-1,22
 360 176 360 176 424 176 c 0,23,24
 516 176 516 176 580.5 232.5 c 128,-1,25
 645 289 645 289 645 379 c 0,26,27
 645 451 645 451 573 487 c 1,28,29
 508 512 508 512 444 535 c 0,30,31
 438 537 438 537 438 541 c 0,32,33
 438 555 438 555 461 616 c 0,34,35
 494 700 494 700 511 710.5 c 128,-1,36
 528 721 528 721 627 721 c 1,37,38
 756 795 756 795 756 870 c 0,39,40
 756 915 756 915 717 945 c 128,-1,41
 678 975 678 975 633 975 c 0,42,43
 557 975 557 975 498.5 927 c 128,-1,44
 440 879 440 879 328 879 c 0,45,46
 215 879 215 879 215 909 c 0,47,48
 215 967 215 967 338 1053 c 1,49,50
 453 1130 453 1130 520 1139 c 1,51,52
 627 1151 627 1151 696 1151 c 0,53,54
 733 1151 733 1151 811 1143 c 0,55,56
 903 1133 903 1133 975 1069 c 0,57,58
 1055 999 1055 999 1055 909 c 0,0,1
EndSplineSet
EndChar

StartChar: four
Encoding: 20 52 23
Width: 1210
Flags: W
LayerCount: 2
Fore
SplineSet
1094 844 m 0,0,1
 1094 805 1094 805 1042 676 c 1,2,3
 1008 588 1008 588 973 502 c 1,4,5
 1081 479 1081 479 1081 463 c 0,6,7
 1081 438 1081 438 1047.5 361.5 c 128,-1,8
 1014 285 1014 285 997 276 c 0,9,10
 991 272 991 272 881 266 c 1,11,12
 866 217 866 217 834 123 c 1,13,14
 815 78 815 78 780 -10 c 1,15,16
 768 -14 768 -14 688 -14 c 0,17,18
 520 -14 520 -14 520 18 c 0,19,20
 520 63 520 63 547 150 c 1,21,22
 569 215 569 215 592 281 c 1,23,24
 416 279 416 279 170 293 c 1,25,26
 125 303 125 303 82 356 c 0,27,28
 6 449 6 449 6 487 c 0,29,30
 6 508 6 508 29 532 c 0,31,32
 80 586 80 586 182 694 c 1,33,34
 274 799 274 799 367 903 c 0,35,36
 479 1028 479 1028 563 1104 c 0,37,38
 610 1147 610 1147 645 1147 c 0,39,40
 692 1147 692 1147 774 1128 c 0,41,42
 874 1106 874 1106 874 1081 c 0,43,44
 874 1073 874 1073 743 907 c 1,45,46
 848 911 848 911 897 911 c 0,47,48
 1094 911 1094 911 1094 844 c 0,0,1
887 1049 m 1,49,50
 770 928 770 928 530 690 c 0,51,52
 500 659 500 659 311 494 c 1,53,54
 551 494 551 494 655 481 c 1,55,56
 698 575 698 575 887 1049 c 1,49,50
EndSplineSet
EndChar

StartChar: five
Encoding: 21 53 24
Width: 1163
Flags: W
LayerCount: 2
Fore
SplineSet
1108 1118 m 0,0,1
 1108 1085 1108 1085 1092 1020 c 1,2,3
 1075 944 1075 944 1059.5 936 c 128,-1,4
 1044 928 1044 928 981 928 c 0,5,6
 934 928 934 928 841 931 c 128,-1,7
 748 934 748 934 700 934 c 0,8,9
 694 934 694 934 537 930 c 1,10,11
 496 823 496 823 442 666 c 1,12,13
 602 768 602 768 709 768 c 0,14,15
 831 768 831 768 916 684 c 128,-1,16
 1001 600 1001 600 1001 477 c 0,17,18
 1001 408 1001 408 989 344 c 0,19,20
 967 231 967 231 814.5 113.5 c 128,-1,21
 662 -4 662 -4 541 -18 c 0,22,23
 463 -27 463 -27 401 -27 c 0,24,25
 152 -27 152 -27 76 113 c 1,26,27
 27 201 27 201 27 248 c 0,28,29
 27 311 27 311 195 311 c 0,30,31
 305 311 305 311 317 276 c 1,32,33
 350 190 350 190 467 190 c 0,34,35
 580 190 580 190 652.5 258 c 128,-1,36
 725 326 725 326 725 436 c 0,37,38
 725 506 725 506 653 551 c 0,39,40
 590 590 590 590 516 590 c 0,41,42
 451 590 451 590 344 539 c 1,43,44
 322 555 322 555 258 621 c 0,45,46
 188 692 188 692 188 707 c 0,47,48
 188 743 188 743 265 936.5 c 128,-1,49
 342 1130 342 1130 342 1130 c 1,50,51
 371 1135 371 1135 506 1135 c 2,52,-1
 705 1135 l 2,53,54
 1081 1135 1081 1135 1106 1128 c 1,55,56
 1108 1124 1108 1124 1108 1118 c 0,0,1
EndSplineSet
EndChar

StartChar: six
Encoding: 22 54 25
Width: 1133
Flags: W
LayerCount: 2
Fore
SplineSet
1032 477 m 0,0,1
 1032 266 1032 266 856 119 c 1,2,3
 688 -20 688 -20 477 -20 c 0,4,5
 309 -20 309 -20 203 59 c 1,6,7
 86 150 86 150 86 311 c 0,8,9
 86 481 86 481 176 637 c 1,10,11
 254 768 254 768 418 942 c 1,12,13
 616 1149 616 1149 719 1149 c 0,14,15
 776 1149 776 1149 860 1135 c 0,16,17
 971 1116 971 1116 971 1085 c 0,18,19
 971 1077 971 1077 952 1061 c 0,20,21
 842 967 842 967 732.5 872.5 c 128,-1,22
 623 778 623 778 524 666 c 1,23,24
 688 696 688 696 762 696 c 0,25,26
 868 696 868 696 946 641 c 1,27,28
 1032 578 1032 578 1032 477 c 0,0,1
752 420 m 0,29,30
 752 496 752 496 659 496 c 1,31,32
 678 496 678 496 598 489 c 1,33,-1
 604 492 l 1,34,35
 598 604 598 604 553 713 c 1,36,37
 383 459 383 459 383 299 c 0,38,39
 383 252 383 252 419 221 c 128,-1,40
 455 190 455 190 504 190 c 0,41,42
 590 190 590 190 671 262 c 128,-1,43
 752 334 752 334 752 420 c 0,29,30
EndSplineSet
EndChar

StartChar: seven
Encoding: 23 55 26
Width: 1073
Flags: W
LayerCount: 2
Fore
SplineSet
1090 954 m 0,0,1
 1090 932 1090 932 1032 872 c 1,2,3
 993 834 993 834 954 797 c 1,4,5
 764 592 764 592 508 252 c 1,6,7
 457 168 457 168 342 10 c 1,8,9
 307 -31 307 -31 258 -31 c 0,10,11
 205 -31 205 -31 131 -16 c 0,12,13
 33 4 33 4 33 33 c 0,14,15
 33 57 33 57 268 367 c 0,16,17
 475 639 475 639 551 727 c 0,18,19
 592 776 592 776 739 920 c 1,20,21
 645 920 645 920 440 909 c 0,22,23
 244 899 244 899 141 899 c 0,24,25
 106 899 106 899 106 909 c 0,26,27
 106 950 106 950 140 1032 c 128,-1,28
 174 1114 174 1114 190.5 1124.5 c 128,-1,29
 207 1135 207 1135 303 1137 c 0,30,31
 391 1139 391 1139 426 1139 c 2,32,-1
 948 1135 l 2,33,34
 977 1135 977 1135 1033.5 1059 c 128,-1,35
 1090 983 1090 983 1090 954 c 0,0,1
EndSplineSet
EndChar

StartChar: eight
Encoding: 24 56 27
Width: 1188
Flags: W
LayerCount: 2
Fore
SplineSet
1165 1034 m 0,0,1
 1165 1016 1165 1016 1090 942 c 1,2,3
 1040 895 1040 895 991 850 c 1,4,5
 1077 764 1077 764 1077 698 c 0,6,7
 1077 639 1077 639 805 545 c 1,8,9
 930 393 930 393 930 295 c 0,10,11
 930 119 930 119 752 39 c 0,12,13
 621 -20 621 -20 420 -20 c 0,14,15
 291 -20 291 -20 190 20 c 0,16,17
 51 74 51 74 51 182 c 0,18,19
 51 219 51 219 59 262 c 0,20,21
 78 377 78 377 420 565 c 1,22,23
 248 729 248 729 248 860 c 0,24,25
 248 1016 248 1016 424 1092 c 1,26,27
 557 1151 557 1151 735 1151 c 0,28,29
 848 1151 848 1151 979 1128 c 0,30,31
 1165 1096 1165 1096 1165 1034 c 0,0,1
993 858 m 1,32,33
 803 973 803 973 668 973 c 0,34,35
 608 973 608 973 561 942 c 1,36,37
 508 905 508 905 508 848 c 0,38,39
 508 752 508 752 645 682 c 1,40,41
 842 793 842 793 993 858 c 1,32,33
662 289 m 0,42,43
 662 362 662 362 567 420 c 1,44,45
 504 395 504 395 442 354 c 0,46,47
 354 295 354 295 354 254 c 0,48,49
 354 209 354 209 393 182.5 c 128,-1,50
 432 156 432 156 481 156 c 0,51,52
 547 156 547 156 600 190 c 0,53,54
 662 229 662 229 662 289 c 0,42,43
EndSplineSet
EndChar

StartChar: nine
Encoding: 25 57 28
Width: 1118
Flags: W
LayerCount: 2
Fore
SplineSet
1047 811 m 0,0,1
 1047 592 1047 592 864 356 c 0,2,3
 805 281 805 281 676 158 c 1,4,5
 528 14 528 14 471 -4 c 0,6,7
 438 -14 438 -14 387 -14 c 0,8,9
 358 -14 358 -14 264 8 c 1,10,11
 160 35 160 35 160 49 c 0,12,13
 160 55 160 55 178 72 c 1,14,15
 334 201 334 201 401 262 c 1,16,17
 520 367 520 367 616 465 c 1,18,19
 442 436 442 436 401 436 c 0,20,21
 274 436 274 436 195 489 c 1,22,23
 102 553 102 553 102 674 c 0,24,25
 102 874 102 874 285 1020 c 0,26,27
 455 1155 455 1155 657 1155 c 0,28,29
 827 1155 827 1155 932 1069 c 0,30,31
 1047 975 1047 975 1047 811 c 0,0,1
752 825 m 0,32,33
 752 877 752 877 716 908.5 c 128,-1,34
 680 940 680 940 629 940 c 0,35,36
 563 940 563 940 485 887 c 0,37,38
 401 829 401 829 391 768 c 1,39,40
 385 739 385 739 385 713 c 0,41,42
 385 637 385 637 477 637 c 1,43,44
 465 637 465 637 535 643 c 1,45,-1
 530 641 l 1,46,47
 535 528 535 528 584 416 c 1,48,49
 672 565 672 565 692 612 c 1,50,51
 752 733 752 733 752 825 c 0,32,33
EndSplineSet
EndChar

StartChar: less
Encoding: 28 60 31
Width: 1143
Flags: W
LayerCount: 2
Fore
SplineSet
1151 850 m 0,0,1
 1151 819 1151 819 1106 795 c 1,2,3
 1040 756 1040 756 668 686 c 1,4,5
 311 616 311 616 205 614 c 1,6,7
 322 518 322 518 481 434 c 1,8,9
 627 362 627 362 773.5 289.5 c 128,-1,10
 920 217 920 217 920 188 c 0,11,12
 920 133 920 133 817 96 c 1,13,14
 702 131 702 131 444 281 c 1,15,16
 168 438 168 438 121 512 c 0,17,18
 90 559 90 559 90 588 c 0,19,20
 90 625 90 625 111 657 c 1,21,22
 170 686 170 686 256 709 c 1,23,24
 424 743 424 743 758 821 c 1,25,26
 846 848 846 848 934 874 c 0,27,28
 1053 909 1053 909 1108 909 c 0,29,30
 1151 909 1151 909 1151 850 c 0,0,1
EndSplineSet
EndChar

StartChar: greater
Encoding: 30 62 33
Width: 1212
Flags: W
LayerCount: 2
Fore
SplineSet
1104 412 m 0,0,1
 1104 383 1104 383 1085.5 364.5 c 128,-1,2
 1067 346 1067 346 989 329.5 c 128,-1,3
 911 313 911 313 754 279 c 0,4,5
 715 270 715 270 412 178 c 0,6,7
 178 106 178 106 84 106 c 0,8,9
 66 106 66 106 52.5 122.5 c 128,-1,10
 39 139 39 139 39 158 c 0,11,12
 39 190 39 190 90 223 c 0,13,14
 117 240 117 240 471 324 c 128,-1,15
 825 408 825 408 866 408 c 0,16,17
 915 408 915 408 1016 356 c 1,18,19
 940 422 940 422 862 487 c 0,20,21
 797 541 797 541 692 596 c 1,22,23
 559 659 559 659 301 799 c 1,24,25
 270 817 270 817 270 823 c 0,26,27
 270 860 270 860 305 889 c 128,-1,28
 340 918 340 918 377 918 c 0,29,30
 420 918 420 918 707 760 c 0,31,32
 987 606 987 606 1032 561 c 0,33,34
 1104 489 1104 489 1104 412 c 0,0,1
EndSplineSet
EndChar

StartChar: question
Encoding: 31 63 34
Width: 1020
Flags: W
LayerCount: 2
Fore
SplineSet
971 1020 m 0,0,1
 971 852 971 852 827 745 c 0,2,3
 662 623 662 623 502 389 c 0,4,5
 467 338 467 338 434 338 c 0,6,7
 373 338 373 338 373 381 c 0,8,9
 373 475 373 475 487 596 c 1,10,11
 559 668 559 668 700 811 c 1,12,13
 815 932 815 932 815 1022 c 0,14,15
 815 1077 815 1077 750 1122 c 0,16,17
 692 1163 692 1163 633 1163 c 0,18,19
 555 1163 555 1163 496 1102 c 0,20,21
 469 1073 469 1073 418 989 c 0,22,23
 381 928 381 928 352 928 c 0,24,25
 258 928 258 928 258 1014 c 0,26,27
 258 1053 258 1053 307 1118 c 0,28,29
 428 1282 428 1282 653 1282 c 0,30,31
 778 1282 778 1282 868 1214 c 1,32,33
 971 1141 971 1141 971 1020 c 0,0,1
438 123 m 0,34,35
 438 70 438 70 406.5 31 c 128,-1,36
 375 -8 375 -8 322 -8 c 0,37,38
 287 -8 287 -8 256 15.5 c 128,-1,39
 225 39 225 39 225 74 c 0,40,41
 225 121 225 121 268 160 c 128,-1,42
 311 199 311 199 358 199 c 0,43,44
 438 199 438 199 438 123 c 0,34,35
EndSplineSet
EndChar

StartChar: at
Encoding: 32 64 35
Width: 1638
Flags: W
LayerCount: 2
Fore
SplineSet
1567 698 m 0,0,1
 1567 504 1567 504 1416.5 372 c 128,-1,2
 1266 240 1266 240 1069 240 c 0,3,4
 1010 240 1010 240 993 283 c 0,5,6
 983 309 983 309 985 381 c 1,7,8
 819 240 819 240 668 240 c 0,9,10
 565 240 565 240 495.5 318.5 c 128,-1,11
 426 397 426 397 426 500 c 0,12,13
 426 662 426 662 535.5 771.5 c 128,-1,14
 645 881 645 881 807 881 c 0,15,16
 899 881 899 881 971 836 c 1,17,18
 1024 801 1024 801 1096 717 c 1,19,20
 1110 795 1110 795 1116 811 c 0,21,22
 1137 868 1137 868 1182 868 c 0,23,24
 1233 868 1233 868 1233 827 c 0,25,26
 1233 795 1233 795 1202 662 c 1,27,28
 1180 575 1180 575 1159 487 c 0,29,30
 1145 426 1145 426 1145 420 c 0,31,32
 1145 352 1145 352 1229 352 c 0,33,34
 1337 352 1337 352 1401 451 c 1,35,36
 1458 535 1458 535 1458 649 c 0,37,38
 1458 883 1458 883 1262 1004 c 0,39,40
 1098 1106 1098 1106 850 1106 c 0,41,42
 604 1106 604 1106 422 969 c 1,43,44
 219 819 219 819 219 582 c 0,45,46
 219 328 219 328 424 186 c 0,47,48
 604 61 604 61 868 61 c 0,49,50
 1001 61 1001 61 1112 86 c 1,51,52
 1204 109 1204 109 1264 141 c 0,53,54
 1317 170 1317 170 1327 170 c 0,55,56
 1368 170 1368 170 1368 141 c 0,57,58
 1368 94 1368 94 1165 25 c 1,59,60
 1022 -27 1022 -27 868 -27 c 0,61,62
 565 -27 565 -27 336 123 c 0,63,64
 72 295 72 295 72 582 c 0,65,66
 72 866 72 866 330 1040 c 1,67,68
 559 1192 559 1192 856 1192 c 0,69,70
 1122 1192 1122 1192 1323 1079 c 1,71,72
 1567 944 1567 944 1567 698 c 0,0,1
1051 584 m 0,73,74
 1051 666 1051 666 987 713 c 1,75,76
 930 752 930 752 844 752 c 0,77,78
 748 752 748 752 672 696 c 0,79,80
 588 635 588 635 588 543 c 0,81,82
 588 369 588 369 776 369 c 0,83,84
 885 369 885 369 963 420 c 1,85,86
 1051 479 1051 479 1051 584 c 0,73,74
EndSplineSet
EndChar

StartChar: A
Encoding: 33 65 36
Width: 920
Flags: W
LayerCount: 2
Fore
SplineSet
784 627 m 0,0,1
 784 514 784 514 774 293 c 0,2,3
 774 281 774 281 770 236 c 0,4,5
 766 199 766 199 766 178.5 c 128,-1,6
 766 158 766 158 700 158 c 0,7,8
 629 158 629 158 625 160 c 1,9,10
 575 166 575 166 575 201 c 0,11,12
 575 213 575 213 602 322 c 0,13,14
 616 381 616 381 625 467 c 1,15,16
 575 389 575 389 537 389 c 0,17,18
 528 389 528 389 518 393 c 128,-1,19
 508 397 508 397 508 397 c 1,20,21
 500 389 500 389 485.5 377 c 128,-1,22
 471 365 471 365 416 365 c 0,23,24
 406 365 406 365 379 373 c 1,25,26
 360 348 360 348 303 246 c 1,27,28
 293 225 293 225 270 186 c 1,29,30
 252 162 252 162 236 162 c 0,31,32
 145 162 145 162 111 190 c 1,33,34
 74 205 74 205 74 215 c 256,35,36
 74 225 74 225 104.5 285.5 c 128,-1,37
 135 346 135 346 139 358 c 1,38,39
 98 362 98 362 98 369 c 0,40,41
 98 389 98 389 120.5 455.5 c 128,-1,42
 143 522 143 522 156 530 c 1,43,44
 162 537 162 537 250 537 c 1,45,46
 252 539 252 539 326 657 c 0,47,48
 377 737 377 737 426 817 c 1,49,50
 494 924 494 924 535 961 c 0,51,52
 553 977 553 977 578 977 c 0,53,54
 733 977 733 977 764 942 c 0,55,56
 776 928 776 928 782 797 c 1,57,58
 784 729 784 729 784 627 c 0,0,1
635 598 m 0,59,60
 635 629 635 629 631 693.5 c 128,-1,61
 627 758 627 758 627 791 c 0,62,63
 627 834 627 834 629 893 c 1,64,65
 598 836 598 836 528 725 c 1,66,67
 483 666 483 666 436 604 c 1,68,69
 387 535 387 535 362 473 c 1,70,-1
 631 532 l 1,71,72
 635 565 635 565 635 598 c 0,59,60
EndSplineSet
EndChar

StartChar: B
Encoding: 34 66 37
Width: 1014
Flags: W
LayerCount: 2
Fore
SplineSet
991 770 m 0,0,1
 991 692 991 692 922 635 c 0,2,3
 883 602 883 602 782 555 c 1,4,5
 887 471 887 471 887 403 c 0,6,7
 887 248 887 248 649 180 c 1,8,9
 567 158 567 158 526 158 c 2,10,-1
 397 158 l 2,11,12
 352 158 352 158 335.5 166 c 128,-1,13
 319 174 319 174 269 225 c 128,-1,14
 219 276 219 276 217 291 c 1,15,16
 236 354 236 354 272 481 c 0,17,18
 289 541 289 541 379 776 c 1,19,20
 315 776 315 776 279 764 c 1,21,22
 268 762 268 762 248 756 c 1,23,-1
 250 758 l 1,24,25
 250 793 250 793 270.5 846 c 128,-1,26
 291 899 291 899 315 918 c 0,27,28
 352 946 352 946 471 965 c 0,29,30
 565 981 565 981 639 981 c 0,31,32
 760 981 760 981 862 934 c 1,33,34
 991 877 991 877 991 770 c 0,0,1
762 737 m 0,35,36
 762 825 762 825 600 825 c 0,37,38
 520 825 520 825 287 766 c 1,39,40
 358 762 358 762 430 756 c 0,41,42
 549 745 549 745 567 731 c 1,43,-1
 567 725 l 2,44,45
 567 719 567 719 524 608 c 1,46,-1
 578 608 l 2,47,48
 635 608 635 608 694 643 c 0,49,50
 762 684 762 684 762 737 c 0,35,36
670 408 m 0,51,52
 670 440 670 440 643 455 c 0,53,54
 600 479 600 479 598 481 c 1,55,56
 594 504 594 504 588 547 c 1,57,58
 584 565 584 565 559 627 c 1,59,60
 514 563 514 563 498 514 c 2,61,-1
 428 305 l 1,62,63
 469 295 469 295 489 295 c 0,64,65
 606 295 606 295 649 356 c 0,66,67
 670 385 670 385 670 408 c 0,51,52
EndSplineSet
EndChar

StartChar: C
Encoding: 35 67 38
Width: 889
Flags: W
LayerCount: 2
Fore
SplineSet
881 840 m 0,0,1
 881 756 881 756 845 730.5 c 128,-1,2
 809 705 809 705 725 705 c 0,3,4
 684 705 684 705 676 717 c 1,5,6
 690 758 690 758 690 780 c 0,7,8
 690 827 690 827 627 827 c 0,9,10
 575 827 575 827 510 735 c 1,11,12
 457 662 457 662 432 596 c 1,13,14
 397 496 397 496 397 412 c 0,15,16
 397 342 397 342 477 342 c 0,17,18
 530 342 530 342 568 407.5 c 128,-1,19
 606 473 606 473 645 473 c 0,20,21
 690 473 690 473 739 467 c 0,22,23
 774 463 774 463 774 446 c 0,24,25
 774 428 774 428 758 389 c 0,26,27
 715 289 715 289 680 252 c 1,28,29
 639 211 639 211 541 178 c 1,30,31
 471 156 471 156 414 156 c 0,32,33
 293 156 293 156 233 250 c 0,34,35
 184 328 184 328 184 455 c 0,36,37
 184 512 184 512 217 606 c 1,38,39
 266 752 266 752 395 885 c 1,40,41
 492 983 492 983 672 983 c 0,42,43
 881 983 881 983 881 840 c 0,0,1
EndSplineSet
EndChar

StartChar: D
Encoding: 36 68 39
Width: 1047
Flags: W
LayerCount: 2
Fore
SplineSet
989 653 m 0,0,1
 989 510 989 510 877 385 c 0,2,3
 782 279 782 279 635 209 c 0,4,5
 506 147 506 147 410 147 c 0,6,7
 315 147 315 147 215 256 c 0,8,9
 193 281 193 281 193 291 c 0,10,11
 193 358 193 358 258 541 c 1,12,13
 305 670 305 670 352 799 c 1,14,15
 295 797 295 797 227 776 c 1,16,17
 236 811 236 811 258 866 c 1,18,19
 287 932 287 932 305.5 942 c 128,-1,20
 324 952 324 952 408 963.5 c 128,-1,21
 492 975 492 975 520 975 c 0,22,23
 590 975 590 975 696 963 c 0,24,25
 811 950 811 950 900 859 c 128,-1,26
 989 768 989 768 989 653 c 0,0,1
760 637 m 0,27,28
 760 733 760 733 672 784 c 0,29,30
 598 827 598 827 498 827 c 0,31,32
 475 827 475 827 395 823 c 1,33,-1
 399 797 l 1,34,35
 416 795 416 795 438.5 780.5 c 128,-1,36
 461 766 461 766 471 764 c 1,37,38
 541 741 541 741 541 705 c 0,39,40
 541 686 541 686 516 629 c 1,41,42
 471 518 471 518 420 328 c 1,43,44
 506 340 506 340 541 350 c 0,45,46
 608 369 608 369 645 408 c 1,47,48
 760 524 760 524 760 637 c 0,27,28
EndSplineSet
EndChar

StartChar: E
Encoding: 37 69 40
Width: 915
Flags: W
LayerCount: 2
Fore
SplineSet
942 950 m 0,0,1
 942 936 942 936 922.5 878.5 c 128,-1,2
 903 821 903 821 894 810 c 128,-1,3
 885 799 885 799 836 799 c 0,4,5
 788 799 788 799 694 803 c 128,-1,6
 600 807 600 807 553 807 c 0,7,8
 528 807 528 807 489 803 c 0,9,10
 440 799 440 799 426 799 c 1,11,12
 481 760 481 760 528 735 c 1,13,14
 537 733 537 733 555 723 c 1,15,16
 555 717 555 717 524 625 c 1,17,18
 547 625 547 625 733 625 c 0,19,20
 825 625 825 625 825 608 c 0,21,22
 825 598 825 598 803 537 c 1,23,24
 797 516 797 516 788 502 c 1,25,26
 776 475 776 475 767 471 c 128,-1,27
 758 467 758 467 727 467 c 0,28,29
 700 467 700 467 649 467 c 128,-1,30
 598 467 598 467 571 467 c 0,31,32
 569 467 569 467 467 467 c 1,33,34
 446 414 446 414 403 309 c 1,35,36
 432 309 432 309 686 309 c 0,37,38
 733 309 733 309 733 293 c 0,39,40
 733 281 733 281 711 215 c 0,41,42
 692 160 692 160 637 160 c 0,43,44
 590 160 590 160 498 160 c 1,45,46
 406 162 406 162 360 162 c 0,47,48
 274 162 274 162 227 205 c 0,49,50
 195 233 195 233 195 274 c 0,51,52
 195 311 195 311 215 371 c 0,53,54
 231 418 231 418 248 465 c 1,55,56
 186 465 186 465 186 485 c 0,57,58
 186 492 186 492 199 535 c 1,59,60
 215 594 215 594 230.5 611.5 c 128,-1,61
 246 629 246 629 301 623 c 1,62,63
 303 627 303 627 371 799 c 1,64,65
 334 799 334 799 276 809 c 1,66,67
 276 815 276 815 301 893 c 0,68,69
 319 948 319 948 336.5 959.5 c 128,-1,70
 354 971 354 971 418 971 c 2,71,-1
 606 971 l 2,72,73
 653 971 653 971 748 969 c 1,74,75
 842 969 842 969 889 969 c 0,76,77
 942 969 942 969 942 950 c 0,0,1
EndSplineSet
EndChar

StartChar: F
Encoding: 38 70 41
Width: 852
Flags: W
LayerCount: 2
Fore
SplineSet
877 948 m 0,0,1
 877 942 877 942 866.5 910.5 c 128,-1,2
 856 879 856 879 848 848 c 1,3,4
 831 809 831 809 803 809 c 0,5,6
 760 809 760 809 672 812 c 128,-1,7
 584 815 584 815 541 815 c 0,8,9
 473 815 473 815 397 811 c 1,10,11
 426 795 426 795 485 768 c 1,12,13
 545 750 545 750 545 727 c 0,14,15
 545 694 545 694 516 627 c 1,16,-1
 735 627 l 2,17,18
 772 627 772 627 772 616 c 0,19,20
 772 575 772 575 758 528 c 0,21,22
 739 467 739 467 711 467 c 2,23,-1
 455 469 l 1,24,25
 432 393 432 393 410 317 c 1,26,27
 381 229 381 229 350 174 c 1,28,29
 344 166 344 166 322 166 c 0,30,31
 156 166 156 166 156 211 c 0,32,33
 156 217 156 217 195 326 c 0,34,35
 236 442 236 442 242 465 c 1,36,37
 215 467 215 467 178 479 c 1,38,39
 178 494 178 494 201.5 555 c 128,-1,40
 225 616 225 616 233 625 c 1,41,42
 242 627 242 627 258 629 c 0,43,44
 311 633 311 633 317 657 c 2,45,-1
 362 813 l 1,46,47
 326 813 326 813 254 819 c 1,48,49
 254 834 254 834 293 920 c 0,50,51
 309 956 309 956 323.5 964.5 c 128,-1,52
 338 973 338 973 379 973 c 0,53,54
 635 973 635 973 825 961 c 1,55,56
 877 956 877 956 877 948 c 0,0,1
EndSplineSet
EndChar

StartChar: G
Encoding: 39 71 42
Width: 1032
Flags: W
LayerCount: 2
Fore
SplineSet
987 573 m 0,0,1
 987 565 987 565 972.5 517 c 128,-1,2
 958 469 958 469 930 455 c 1,3,4
 909 446 909 446 856 446 c 1,5,6
 844 365 844 365 786 303 c 1,7,-1
 733 250 l 1,8,9
 645 158 645 158 467 158 c 0,10,11
 203 158 203 158 203 473 c 0,12,13
 203 547 203 547 255 660.5 c 128,-1,14
 307 774 307 774 354 829 c 0,15,16
 414 899 414 899 512 942 c 1,17,18
 600 979 600 979 659 979 c 0,19,20
 772 979 772 979 852 948 c 1,21,22
 967 905 967 905 967 809 c 0,23,24
 967 762 967 762 953.5 750.5 c 128,-1,25
 940 739 940 739 889 731 c 0,26,27
 795 717 795 717 748 717 c 0,28,29
 731 717 731 717 731 727 c 0,30,31
 731 733 731 733 733 748.5 c 128,-1,32
 735 764 735 764 735 772 c 0,33,34
 735 827 735 827 659 827 c 0,35,36
 547 827 547 827 469 682 c 1,37,38
 399 557 399 557 399 432 c 0,39,40
 399 389 399 389 426 352 c 128,-1,41
 453 315 453 315 496 315 c 0,42,43
 549 315 549 315 582.5 349 c 128,-1,44
 616 383 616 383 616 434 c 1,45,46
 561 422 561 422 520 422 c 0,47,48
 500 422 500 422 500 434 c 0,49,50
 500 442 500 442 513 492.5 c 128,-1,51
 526 543 526 543 530 549 c 0,52,53
 545 567 545 567 690 580 c 1,54,55
 795 588 795 588 870 588 c 0,56,57
 987 588 987 588 987 573 c 0,0,1
EndSplineSet
EndChar

StartChar: H
Encoding: 40 72 43
Width: 1073
Flags: W
LayerCount: 2
Fore
SplineSet
1087 907 m 0,0,1
 1087 879 1087 879 968.5 543 c 128,-1,2
 850 207 850 207 827 174 c 1,3,4
 819 160 819 160 754 160 c 0,5,6
 627 160 627 160 627 190 c 0,7,8
 627 215 627 215 709 426 c 1,9,10
 778 598 778 598 811 676 c 1,11,12
 750 616 750 616 639 489 c 0,13,14
 631 479 631 479 618 465 c 1,15,16
 612 461 612 461 463 455 c 1,17,18
 430 344 430 344 381 201 c 1,19,20
 360 162 360 162 330 162 c 0,21,22
 236 162 236 162 188 184 c 0,23,24
 176 190 176 190 176 205 c 0,25,26
 176 207 176 207 254 453 c 1,27,28
 188 459 188 459 188 483 c 0,29,30
 188 510 188 510 219 582 c 0,31,32
 236 623 236 623 258 633 c 1,33,34
 270 637 270 637 326 645 c 1,35,36
 375 829 375 829 432 928 c 1,37,38
 457 969 457 969 483 969 c 0,39,40
 639 969 639 969 639 920 c 0,41,42
 639 893 639 893 621 854 c 1,43,44
 590 782 590 782 528 633 c 1,45,46
 610 631 610 631 776 627 c 1,47,48
 803 702 803 702 858 852 c 1,49,50
 864 879 864 879 883 930 c 1,51,52
 901 965 901 965 924 965 c 0,53,54
 995 965 995 965 1057 942 c 0,55,56
 1087 930 1087 930 1087 907 c 0,0,1
EndSplineSet
EndChar

StartChar: I
Encoding: 41 73 44
Width: 709
Flags: W
LayerCount: 2
Fore
SplineSet
678 934 m 0,0,1
 678 920 678 920 627 784 c 1,2,3
 604 727 604 727 559 610 c 1,4,5
 494 406 494 406 412 182 c 1,6,7
 399 164 399 164 373 164 c 0,8,9
 170 164 170 164 170 223 c 0,10,11
 170 252 170 252 297 591 c 128,-1,12
 424 930 424 930 446 956 c 0,13,14
 461 975 461 975 516 975 c 0,15,16
 678 975 678 975 678 934 c 0,0,1
EndSplineSet
EndChar

StartChar: J
Encoding: 42 74 45
Width: 842
Flags: W
LayerCount: 2
Fore
SplineSet
852 928 m 0,0,1
 852 899 852 899 801 760 c 1,2,3
 766 668 766 668 733 578 c 1,4,5
 711 508 711 508 690 438 c 0,6,7
 664 354 664 354 633 303 c 0,8,9
 584 221 584 221 520 190 c 1,10,11
 465 166 465 166 365 166 c 0,12,13
 289 166 289 166 195 197 c 1,14,15
 111 223 111 223 111 328 c 0,16,17
 111 365 111 365 123 430 c 1,18,19
 139 506 139 506 160 518 c 0,20,21
 172 526 172 526 254 526 c 0,22,23
 322 526 322 526 322 508 c 0,24,25
 322 485 322 485 303.5 440 c 128,-1,26
 285 395 285 395 285 369 c 0,27,28
 285 313 285 313 362 313 c 0,29,30
 426 313 426 313 461 383 c 0,31,32
 467 397 467 397 489 467 c 1,33,34
 535 590 535 590 616 840 c 1,35,36
 631 883 631 883 643 926 c 1,37,38
 666 975 666 975 711 975 c 0,39,40
 852 975 852 975 852 928 c 0,0,1
EndSplineSet
EndChar

StartChar: K
Encoding: 43 75 46
Width: 1133
Flags: W
LayerCount: 2
Fore
SplineSet
1155 897 m 256,0,1
 1155 874 1155 874 1114 813 c 0,2,3
 942 551 942 551 694 500 c 1,4,5
 705 475 705 475 770 389 c 0,6,7
 860 272 860 272 940 137 c 1,8,9
 938 127 938 127 905 113 c 1,10,11
 862 92 862 92 860 92 c 0,12,13
 850 90 850 90 819 78 c 128,-1,14
 788 66 788 66 772 66 c 0,15,16
 752 66 752 66 598 311 c 0,17,18
 559 373 559 373 489 455 c 1,19,20
 489 360 489 360 473 295 c 0,21,22
 465 260 465 260 422 145 c 1,23,-1
 416 145 l 1,24,25
 375 143 375 143 311 152 c 1,26,27
 227 162 227 162 227 184 c 0,28,29
 227 215 227 215 281 365 c 1,30,31
 317 461 317 461 354 557 c 1,32,33
 391 688 391 688 487 940 c 1,34,35
 498 961 498 961 535 961 c 0,36,37
 694 961 694 961 694 922 c 0,38,39
 694 889 694 889 584 645 c 1,40,41
 639 635 639 635 643 635 c 0,42,43
 678 635 678 635 727 666 c 0,44,45
 889 768 889 768 954 905 c 0,46,47
 975 948 975 948 987 948 c 0,48,49
 1026 948 1026 948 1081 936 c 0,50,51
 1155 920 1155 920 1155 897 c 256,0,1
EndSplineSet
EndChar

StartChar: L
Encoding: 44 76 47
Width: 778
Flags: W
LayerCount: 2
Fore
SplineSet
676 332 m 0,0,1
 676 324 676 324 651 256 c 0,2,3
 631 199 631 199 625 193 c 1,4,5
 608 166 608 166 563 166 c 2,6,-1
 475 166 l 2,7,8
 317 166 317 166 256 172 c 1,9,10
 215 174 215 174 166 213 c 128,-1,11
 117 252 117 252 117 293 c 0,12,13
 117 352 117 352 147 436 c 1,14,15
 174 506 174 506 201 575 c 1,16,17
 248 711 248 711 356 977 c 1,18,19
 367 983 367 983 395 983 c 0,20,21
 565 983 565 983 565 946 c 0,22,23
 565 924 565 924 539 856 c 1,24,25
 457 655 457 655 350 338 c 1,26,27
 418 336 418 336 657 336 c 0,28,29
 676 336 676 336 676 332 c 0,0,1
EndSplineSet
EndChar

StartChar: M
Encoding: 45 77 48
Width: 1362
Flags: W
LayerCount: 2
Fore
SplineSet
1307 911 m 0,0,1
 1307 897 1307 897 1292 788 c 1,2,3
 1280 709 1280 709 1257 549 c 1,4,5
 1247 436 1247 436 1214 213 c 0,6,7
 1206 160 1206 160 1149 160 c 0,8,9
 1028 160 1028 160 1001 174 c 1,10,11
 989 178 989 178 989 199 c 0,12,13
 989 217 989 217 1012 328 c 1,14,15
 1049 451 1049 451 1102 698 c 1,16,17
 1061 645 1061 645 946 518 c 0,18,19
 860 424 860 424 801 334 c 0,20,21
 764 279 764 279 717 279 c 0,22,23
 635 279 635 279 612 293 c 0,24,25
 580 311 580 311 580 383 c 0,26,27
 580 412 580 412 573 602 c 1,28,-1
 569 770 l 1,29,30
 522 608 522 608 422 287 c 1,31,32
 391 193 391 193 378 179.5 c 128,-1,33
 365 166 365 166 346 166 c 0,34,35
 203 166 203 166 203 201 c 0,36,37
 203 258 203 258 334 604 c 128,-1,38
 465 950 465 950 494 965 c 0,39,40
 508 973 508 973 545 973 c 0,41,42
 565 973 565 973 602 969 c 1,43,44
 688 956 688 956 703.5 939 c 128,-1,45
 719 922 719 922 725 834 c 0,46,47
 727 819 727 819 733 782 c 1,48,49
 739 754 739 754 739 733 c 2,50,-1
 735 625 l 1,51,52
 735 592 735 592 739 549 c 0,53,54
 741 530 741 530 729 477 c 1,55,56
 807 606 807 606 899 715 c 0,57,58
 930 752 930 752 1096 934 c 1,59,60
 1126 969 1126 969 1155 969 c 0,61,62
 1307 969 1307 969 1307 911 c 0,0,1
EndSplineSet
EndChar

StartChar: N
Encoding: 46 78 49
Width: 1063
Flags: W
LayerCount: 2
Fore
SplineSet
1061 918 m 0,0,1
 1061 870 1061 870 985 637 c 1,2,3
 920 434 920 434 883 346 c 1,4,5
 866 311 866 311 850 276 c 1,6,7
 834 236 834 236 834 203 c 0,8,9
 834 197 834 197 842 172 c 1,10,11
 836 166 836 166 815 166 c 0,12,13
 662 166 662 166 625 211 c 1,14,15
 565 481 565 481 494 811 c 1,16,17
 432 479 432 479 369 274 c 0,18,19
 362 248 362 248 344 195 c 1,20,21
 330 166 330 166 303 166 c 0,22,23
 150 166 150 166 150 211 c 0,24,25
 150 219 150 219 236 489 c 1,26,27
 317 748 317 748 334 797 c 0,28,29
 397 977 397 977 414 977 c 0,30,31
 446 977 446 977 508.5 962.5 c 128,-1,32
 571 948 571 948 598 934 c 1,33,34
 653 901 653 901 702 664 c 1,35,36
 727 512 727 512 754 360 c 1,37,38
 764 446 764 446 782 621 c 1,39,40
 788 694 788 694 823 795 c 1,41,42
 854 879 854 879 885 963 c 1,43,44
 893 971 893 971 913 971 c 0,45,46
 948 971 948 971 997 958 c 0,47,48
 1061 940 1061 940 1061 918 c 0,0,1
EndSplineSet
EndChar

StartChar: O
Encoding: 47 79 50
Width: 1055
Flags: W
LayerCount: 2
Fore
SplineSet
997 768 m 0,0,1
 997 436 997 436 776 254 c 1,2,3
 651 154 651 154 526 154 c 0,4,5
 481 154 481 154 416 162 c 1,6,7
 328 176 328 176 270 264 c 0,8,9
 217 346 217 346 217 440 c 0,10,11
 217 598 217 598 302 742.5 c 128,-1,12
 387 887 387 887 526 946 c 0,13,14
 627 989 627 989 692 989 c 0,15,16
 715 989 715 989 715 983 c 128,-1,17
 715 977 715 977 743.5 955.5 c 128,-1,18
 772 934 772 934 766 891 c 1,19,20
 897 979 897 979 913 979 c 0,21,22
 997 979 997 979 997 768 c 0,0,1
778 791 m 0,23,24
 778 825 778 825 743 887 c 1,25,26
 721 817 721 817 674 815 c 1,27,-1
 625 793 l 1,28,29
 541 750 541 750 487.5 648.5 c 128,-1,30
 434 547 434 547 434 446 c 0,31,32
 434 334 434 334 541 334 c 0,33,34
 592 334 592 334 655 403 c 1,35,36
 711 467 711 467 729 522 c 0,37,38
 770 641 770 641 770 737 c 0,39,40
 770 748 770 748 774 765 c 128,-1,41
 778 782 778 782 778 791 c 0,23,24
EndSplineSet
EndChar

StartChar: P
Encoding: 48 80 51
Width: 948
Flags: W
LayerCount: 2
Fore
SplineSet
944 737 m 0,0,1
 944 627 944 627 850 532 c 1,2,3
 766 449 766 449 653 416 c 0,4,5
 586 397 586 397 565 397 c 0,6,7
 541 397 541 397 524 469 c 0,8,9
 522 481 522 481 510 502 c 1,10,11
 500 516 500 516 500 541 c 1,12,13
 481 508 481 508 459 467 c 1,14,15
 465 473 465 473 467 475 c 1,16,17
 467 473 467 473 467 471 c 0,18,19
 467 455 467 455 424 318.5 c 128,-1,20
 381 182 381 182 373 168 c 1,21,22
 358 160 358 160 326 160 c 0,23,24
 184 160 184 160 184 197 c 0,25,26
 184 217 184 217 281 508 c 0,27,28
 336 674 336 674 389 842 c 1,29,30
 330 780 330 780 319 774 c 1,31,32
 274 737 274 737 233 737 c 0,33,34
 217 737 217 737 217 743 c 0,35,36
 217 797 217 797 238 852 c 1,37,38
 268 936 268 936 367 961 c 0,39,40
 420 975 420 975 543 975 c 0,41,42
 627 975 627 975 709 965 c 1,43,44
 799 952 799 952 871.5 888.5 c 128,-1,45
 944 825 944 825 944 737 c 0,0,1
729 711 m 0,46,47
 729 774 729 774 670 795 c 1,48,49
 614 803 614 803 557 811 c 0,50,51
 547 813 547 813 519.5 820 c 128,-1,52
 492 827 492 827 475 827 c 0,53,54
 457 827 457 827 422 823 c 1,55,56
 449 803 449 803 502 774 c 1,57,58
 508 772 508 772 508 774 c 1,59,60
 508 768 508 768 529.5 742.5 c 128,-1,61
 551 717 551 717 551 700 c 0,62,63
 551 672 551 672 498 559 c 1,64,65
 582 569 582 569 643 600 c 0,66,67
 729 643 729 643 729 711 c 0,46,47
EndSplineSet
EndChar

StartChar: Q
Encoding: 49 81 52
Width: 1065
Flags: W
LayerCount: 2
Fore
SplineSet
1016 731 m 0,0,1
 1016 432 1016 432 752 227 c 1,2,3
 836 152 836 152 836 133 c 0,4,5
 836 123 836 123 764 80 c 128,-1,6
 692 37 692 37 676 37 c 0,7,8
 662 37 662 37 616 78 c 1,9,10
 588 106 588 106 559 135 c 1,11,12
 508 133 508 133 494 133 c 0,13,14
 373 133 373 133 296 212 c 128,-1,15
 219 291 219 291 219 412 c 0,16,17
 219 492 219 492 264 616 c 1,18,19
 315 766 315 766 439 863.5 c 128,-1,20
 563 961 563 961 719 961 c 0,21,22
 741 961 741 961 741 952 c 0,23,24
 741 918 741 918 692 852 c 1,25,-1
 778 852 l 1,26,27
 903 944 903 944 942 944 c 0,28,29
 1016 944 1016 944 1016 731 c 0,0,1
782 725 m 0,30,31
 782 780 782 780 758 877 c 1,32,33
 729 846 729 846 688 786 c 1,34,35
 586 752 586 752 512 642 c 128,-1,36
 438 532 438 532 438 424 c 0,37,38
 438 365 438 365 467 336 c 1,39,40
 496 328 496 328 504 328 c 0,41,42
 537 328 537 328 562.5 357.5 c 128,-1,43
 588 387 588 387 590 387 c 0,44,45
 608 387 608 387 645 360 c 1,46,47
 782 520 782 520 782 725 c 0,30,31
EndSplineSet
EndChar

StartChar: R
Encoding: 50 82 53
Width: 1001
Flags: W
LayerCount: 2
Fore
SplineSet
969 731 m 0,0,1
 969 621 969 621 874 541 c 0,2,3
 819 494 819 494 682 428 c 1,4,5
 723 383 723 383 799 283 c 1,6,7
 889 160 889 160 889 139 c 0,8,9
 889 125 889 125 822.5 96.5 c 128,-1,10
 756 68 756 68 735 68 c 1,11,12
 735 70 735 70 731 70 c 1,13,14
 719 80 719 80 666 158 c 1,15,16
 598 250 598 250 467 438 c 1,17,-1
 373 152 l 1,18,19
 350 147 350 147 287 147 c 0,20,21
 178 147 178 147 178 182 c 0,22,23
 178 201 178 201 229 350 c 2,24,-1
 379 784 l 1,25,26
 262 762 262 762 258 762 c 0,27,28
 242 762 242 762 229 764 c 1,29,30
 229 788 229 788 249.5 842.5 c 128,-1,31
 270 897 270 897 287.5 912.5 c 128,-1,32
 305 928 305 928 440 946 c 1,33,34
 557 963 557 963 610 963 c 0,35,36
 743 963 743 963 842 913 c 0,37,38
 969 850 969 850 969 731 c 0,0,1
762 700 m 0,39,40
 762 813 762 813 559 813 c 0,41,42
 502 813 502 813 387 776 c 1,43,44
 408 762 408 762 451 739 c 1,45,46
 479 733 479 733 508 729 c 1,47,48
 551 719 551 719 551 702 c 0,49,50
 551 684 551 684 531.5 642 c 128,-1,51
 512 600 512 600 514 573 c 1,52,-1
 514 547 l 1,53,54
 598 547 598 547 672 584 c 1,55,56
 762 627 762 627 762 700 c 0,39,40
EndSplineSet
EndChar

StartChar: S
Encoding: 51 83 54
Width: 803
Flags: W
LayerCount: 2
Fore
SplineSet
856 940 m 0,0,1
 856 909 856 909 836 838 c 1,2,3
 819 782 819 782 786 772 c 0,4,5
 778 770 778 770 694 770 c 0,6,7
 670 770 670 770 643 774 c 1,8,-1
 657 813 l 1,9,-1
 594 813 l 2,10,11
 559 813 559 813 526.5 794.5 c 128,-1,12
 494 776 494 776 494 741 c 0,13,14
 494 717 494 717 509 695.5 c 128,-1,15
 524 674 524 674 557 631 c 1,16,17
 662 500 662 500 662 416 c 0,18,19
 662 276 662 276 547 211 c 1,20,21
 453 156 453 156 303 156 c 0,22,23
 209 156 209 156 150 164 c 0,24,25
 111 170 111 170 102.5 181.5 c 128,-1,26
 94 193 94 193 94 231 c 0,27,28
 94 254 94 254 111.5 316.5 c 128,-1,29
 129 379 129 379 140.5 391 c 128,-1,30
 152 403 152 403 184 403 c 0,31,32
 285 403 285 403 293 401 c 1,33,34
 291 379 291 379 276 332 c 1,35,36
 315 319 315 319 340 319 c 0,37,38
 453 319 453 319 453 393 c 0,39,40
 453 449 453 449 359.5 562.5 c 128,-1,41
 266 676 266 676 266 735 c 0,42,43
 266 817 266 817 373 891 c 1,44,45
 463 952 463 952 555 967 c 1,46,47
 635 979 635 979 756 979 c 0,48,49
 856 979 856 979 856 940 c 0,0,1
EndSplineSet
EndChar

StartChar: T
Encoding: 52 84 55
Width: 903
Flags: W
LayerCount: 2
Fore
SplineSet
975 952 m 0,0,1
 975 940 975 940 956 887 c 0,2,3
 944 854 944 854 932 821 c 1,4,5
 922 809 922 809 862 809 c 0,6,7
 827 809 827 809 757.5 811 c 128,-1,8
 688 813 688 813 651 813 c 0,9,10
 530 813 530 813 541 815 c 1,11,12
 588 782 588 782 690 743 c 1,13,14
 725 731 725 731 725 717 c 0,15,16
 725 702 725 702 688 600 c 1,17,18
 645 465 645 465 555 201 c 1,19,20
 539 160 539 160 492 160 c 0,21,22
 457 160 457 160 401 168 c 0,23,24
 328 178 328 178 328 190 c 0,25,26
 328 223 328 223 352 283 c 0,27,28
 371 328 371 328 389 373 c 1,29,30
 430 492 430 492 520 727 c 1,31,32
 535 762 535 762 535 776 c 0,33,34
 535 817 535 817 489 817 c 0,35,36
 465 817 465 817 419 815 c 128,-1,37
 373 813 373 813 350 813 c 0,38,39
 281 813 281 813 281 842 c 0,40,41
 281 864 281 864 296 908 c 128,-1,42
 311 952 311 952 326.5 961.5 c 128,-1,43
 342 971 342 971 395 971 c 2,44,-1
 541 971 l 2,45,46
 604 971 604 971 915 963 c 0,47,48
 975 961 975 961 975 952 c 0,0,1
EndSplineSet
EndChar

StartChar: U
Encoding: 53 85 56
Width: 1047
Flags: W
LayerCount: 2
Fore
SplineSet
1051 928 m 0,0,1
 1051 889 1051 889 1014 782 c 1,2,3
 987 707 987 707 958 633 c 1,4,5
 866 354 866 354 770 229 c 0,6,7
 713 156 713 156 563 156 c 0,8,9
 432 156 432 156 342 203 c 0,10,11
 227 264 227 264 227 383 c 0,12,13
 227 436 227 436 281 606 c 1,14,15
 305 690 305 690 356 858 c 0,16,17
 367 893 367 893 389 961 c 1,18,19
 397 975 397 975 449 975 c 0,20,21
 606 975 606 975 606 948 c 0,22,23
 606 930 606 930 551 772 c 0,24,25
 481 569 481 569 449 412 c 1,26,27
 459 367 459 367 477.5 351.5 c 128,-1,28
 496 336 496 336 541 336 c 0,29,30
 559 336 559 336 578 340 c 1,31,32
 641 348 641 348 698 492 c 1,33,34
 731 594 731 594 764 694 c 1,35,36
 786 756 786 756 827 879 c 0,37,38
 834 901 834 901 852 942 c 1,39,40
 866 963 866 963 913 963 c 0,41,42
 1051 963 1051 963 1051 928 c 0,0,1
EndSplineSet
EndChar

StartChar: V
Encoding: 54 86 57
Width: 975
Flags: W
LayerCount: 2
Fore
SplineSet
1020 928 m 0,0,1
 1020 854 1020 854 787.5 504 c 128,-1,2
 555 154 555 154 506 154 c 0,3,4
 483 154 483 154 415.5 171 c 128,-1,5
 348 188 348 188 344 201 c 1,6,7
 342 227 342 227 340 270 c 1,8,9
 326 432 326 432 326 629 c 0,10,11
 326 942 326 942 331 955.5 c 128,-1,12
 336 969 336 969 354 969 c 0,13,14
 391 969 391 969 449 961 c 0,15,16
 522 950 522 950 531.5 936 c 128,-1,17
 541 922 541 922 541 877 c 0,18,19
 541 854 541 854 535 819 c 0,20,21
 528 774 528 774 528 762 c 1,22,23
 522 694 522 694 522 584 c 0,24,25
 522 573 522 573 517 550.5 c 128,-1,26
 512 528 512 528 512 516 c 0,27,28
 512 508 512 508 520 371 c 1,29,30
 610 541 610 541 786 883 c 0,31,32
 799 909 799 909 814 938 c 128,-1,33
 829 967 829 967 856 967 c 0,34,35
 885 967 885 967 946 956 c 0,36,37
 1020 942 1020 942 1020 928 c 0,0,1
EndSplineSet
EndChar

StartChar: W
Encoding: 55 87 58
Width: 1497
Flags: W
LayerCount: 2
Fore
SplineSet
1530 926 m 0,0,1
 1530 874 1530 874 1339.5 542.5 c 128,-1,2
 1149 211 1149 211 1100 172 c 1,3,4
 1083 160 1083 160 1065 160 c 0,5,6
 942 160 942 160 918 197 c 0,7,8
 905 217 905 217 905 350 c 0,9,10
 905 391 905 391 903 512 c 0,11,12
 901 604 901 604 903 674 c 1,13,14
 862 596 862 596 786 465 c 1,15,16
 764 432 764 432 723 367 c 1,17,18
 696 317 696 317 670 266 c 1,19,20
 635 207 635 207 602 176 c 1,21,22
 592 164 592 164 573 164 c 0,23,24
 438 164 438 164 422 205 c 1,25,26
 416 225 416 225 416 430 c 0,27,28
 416 512 416 512 419 673 c 128,-1,29
 422 834 422 834 422 913 c 0,30,31
 422 975 422 975 465 975 c 256,32,33
 508 975 508 975 582 958 c 1,34,35
 627 950 627 950 627 913 c 0,36,37
 627 813 627 813 614 655 c 0,38,39
 594 426 594 426 592 399 c 1,40,41
 707 631 707 631 856 901 c 1,42,43
 879 926 879 926 909 926 c 0,44,45
 1026 926 1026 926 1053 907 c 1,46,47
 1057 883 1057 883 1057 811 c 0,48,49
 1057 532 1057 532 1049 432 c 1,50,51
 1133 555 1133 555 1241 768 c 0,52,53
 1288 862 1288 862 1350 965 c 1,54,55
 1358 969 1358 969 1368 969 c 0,56,57
 1530 969 1530 969 1530 926 c 0,0,1
EndSplineSet
EndChar

StartChar: X
Encoding: 56 88 59
Width: 948
Flags: W
LayerCount: 2
Fore
SplineSet
942 932 m 0,0,1
 942 922 942 922 664 547 c 1,2,3
 702 436 702 436 788 287 c 0,4,5
 829 215 829 215 829 182 c 0,6,7
 829 158 829 158 758 158 c 2,8,-1
 731 158 l 2,9,10
 662 158 662 158 631 184.5 c 128,-1,11
 600 211 600 211 576.5 275.5 c 128,-1,12
 553 340 553 340 514 428 c 1,13,14
 424 160 424 160 328 158 c 1,15,-1
 285 158 l 1,16,17
 164 156 164 156 164 188 c 0,18,19
 164 199 164 199 289 362 c 0,20,21
 428 545 428 545 436 561 c 1,22,23
 408 639 408 639 383 692 c 0,24,25
 354 754 354 754 324 815 c 1,26,27
 287 897 287 897 287 944 c 0,28,29
 287 969 287 969 344 969 c 0,30,31
 467 969 467 969 494 948 c 0,32,33
 506 938 506 938 567 707 c 1,34,35
 596 743 596 743 651 821 c 1,36,37
 670 854 670 854 711 915 c 1,38,39
 748 967 748 967 784 967 c 0,40,41
 942 967 942 967 942 932 c 0,0,1
EndSplineSet
EndChar

StartChar: Y
Encoding: 57 89 60
Width: 922
Flags: W
LayerCount: 2
Fore
SplineSet
956 934 m 0,0,1
 956 909 956 909 942 889 c 2,2,-1
 573 317 l 1,3,4
 545 268 545 268 481 178 c 1,5,6
 463 158 463 158 432 158 c 0,7,8
 391 158 391 158 340 166 c 0,9,10
 268 178 268 178 268 199 c 0,11,12
 268 209 268 209 336 313 c 1,13,14
 360 354 360 354 412 436 c 1,15,16
 408 457 408 457 371 604 c 0,17,18
 356 666 356 666 328.5 784.5 c 128,-1,19
 301 903 301 903 301 950 c 0,20,21
 301 977 301 977 319 977 c 0,22,23
 352 977 352 977 416 967 c 0,24,25
 492 954 492 954 500 942 c 1,26,27
 500 940 500 940 512 869.5 c 128,-1,28
 524 799 524 799 524 741 c 0,29,30
 524 664 524 664 510 537 c 1,31,32
 563 637 563 637 616 739 c 1,33,34
 680 858 680 858 735 934 c 1,35,36
 764 971 764 971 793 971 c 0,37,38
 956 971 956 971 956 934 c 0,0,1
EndSplineSet
EndChar

StartChar: Z
Encoding: 58 90 61
Width: 858
Flags: W
LayerCount: 2
Fore
SplineSet
858 817 m 0,0,1
 858 801 858 801 836 776 c 1,2,3
 817 760 817 760 799 743 c 1,4,5
 686 625 686 625 571 506 c 0,6,7
 438 369 438 369 328 289 c 1,8,9
 444 299 444 299 645 299 c 0,10,11
 653 299 653 299 671.5 301 c 128,-1,12
 690 303 690 303 696 303 c 1,13,14
 696 283 696 283 684 248 c 1,15,16
 676 221 676 221 653 180 c 1,17,18
 639 170 639 170 483 170 c 2,19,-1
 373 170 l 2,20,21
 201 170 201 170 186.5 179 c 128,-1,22
 172 188 172 188 149.5 232 c 128,-1,23
 127 276 127 276 127 295 c 0,24,25
 127 311 127 311 186 369 c 1,26,27
 217 397 217 397 275.5 455.5 c 128,-1,28
 334 514 334 514 446 631 c 1,29,30
 547 733 547 733 686 846 c 1,31,32
 522 831 522 831 444 831 c 2,33,-1
 283 831 l 1,34,35
 283 854 283 854 309 920 c 1,36,37
 315 938 315 938 332 971 c 1,38,39
 342 985 342 985 553 985 c 2,40,-1
 664 985 l 2,41,42
 756 985 756 985 772 981 c 1,43,44
 811 967 811 967 834.5 904.5 c 128,-1,45
 858 842 858 842 858 817 c 0,0,1
EndSplineSet
EndChar

StartChar: bracketleft
Encoding: 59 91 62
Width: 885
Flags: W
LayerCount: 2
Fore
SplineSet
1036 1333 m 1,0,-1
 991 1229 l 1,1,-1
 768 1229 l 1,2,-1
 258 -115 l 1,3,-1
 492 -115 l 1,4,-1
 457 -217 l 1,5,-1
 92 -217 l 1,6,-1
 676 1333 l 1,7,-1
 1036 1333 l 1,0,-1
EndSplineSet
EndChar

StartChar: backslash
Encoding: 60 92 63
Width: 1012
Flags: W
LayerCount: 2
Fore
SplineSet
868 -150 m 1,0,-1
 786 -182 l 1,1,-1
 264 1260 l 1,2,-1
 346 1286 l 1,3,-1
 868 -150 l 1,0,-1
EndSplineSet
EndChar

StartChar: bracketright
Encoding: 61 93 64
Width: 885
Flags: W
LayerCount: 2
Fore
SplineSet
881 1333 m 1,0,-1
 297 -223 l 1,1,-1
 -61 -223 l 1,2,-1
 -18 -117 l 1,3,-1
 207 -117 l 1,4,-1
 711 1221 l 1,5,-1
 479 1221 l 1,6,-1
 518 1333 l 1,7,-1
 881 1333 l 1,0,-1
EndSplineSet
EndChar

StartChar: asciicircum
Encoding: 62 94 65
Width: 735
Flags: W
LayerCount: 2
Fore
SplineSet
772 862 m 0,0,1
 772 809 772 809 686 782 c 1,2,-1
 700 772 l 1,3,-1
 700 786 l 1,4,5
 674 797 674 797 641 879 c 2,6,7
 641 879 641 879 596 993 c 1,8,9
 567 1008 567 1008 543 1051 c 1,10,11
 299 854 299 854 238 854 c 0,12,13
 203 854 203 854 203 909 c 1,14,-1
 209 930 l 1,15,16
 270 991 270 991 382 1063 c 128,-1,17
 494 1135 494 1135 578 1169 c 1,18,-1
 588 1169 l 2,19,20
 612 1169 612 1169 692 1034 c 128,-1,21
 772 899 772 899 772 862 c 0,0,1
EndSplineSet
EndChar

StartChar: underscore
Encoding: 63 95 66
Width: 1223
Flags: W
LayerCount: 2
Fore
SplineSet
1081 -330 m 1,0,-1
 -190 -330 l 1,1,-1
 -190 -223 l 1,2,-1
 1081 -223 l 1,3,-1
 1081 -330 l 1,0,-1
EndSplineSet
EndChar

StartChar: grave
Encoding: 64 96 67
Width: 766
Flags: W
LayerCount: 2
Fore
SplineSet
705 905 m 1,0,1
 694 879 694 879 651 893 c 1,2,3
 618 905 618 905 442 1038 c 128,-1,4
 266 1171 266 1171 254 1194 c 1,5,6
 264 1210 264 1210 336 1233.5 c 128,-1,7
 408 1257 408 1257 424 1249 c 1,8,9
 467 1235 467 1235 575 1100 c 1,10,11
 670 979 670 979 705 918 c 1,12,-1
 705 905 l 1,0,1
EndSplineSet
EndChar

StartChar: a
Encoding: 65 97 68
Width: 850
Flags: W
LayerCount: 2
Fore
SplineSet
735 618 m 0,0,1
 735 520 735 520 725 332 c 0,2,3
 725 322 725 322 721 283 c 1,4,5
 719 252 719 252 719 234.5 c 128,-1,6
 719 217 719 217 662 217 c 0,7,8
 600 217 600 217 596 217 c 0,9,10
 555 223 555 223 555 254 c 0,11,12
 555 264 555 264 578 356 c 0,13,14
 590 408 590 408 596 481 c 1,15,16
 555 414 555 414 520 414 c 0,17,18
 514 414 514 414 506 418 c 128,-1,19
 498 422 498 422 496 422 c 1,20,21
 489 414 489 414 477 403.5 c 128,-1,22
 465 393 465 393 418 393 c 0,23,24
 410 393 410 393 385 399 c 1,25,26
 371 379 371 379 322 291 c 1,27,28
 311 274 311 274 293 242 c 1,29,30
 276 221 276 221 264 221 c 0,31,32
 186 221 186 221 156 246 c 1,33,34
 123 256 123 256 123 266 c 0,35,36
 123 274 123 274 149.5 326.5 c 128,-1,37
 176 379 176 379 180 389 c 1,38,39
 145 391 145 391 145 397 c 0,40,41
 145 414 145 414 164.5 471 c 128,-1,42
 184 528 184 528 192.5 534.5 c 128,-1,43
 201 541 201 541 276 541 c 1,44,45
 276 543 276 543 342 645 c 1,46,47
 383 713 383 713 426 782 c 1,48,49
 485 874 485 874 520 905 c 1,50,51
 537 918 537 918 557 918 c 0,52,53
 690 918 690 918 717 889 c 0,54,55
 727 877 727 877 731 764 c 1,56,57
 735 707 735 707 735 618 c 0,0,1
606 594 m 0,58,59
 606 621 606 621 602 676 c 128,-1,60
 598 731 598 731 598 758 c 0,61,62
 598 795 598 795 600 848 c 1,63,64
 573 797 573 797 514 702 c 1,65,66
 475 651 475 651 436 600 c 1,67,68
 393 541 393 541 371 487 c 1,69,-1
 602 537 l 1,70,71
 606 565 606 565 606 594 c 0,58,59
EndSplineSet
EndChar

StartChar: b
Encoding: 66 98 69
Width: 956
Flags: W
LayerCount: 2
Fore
SplineSet
936 741 m 0,0,1
 936 674 936 674 877 625 c 0,2,3
 844 598 844 598 758 557 c 1,4,5
 846 485 846 485 846 426 c 0,6,7
 846 295 846 295 641 238 c 1,8,9
 571 217 571 217 539 217 c 2,10,-1
 426 217 l 2,11,12
 387 217 387 217 373.5 224 c 128,-1,13
 360 231 360 231 317 275 c 128,-1,14
 274 319 274 319 272 330 c 1,15,16
 289 385 289 385 319 494 c 0,17,18
 334 545 334 545 412 748 c 1,19,20
 356 745 356 745 326 737 c 1,21,22
 317 733 317 733 299 729 c 1,23,-1
 301 731 l 1,24,25
 301 760 301 760 318.5 806 c 128,-1,26
 336 852 336 852 356 868 c 0,27,28
 389 893 389 893 489 909 c 0,29,30
 571 922 571 922 633 922 c 0,31,32
 737 922 737 922 825 883 c 1,33,34
 936 831 936 831 936 741 c 0,0,1
739 713 m 0,35,36
 739 788 739 788 600 788 c 0,37,38
 532 788 532 788 332 737 c 1,39,40
 393 733 393 733 455 729 c 0,41,42
 557 721 557 721 571 709 c 1,43,-1
 573 702 l 1,44,45
 573 696 573 696 535 602 c 1,46,-1
 582 602 l 2,47,48
 631 602 631 602 685 635 c 128,-1,49
 739 668 739 668 739 713 c 0,35,36
662 432 m 0,50,51
 662 459 662 459 637 471 c 1,52,53
 600 492 600 492 598 494 c 1,54,55
 596 512 596 512 590 551 c 0,56,57
 588 565 588 565 565 618 c 1,58,59
 526 563 526 563 512 522 c 2,60,-1
 453 342 l 1,61,62
 489 334 489 334 506 334 c 0,63,64
 606 334 606 334 643 387 c 1,65,66
 662 412 662 412 662 432 c 0,50,51
EndSplineSet
EndChar

StartChar: c
Encoding: 67 99 70
Width: 838
Flags: W
LayerCount: 2
Fore
SplineSet
831 801 m 0,0,1
 831 729 831 729 797 705 c 1,2,3
 770 684 770 684 696 684 c 0,4,5
 664 684 664 684 655 696 c 1,6,7
 668 731 668 731 668 750 c 0,8,9
 668 791 668 791 612 791 c 0,10,11
 569 791 569 791 512 713 c 1,12,13
 467 649 467 649 446 592 c 1,14,15
 418 506 418 506 418 434 c 0,16,17
 418 375 418 375 485 375 c 0,18,19
 530 375 530 375 563 430 c 128,-1,20
 596 485 596 485 629 485 c 0,21,22
 668 485 668 485 709 481 c 1,23,24
 741 479 741 479 741 465 c 0,25,26
 741 449 741 449 725 414 c 0,27,28
 688 328 688 328 659 297 c 1,29,30
 623 262 623 262 539 233 c 1,31,32
 479 215 479 215 430 215 c 0,33,34
 233 215 233 215 233 471 c 0,35,36
 233 520 233 520 262 602 c 1,37,38
 303 725 303 725 414 840 c 1,39,40
 498 924 498 924 651 924 c 0,41,42
 831 924 831 924 831 801 c 0,0,1
EndSplineSet
EndChar

StartChar: d
Encoding: 68 100 71
Width: 983
Flags: W
LayerCount: 2
Fore
SplineSet
932 641 m 0,0,1
 932 518 932 518 836 410 c 0,2,3
 756 319 756 319 629 260 c 1,4,5
 518 207 518 207 436 207 c 256,6,7
 354 207 354 207 268 299 c 0,8,9
 250 319 250 319 250 330 c 0,10,11
 250 387 250 387 305 543 c 1,12,13
 346 655 346 655 387 766 c 1,14,15
 338 762 338 762 281 745 c 1,16,17
 287 776 287 776 305 823 c 1,18,19
 330 879 330 879 348 889 c 0,20,21
 360 895 360 895 436 905 c 0,22,23
 506 915 506 915 530 915 c 0,24,25
 590 915 590 915 680 905 c 0,26,27
 780 895 780 895 856 817 c 128,-1,28
 932 739 932 739 932 641 c 0,0,1
735 627 m 0,29,30
 735 709 735 709 659 752 c 1,31,32
 598 791 598 791 510 791 c 0,33,34
 492 791 492 791 422 784 c 1,35,-1
 426 762 l 1,36,37
 446 752 446 752 487 735 c 1,38,39
 547 717 547 717 547 684 c 0,40,41
 547 670 547 670 526 618 c 0,42,43
 487 524 487 524 444 362 c 1,44,45
 518 373 518 373 547 379 c 1,46,47
 606 395 606 395 637 428 c 0,48,49
 735 530 735 530 735 627 c 0,29,30
EndSplineSet
EndChar

StartChar: e
Encoding: 69 101 72
Width: 864
Flags: W
LayerCount: 2
Fore
SplineSet
889 895 m 0,0,1
 889 883 889 883 871.5 833.5 c 128,-1,2
 854 784 854 784 847 774 c 128,-1,3
 840 764 840 764 797 764 c 0,4,5
 756 764 756 764 675 768 c 128,-1,6
 594 772 594 772 555 772 c 0,7,8
 535 772 535 772 500 770 c 1,9,10
 459 766 459 766 446 766 c 1,11,12
 494 733 494 733 532 711 c 1,13,14
 541 709 541 709 557 700 c 1,15,16
 557 694 557 694 530 616 c 1,17,18
 551 616 551 616 709 616 c 0,19,20
 788 616 788 616 788 602 c 0,21,22
 788 594 788 594 770 541 c 0,23,24
 764 522 764 522 758 510 c 0,25,26
 745 487 745 487 738 484 c 128,-1,27
 731 481 731 481 702 481 c 0,28,29
 680 481 680 481 636 481 c 128,-1,30
 592 481 592 481 569 481 c 2,31,32
 569 481 569 481 481 481 c 1,33,34
 465 434 465 434 428 346 c 1,35,36
 451 346 451 346 668 346 c 0,37,38
 709 346 709 346 709 332 c 0,39,40
 709 322 709 322 690 264 c 0,41,42
 674 217 674 217 627 217 c 0,43,44
 586 217 586 217 508 219 c 1,45,46
 428 219 428 219 389 219 c 0,47,48
 315 219 315 219 274 256 c 1,49,50
 248 281 248 281 248 317 c 0,51,52
 248 340 248 340 293 479 c 1,53,54
 240 479 240 479 240 496 c 0,55,56
 240 502 240 502 250 539 c 0,57,58
 264 590 264 590 277.5 604 c 128,-1,59
 291 618 291 618 338 614 c 1,60,61
 340 618 340 618 399 766 c 1,62,63
 367 766 367 766 317 774 c 1,64,65
 317 778 317 778 340 846 c 1,66,67
 354 895 354 895 369.5 904 c 128,-1,68
 385 913 385 913 438 913 c 2,69,-1
 600 913 l 2,70,71
 641 913 641 913 721 911 c 1,72,73
 801 911 801 911 842 911 c 0,74,75
 889 911 889 911 889 895 c 0,0,1
EndSplineSet
EndChar

StartChar: f
Encoding: 70 102 73
Width: 803
Flags: W
LayerCount: 2
Fore
SplineSet
825 893 m 0,0,1
 825 889 825 889 816 861.5 c 128,-1,2
 807 834 807 834 796.5 805 c 128,-1,3
 786 776 786 776 762 776 c 0,4,5
 725 776 725 776 650 778 c 128,-1,6
 575 780 575 780 537 780 c 0,7,8
 479 780 479 780 414 776 c 1,9,10
 438 762 438 762 489.5 742.5 c 128,-1,11
 541 723 541 723 541 705 c 0,12,13
 541 676 541 676 516 618 c 1,14,-1
 705 618 l 2,15,16
 735 618 735 618 735 608 c 0,17,18
 735 575 735 575 723 535 c 1,19,20
 709 481 709 481 682 481 c 2,21,-1
 463 483 l 1,22,23
 444 418 444 418 424 354 c 1,24,25
 399 279 399 279 373 231 c 0,26,27
 369 223 369 223 350 223 c 0,28,29
 207 223 207 223 207 262 c 0,30,31
 207 268 207 268 240 360 c 0,32,33
 276 461 276 461 281 479 c 1,34,35
 258 481 258 481 227 494 c 1,36,37
 227 506 227 506 246.5 558 c 128,-1,38
 266 610 266 610 273.5 614 c 128,-1,39
 281 618 281 618 295 618 c 1,40,41
 340 623 340 623 346 645 c 2,42,-1
 385 778 l 1,43,44
 352 778 352 778 291 784 c 1,45,46
 293 797 293 797 326 868 c 1,47,48
 340 901 340 901 351 908 c 128,-1,49
 362 915 362 915 397 915 c 0,50,51
 616 915 616 915 780 905 c 1,52,53
 825 901 825 901 825 893 c 0,0,1
EndSplineSet
EndChar

StartChar: g
Encoding: 71 103 74
Width: 971
Flags: W
LayerCount: 2
Fore
SplineSet
932 573 m 0,0,1
 932 565 932 565 919.5 524 c 128,-1,2
 907 483 907 483 885.5 473 c 128,-1,3
 864 463 864 463 819 463 c 1,4,5
 809 393 809 393 760 342 c 2,6,-1
 715 295 l 2,7,8
 639 217 639 217 485 217 c 0,9,10
 260 217 260 217 260 487 c 0,11,12
 260 549 260 549 304 647 c 128,-1,13
 348 745 348 745 387 793 c 1,14,15
 438 852 438 852 524 889 c 0,16,17
 598 920 598 920 651 920 c 0,18,19
 748 920 748 920 815 895 c 1,20,21
 913 856 913 856 913 774 c 0,22,23
 913 733 913 733 902 724 c 128,-1,24
 891 715 891 715 848 709 c 0,25,26
 766 696 766 696 725 696 c 0,27,28
 711 696 711 696 711 705 c 0,29,30
 711 711 711 711 713 724 c 128,-1,31
 715 737 715 737 715 743 c 0,32,33
 715 791 715 791 649 791 c 0,34,35
 553 791 553 791 485 666 c 1,36,37
 428 559 428 559 428 453 c 0,38,39
 428 414 428 414 450.5 383 c 128,-1,40
 473 352 473 352 510 352 c 0,41,42
 612 352 612 352 614 455 c 1,43,44
 565 442 565 442 530 442 c 0,45,46
 512 442 512 442 512 453 c 0,47,48
 512 461 512 461 524.5 504 c 128,-1,49
 537 547 537 547 541 551 c 1,50,51
 563 586 563 586 831 586 c 0,52,53
 932 586 932 586 932 573 c 0,0,1
EndSplineSet
EndChar

StartChar: h
Encoding: 72 104 75
Width: 1012
Flags: W
LayerCount: 2
Fore
SplineSet
1024 858 m 0,0,1
 1024 834 1024 834 920.5 546 c 128,-1,2
 817 258 817 258 801 229 c 1,3,4
 793 217 793 217 737 217 c 0,5,6
 627 217 627 217 627 244 c 0,7,8
 627 297 627 297 786 659 c 1,9,10
 731 608 731 608 637 502 c 1,11,12
 631 492 631 492 621 479 c 1,13,14
 614 477 614 477 487 471 c 1,15,16
 459 377 459 377 418 252 c 1,17,18
 399 219 399 219 373 219 c 0,19,20
 291 219 291 219 252 240 c 1,21,22
 240 244 240 244 240 256 c 0,23,24
 240 258 240 258 309 469 c 1,25,26
 252 475 252 475 252 494 c 0,27,28
 252 518 252 518 279 580 c 0,29,30
 293 612 293 612 311 623 c 1,31,32
 322 627 322 627 371 633 c 1,33,34
 412 793 412 793 461 877 c 0,35,36
 481 911 481 911 504 911 c 0,37,38
 639 911 639 911 639 868 c 0,39,40
 639 846 639 846 623 811 c 0,41,42
 596 752 596 752 545 625 c 1,43,44
 612 621 612 621 756 618 c 1,45,46
 778 682 778 682 825 811 c 1,47,48
 831 834 831 834 848 877 c 1,49,50
 862 907 862 907 881 907 c 0,51,52
 944 907 944 907 997 889 c 0,53,54
 1024 879 1024 879 1024 858 c 0,0,1
EndSplineSet
EndChar

StartChar: i
Encoding: 73 105 76
Width: 668
Flags: W
LayerCount: 2
Fore
SplineSet
641 881 m 0,0,1
 641 870 641 870 598 754 c 1,2,3
 578 705 578 705 541 604 c 1,4,5
 483 430 483 430 414 238 c 1,6,7
 403 223 403 223 379 223 c 0,8,9
 207 223 207 223 207 272 c 0,10,11
 207 297 207 297 315.5 588 c 128,-1,12
 424 879 424 879 442 901 c 1,13,14
 457 915 457 915 504 915 c 0,15,16
 641 915 641 915 641 881 c 0,0,1
EndSplineSet
EndChar

StartChar: j
Encoding: 74 106 77
Width: 791
Flags: W
LayerCount: 2
Fore
SplineSet
799 879 m 0,0,1
 799 852 799 852 756 733 c 1,2,3
 725 653 725 653 696 575 c 1,4,5
 678 516 678 516 659 457 c 0,6,7
 637 385 637 385 610 342 c 1,8,9
 569 270 569 270 514 246 c 0,10,11
 467 225 467 225 381 225 c 0,12,13
 231 225 231 225 184 281 c 0,14,15
 162 307 162 307 162 362 c 0,16,17
 162 393 162 393 174 449 c 0,18,19
 188 516 188 516 202.5 524 c 128,-1,20
 217 532 217 532 285 532 c 0,21,22
 344 532 344 532 344 516 c 0,23,24
 344 498 344 498 328.5 459 c 128,-1,25
 313 420 313 420 313 397 c 0,26,27
 313 350 313 350 379 350 c 0,28,29
 434 350 434 350 463 410 c 0,30,31
 469 422 469 422 489 481 c 0,32,33
 526 588 526 588 598 801 c 1,34,35
 608 838 608 838 623.5 878 c 128,-1,36
 639 918 639 918 678 918 c 0,37,38
 799 918 799 918 799 879 c 0,0,1
EndSplineSet
EndChar

StartChar: k
Encoding: 75 107 78
Width: 1071
Flags: W
LayerCount: 2
Fore
SplineSet
1090 842 m 0,0,1
 1090 823 1090 823 1053 770 c 1,2,3
 907 547 907 547 694 502 c 1,4,5
 702 481 702 481 758 408 c 0,6,7
 836 307 836 307 903 190 c 1,8,9
 903 182 903 182 874 170 c 0,10,11
 838 154 838 154 836 152 c 1,12,13
 827 150 827 150 800.5 139.5 c 128,-1,14
 774 129 774 129 762 129 c 0,15,16
 743 129 743 129 610 340 c 1,17,18
 578 393 578 393 518 463 c 1,19,20
 518 381 518 381 504 326 c 1,21,22
 498 297 498 297 459 199 c 1,23,-1
 455 199 l 1,24,25
 420 197 420 197 367 203 c 1,26,27
 293 213 293 213 293 231 c 0,28,29
 293 248 293 248 403 551 c 1,30,31
 434 664 434 664 518 881 c 0,32,33
 524 897 524 897 557 897 c 0,34,35
 694 897 694 897 694 864 c 0,36,37
 694 836 694 836 598 625 c 1,38,39
 647 616 647 616 649 616 c 0,40,41
 680 616 680 616 723 643 c 1,42,43
 860 733 860 733 915 848 c 0,44,45
 934 887 934 887 944 887 c 0,46,47
 977 887 977 887 1026 877 c 1,48,49
 1090 862 1090 862 1090 842 c 0,0,1
EndSplineSet
EndChar

StartChar: l
Encoding: 76 108 79
Width: 723
Flags: W
LayerCount: 2
Fore
SplineSet
635 367 m 0,0,1
 635 358 635 358 614 301 c 0,2,3
 596 252 596 252 592 246 c 0,4,5
 578 225 578 225 541 225 c 2,6,-1
 465 225 l 2,7,8
 330 225 330 225 276 229 c 0,9,10
 242 231 242 231 200 264 c 128,-1,11
 158 297 158 297 158 334 c 0,12,13
 158 383 158 383 182 457 c 1,14,15
 207 516 207 516 229 575 c 1,16,17
 270 692 270 692 360 920 c 1,18,19
 371 926 371 926 395 926 c 0,20,21
 541 926 541 926 541 893 c 0,22,23
 541 874 541 874 518 817 c 0,24,25
 446 643 446 643 356 373 c 1,26,27
 414 371 414 371 621 371 c 0,28,29
 635 371 635 371 635 367 c 0,0,1
EndSplineSet
EndChar

StartChar: m
Encoding: 77 109 80
Width: 1276
Flags: W
LayerCount: 2
Fore
SplineSet
1229 862 m 0,0,1
 1229 850 1229 850 1217 758 c 1,2,3
 1204 688 1204 688 1186 551 c 1,4,5
 1176 455 1176 455 1149 264 c 1,6,7
 1141 219 1141 219 1094 219 c 0,8,9
 989 219 989 219 967 229 c 0,10,11
 956 233 956 233 956 252 c 0,12,13
 956 266 956 266 975 362 c 1,14,15
 1006 467 1006 467 1053 680 c 1,16,17
 969 592 969 592 795 367 c 1,18,19
 762 319 762 319 721 319 c 0,20,21
 653 319 653 319 633 332 c 1,22,23
 604 348 604 348 604 410 c 0,24,25
 604 434 604 434 600 598 c 2,26,-1
 596 741 l 1,27,28
 555 602 555 602 469 326 c 1,29,30
 442 246 442 246 431 234.5 c 128,-1,31
 420 223 420 223 403 223 c 0,32,33
 281 223 281 223 281 254 c 0,34,35
 281 303 281 303 393.5 599 c 128,-1,36
 506 895 506 895 530 907 c 1,37,38
 543 915 543 915 575 915 c 0,39,40
 592 915 592 915 623 911 c 0,41,42
 696 901 696 901 709.5 885.5 c 128,-1,43
 723 870 723 870 729 795 c 0,44,45
 731 782 731 782 736 754.5 c 128,-1,46
 741 727 741 727 741 709 c 2,47,-1
 739 616 l 1,48,49
 743 592 743 592 733 489 c 1,50,51
 819 631 819 631 1047 883 c 0,52,53
 1073 911 1073 911 1098 911 c 0,54,55
 1229 911 1229 911 1229 862 c 0,0,1
EndSplineSet
EndChar

StartChar: n
Encoding: 78 110 81
Width: 997
Flags: W
LayerCount: 2
Fore
SplineSet
997 868 m 0,0,1
 997 829 997 829 930 627 c 0,2,3
 874 455 874 455 844 379 c 1,4,5
 829 348 829 348 815 319 c 1,6,7
 801 283 801 283 801 256 c 0,8,9
 801 250 801 250 809 229 c 1,10,11
 803 225 803 225 786 225 c 0,12,13
 653 225 653 225 621 262 c 1,14,15
 571 494 571 494 510 776 c 1,16,17
 457 492 457 492 403 315 c 0,18,19
 397 293 397 293 381 250 c 0,20,21
 371 223 371 223 346 223 c 0,22,23
 213 223 213 223 213 262 c 0,24,25
 213 270 213 270 287 502 c 0,26,27
 358 723 358 723 373 764 c 0,28,29
 428 918 428 918 440 918 c 0,30,31
 537 918 537 918 598 883 c 0,32,33
 647 854 647 854 688 649 c 1,34,35
 711 520 711 520 731 391 c 1,36,37
 741 465 741 465 758 612 c 1,38,39
 762 678 762 678 793 762 c 1,40,41
 817 834 817 834 844 907 c 1,42,43
 852 913 852 913 868 913 c 0,44,45
 899 913 899 913 942 903 c 1,46,47
 997 887 997 887 997 868 c 0,0,1
EndSplineSet
EndChar

StartChar: o
Encoding: 79 111 82
Width: 989
Flags: W
LayerCount: 2
Fore
SplineSet
942 741 m 0,0,1
 942 455 942 455 752 299 c 1,2,3
 645 213 645 213 539 213 c 0,4,5
 498 213 498 213 444 221 c 0,6,7
 369 231 369 231 317 309 c 1,8,9
 272 379 272 379 272 459 c 0,10,11
 272 594 272 594 345 718 c 128,-1,12
 418 842 418 842 539 893 c 0,13,14
 625 930 625 930 680 930 c 0,15,16
 700 930 700 930 700 925 c 128,-1,17
 700 920 700 920 724 901.5 c 128,-1,18
 748 883 748 883 743 846 c 1,19,20
 856 920 856 920 870 920 c 0,21,22
 942 920 942 920 942 741 c 0,0,1
754 760 m 0,23,24
 754 788 754 788 725 842 c 1,25,26
 705 782 705 782 664 780 c 1,27,-1
 623 760 l 1,28,29
 551 723 551 723 505 637 c 128,-1,30
 459 551 459 551 459 465 c 0,31,32
 459 367 459 367 551 367 c 0,33,34
 594 367 594 367 649 428 c 0,35,36
 696 481 696 481 713 530 c 0,37,38
 748 631 748 631 748 715 c 0,39,40
 748 723 748 723 751 737.5 c 128,-1,41
 754 752 754 752 754 760 c 0,23,24
EndSplineSet
EndChar

StartChar: p
Encoding: 80 112 83
Width: 895
Flags: W
LayerCount: 2
Fore
SplineSet
889 713 m 0,0,1
 889 618 889 618 809 539 c 1,2,3
 737 465 737 465 641 438 c 0,4,5
 582 422 582 422 565 422 c 0,6,7
 545 422 545 422 530 483 c 0,8,9
 528 494 528 494 518 512 c 1,10,11
 510 524 510 524 510 545 c 1,12,13
 494 516 494 516 475 481 c 1,14,15
 479 487 479 487 479 487 c 1,16,17
 481 487 481 487 481 485 c 0,18,19
 481 471 481 471 444.5 354.5 c 128,-1,20
 408 238 408 238 397.5 228.5 c 128,-1,21
 387 219 387 219 360 219 c 0,22,23
 240 219 240 219 240 250 c 0,24,25
 240 266 240 266 322 516 c 0,26,27
 369 659 369 659 414 803 c 1,28,29
 326 713 326 713 281 713 c 0,30,31
 266 713 266 713 266 719 c 0,32,33
 266 764 266 764 285 811 c 1,34,35
 311 883 311 883 393 905 c 0,36,37
 440 918 440 918 547 918 c 0,38,39
 618 918 618 918 688 907 c 1,40,41
 766 897 766 897 825 846 c 1,42,43
 889 788 889 788 889 713 c 0,0,1
705 690 m 0,44,45
 705 745 705 745 655 762 c 1,46,47
 606 770 606 770 559 776 c 0,48,49
 551 778 551 778 526.5 784.5 c 128,-1,50
 502 791 502 791 489 791 c 0,51,52
 473 791 473 791 442 786 c 1,53,54
 465 770 465 770 512 743 c 0,55,56
 516 741 516 741 516 743 c 1,57,58
 516 739 516 739 534.5 716.5 c 128,-1,59
 553 694 553 694 553 680 c 0,60,61
 553 657 553 657 506 561 c 1,62,63
 705 584 705 584 705 690 c 0,44,45
EndSplineSet
EndChar

StartChar: q
Encoding: 81 113 84
Width: 1001
Flags: W
LayerCount: 2
Fore
SplineSet
958 698 m 0,0,1
 958 442 958 442 731 266 c 1,2,3
 803 201 803 201 803 186 c 0,4,5
 803 176 803 176 742.5 139 c 128,-1,6
 682 102 682 102 668 102 c 0,7,8
 659 102 659 102 567 186 c 1,9,10
 524 186 524 186 512 186 c 0,11,12
 408 186 408 186 342 252.5 c 128,-1,13
 276 319 276 319 276 424 c 0,14,15
 276 494 276 494 313 600 c 0,16,17
 358 727 358 727 464.5 811 c 128,-1,18
 571 895 571 895 705 895 c 0,19,20
 725 895 725 895 725 887 c 0,21,22
 725 858 725 858 682 803 c 1,23,-1
 756 803 l 1,24,25
 862 881 862 881 895 881 c 0,26,27
 958 881 958 881 958 698 c 0,0,1
760 694 m 0,28,29
 760 739 760 739 737 823 c 1,30,31
 713 797 713 797 678 745 c 1,32,33
 590 717 590 717 526.5 622.5 c 128,-1,34
 463 528 463 528 463 434 c 0,35,36
 463 383 463 383 487 358 c 1,37,38
 512 352 512 352 520 352 c 0,39,40
 547 352 547 352 569.5 376.5 c 128,-1,41
 592 401 592 401 594 401 c 0,42,43
 608 401 608 401 641 379 c 1,44,45
 760 516 760 516 760 694 c 0,28,29
EndSplineSet
EndChar

StartChar: r
Encoding: 82 114 85
Width: 940
Flags: W
LayerCount: 2
Fore
SplineSet
913 700 m 0,0,1
 913 606 913 606 831 537 c 0,2,3
 784 498 784 498 668 440 c 1,4,5
 700 401 700 401 766 315 c 1,6,7
 844 211 844 211 844 193 c 0,8,9
 844 180 844 180 786.5 156.5 c 128,-1,10
 729 133 729 133 713 133 c 0,11,12
 711 133 711 133 709 133 c 1,13,14
 698 141 698 141 651 209 c 1,15,16
 594 287 594 287 481 449 c 1,17,-1
 401 203 l 1,18,19
 381 201 381 201 328 201 c 0,20,21
 233 201 233 201 233 229 c 0,22,23
 233 246 233 246 279 373 c 1,24,-1
 406 745 l 1,25,26
 305 727 305 727 303 727 c 0,27,28
 291 727 291 727 279 729 c 1,29,30
 279 750 279 750 296 796 c 128,-1,31
 313 842 313 842 328.5 856 c 128,-1,32
 344 870 344 870 459 885 c 0,33,34
 559 899 559 899 604 899 c 0,35,36
 719 899 719 899 803 856 c 1,37,38
 913 803 913 803 913 700 c 0,0,1
735 674 m 0,39,40
 735 772 735 772 561 772 c 0,41,42
 512 772 512 772 414 739 c 1,43,44
 432 725 432 725 469 707 c 1,45,46
 494 702 494 702 518 698 c 1,47,48
 555 690 555 690 555 676 c 0,49,50
 555 659 555 659 538.5 623.5 c 128,-1,51
 522 588 522 588 522 565 c 2,52,-1
 522 543 l 1,53,54
 594 543 594 543 657 573 c 0,55,56
 735 610 735 610 735 674 c 0,39,40
EndSplineSet
EndChar

StartChar: s
Encoding: 83 115 86
Width: 756
Flags: W
LayerCount: 2
Fore
SplineSet
803 887 m 0,0,1
 803 860 803 860 784 799 c 0,2,3
 770 752 770 752 741 743 c 0,4,5
 735 741 735 741 664 741 c 0,6,7
 641 741 641 741 621 743 c 1,8,-1
 631 778 l 1,9,-1
 578 778 l 2,10,11
 547 778 547 778 522 764 c 1,12,13
 492 745 492 745 492 717 c 0,14,15
 492 696 492 696 504 677.5 c 128,-1,16
 516 659 516 659 547 623 c 1,17,18
 635 510 635 510 635 436 c 0,19,20
 635 215 635 215 328 215 c 0,21,22
 248 215 248 215 195 223 c 0,23,24
 162 227 162 227 154.5 236.5 c 128,-1,25
 147 246 147 246 147 281 c 0,26,27
 147 299 147 299 162.5 352.5 c 128,-1,28
 178 406 178 406 187.5 417 c 128,-1,29
 197 428 197 428 225 428 c 0,30,31
 311 428 311 428 319 424 c 1,32,33
 317 406 317 406 305 365 c 1,34,35
 338 354 338 354 358 354 c 0,36,37
 457 354 457 354 457 418 c 0,38,39
 457 465 457 465 377 562 c 128,-1,40
 297 659 297 659 297 711 c 0,41,42
 297 782 297 782 387 844 c 1,43,44
 465 899 465 899 543 909 c 1,45,46
 612 920 612 920 717 920 c 0,47,48
 803 920 803 920 803 887 c 0,0,1
EndSplineSet
EndChar

StartChar: t
Encoding: 84 116 87
Width: 862
Flags: W
LayerCount: 2
Fore
SplineSet
926 897 m 0,0,1
 926 887 926 887 909 842 c 0,2,3
 899 813 899 813 889 784 c 1,4,5
 881 774 881 774 829 774 c 0,6,7
 799 774 799 774 738.5 776 c 128,-1,8
 678 778 678 778 649 778 c 0,9,10
 545 778 545 778 553 778 c 1,11,12
 594 752 594 752 682 719 c 1,13,14
 711 707 711 707 711 694 c 0,15,16
 711 682 711 682 680 594 c 1,17,18
 643 479 643 479 565 254 c 1,19,20
 551 217 551 217 512 217 c 0,21,22
 481 217 481 217 434 225 c 1,23,24
 371 233 371 233 371 244 c 0,25,26
 371 270 371 270 391 322 c 1,27,28
 408 360 408 360 424 401 c 1,29,30
 459 502 459 502 535 702 c 1,31,32
 549 733 549 733 549 745 c 0,33,34
 549 782 549 782 508 782 c 0,35,36
 489 782 489 782 449.5 780 c 128,-1,37
 410 778 410 778 389 778 c 0,38,39
 330 778 330 778 330 801 c 0,40,41
 330 821 330 821 343 859 c 128,-1,42
 356 897 356 897 369.5 904 c 128,-1,43
 383 911 383 911 428 911 c 2,44,-1
 553 911 l 2,45,46
 608 911 608 911 874 905 c 1,47,48
 926 905 926 905 926 897 c 0,0,1
EndSplineSet
EndChar

StartChar: u
Encoding: 85 117 88
Width: 987
Flags: W
LayerCount: 2
Fore
SplineSet
991 874 m 0,0,1
 991 842 991 842 961 752 c 1,2,3
 936 686 936 686 913 623 c 1,4,5
 834 385 834 385 752 279 c 0,6,7
 702 215 702 215 573 215 c 0,8,9
 461 215 461 215 383 256 c 0,10,11
 287 307 287 307 287 410 c 0,12,13
 287 455 287 455 332 600 c 1,14,15
 352 672 352 672 397 815 c 0,16,17
 406 846 406 846 426 903 c 0,18,19
 432 918 432 918 477 918 c 0,20,21
 610 918 610 918 610 893 c 0,22,23
 610 879 610 879 563 743 c 1,24,25
 504 567 504 567 475 432 c 1,26,27
 492 369 492 369 555 369 c 0,28,29
 569 369 569 369 586 371 c 0,30,31
 641 379 641 379 690 502 c 1,32,33
 717 590 717 590 745 676 c 1,34,35
 764 729 764 729 801 836 c 0,36,37
 807 854 807 854 821 887 c 1,38,39
 834 905 834 905 874 905 c 0,40,41
 991 905 991 905 991 874 c 0,0,1
EndSplineSet
EndChar

StartChar: v
Encoding: 86 118 89
Width: 932
Flags: W
LayerCount: 2
Fore
SplineSet
969 877 m 0,0,1
 969 811 969 811 771 511 c 128,-1,2
 573 211 573 211 528 211 c 0,3,4
 510 211 510 211 452.5 226.5 c 128,-1,5
 395 242 395 242 391 252 c 1,6,7
 389 274 389 274 387 311 c 1,8,9
 375 451 375 451 375 618 c 0,10,11
 375 887 375 887 380 899 c 128,-1,12
 385 911 385 911 399 911 c 0,13,14
 535 911 535 911 551 883 c 0,15,16
 559 870 559 870 559 831 c 0,17,18
 559 811 559 811 555 782 c 0,19,20
 549 745 549 745 549 733 c 1,21,22
 543 676 543 676 543 582 c 0,23,24
 543 571 543 571 540 551.5 c 128,-1,25
 537 532 537 532 537 522 c 0,26,27
 537 516 537 516 541 397 c 1,28,29
 621 543 621 543 770 838 c 0,30,31
 780 860 780 860 793.5 884.5 c 128,-1,32
 807 909 807 909 829 909 c 0,33,34
 856 909 856 909 907 899 c 1,35,36
 969 889 969 889 969 877 c 0,0,1
EndSplineSet
EndChar

StartChar: w
Encoding: 87 119 90
Width: 1421
Flags: W
LayerCount: 2
Fore
SplineSet
1450 874 m 0,0,1
 1450 831 1450 831 1287 545.5 c 128,-1,2
 1124 260 1124 260 1081 229 c 1,3,4
 1067 217 1067 217 1053 217 c 0,5,6
 946 217 946 217 926 248 c 1,7,8
 913 266 913 266 913 381 c 0,9,10
 913 416 913 416 913 520 c 1,11,12
 911 598 911 598 913 659 c 1,13,14
 879 592 879 592 813 479 c 1,15,16
 795 453 795 453 760 395 c 0,17,18
 735 352 735 352 713 309 c 1,19,20
 684 260 684 260 655 231 c 0,21,22
 645 221 645 221 631 221 c 0,23,24
 514 221 514 221 502 256 c 0,25,26
 496 272 496 272 496 451 c 0,27,28
 496 518 496 518 499 656.5 c 128,-1,29
 502 795 502 795 502 864 c 0,30,31
 502 915 502 915 539 915 c 0,32,33
 575 915 575 915 637 903 c 0,34,35
 678 895 678 895 678 864 c 0,36,37
 678 778 678 778 666 643 c 1,38,39
 647 446 647 446 645 424 c 1,40,41
 743 621 743 621 872 854 c 1,42,43
 893 874 893 874 918 874 c 0,44,45
 1020 874 1020 874 1040 858 c 1,46,47
 1044 838 1044 838 1044 776 c 0,48,49
 1044 539 1044 539 1038 451 c 1,50,51
 1110 557 1110 557 1204 739 c 1,52,53
 1243 819 1243 819 1296 907 c 1,54,55
 1303 911 1303 911 1313 911 c 0,56,57
 1450 911 1450 911 1450 874 c 0,0,1
EndSplineSet
EndChar

StartChar: x
Encoding: 88 120 91
Width: 893
Flags: W
LayerCount: 2
Fore
SplineSet
887 881 m 0,0,1
 887 870 887 870 647 549 c 1,2,3
 682 455 682 455 754 328 c 0,4,5
 791 264 791 264 791 236 c 0,6,7
 791 215 791 215 729 215 c 2,8,-1
 707 215 l 1,9,10
 647 217 647 217 619.5 238.5 c 128,-1,11
 592 260 592 260 572.5 316.5 c 128,-1,12
 553 373 553 373 520 446 c 1,13,14
 442 217 442 217 360 217 c 1,15,-1
 324 215 l 1,16,17
 219 215 219 215 219 244 c 0,18,19
 219 250 219 250 326 391 c 1,20,21
 444 549 444 549 455 561 c 1,22,23
 430 627 430 627 405.5 677 c 128,-1,24
 381 727 381 727 356 780 c 1,25,26
 326 850 326 850 326 889 c 0,27,28
 326 911 326 911 375 911 c 0,29,30
 479 911 479 911 502 893 c 1,31,32
 514 885 514 885 565 686 c 1,33,34
 590 719 590 719 639 784 c 1,35,36
 653 813 653 813 688 866 c 1,37,38
 719 909 719 909 752 909 c 0,39,40
 887 909 887 909 887 881 c 0,0,1
EndSplineSet
EndChar

StartChar: y
Encoding: 89 121 92
Width: 879
Flags: W
LayerCount: 2
Fore
SplineSet
907 881 m 0,0,1
 907 860 907 860 895 842 c 2,2,-1
 580 354 l 1,3,4
 555 311 555 311 500 233 c 1,5,6
 483 215 483 215 457 215 c 0,7,8
 317 215 317 215 317 252 c 0,9,10
 317 260 317 260 377 350 c 1,11,12
 397 385 397 385 440 455 c 1,13,14
 436 473 436 473 406 598 c 0,15,16
 393 651 393 651 369 756 c 0,17,18
 346 854 346 854 346 895 c 0,19,20
 346 918 346 918 362 918 c 0,21,22
 389 918 389 918 444 909 c 0,23,24
 510 899 510 899 514 889 c 1,25,26
 516 887 516 887 526.5 826.5 c 128,-1,27
 537 766 537 766 537 717 c 0,28,29
 537 649 537 649 524 541 c 1,30,31
 569 629 569 629 614 715 c 1,32,33
 670 817 670 817 719 881 c 1,34,35
 741 913 741 913 768 913 c 0,36,37
 907 913 907 913 907 881 c 0,0,1
EndSplineSet
EndChar

StartChar: z
Encoding: 90 122 93
Width: 805
Flags: W
LayerCount: 2
Fore
SplineSet
807 782 m 0,0,1
 807 772 807 772 756 719 c 0,2,3
 657 618 657 618 561 516 c 1,4,5
 446 397 446 397 352 330 c 1,6,7
 457 334 457 334 668 342 c 1,8,9
 666 326 666 326 655 295 c 1,10,11
 649 272 649 272 629 238 c 1,12,13
 618 227 618 227 485 227 c 2,14,-1
 391 227 l 2,15,16
 244 227 244 227 231.5 235.5 c 128,-1,17
 219 244 219 244 199.5 281.5 c 128,-1,18
 180 319 180 319 180 336 c 0,19,20
 180 350 180 350 229 399 c 1,21,22
 256 424 256 424 306 474 c 128,-1,23
 356 524 356 524 455 625 c 0,24,25
 539 711 539 711 659 807 c 1,26,27
 518 795 518 795 451 795 c 2,28,-1
 313 797 l 1,29,30
 313 813 313 813 336 870 c 1,31,32
 340 887 340 887 354 915 c 1,33,34
 362 928 362 928 545 928 c 2,35,-1
 639 928 l 2,36,37
 719 928 719 928 731 924 c 0,38,39
 766 911 766 911 786.5 858 c 128,-1,40
 807 805 807 805 807 782 c 0,0,1
EndSplineSet
EndChar

StartChar: braceleft
Encoding: 91 123 94
Width: 995
Flags: W
LayerCount: 2
Fore
SplineSet
868 1389 m 1,0,1
 723 1325 723 1325 682 1251 c 1,2,3
 649 1188 649 1188 649 1024 c 0,4,5
 649 850 649 850 530 745 c 0,6,7
 438 664 438 664 248 610 c 1,8,9
 492 537 492 537 492 379 c 0,10,11
 492 301 492 301 423 172 c 128,-1,12
 354 43 354 43 354 -10 c 0,13,14
 354 -98 354 -98 471 -168 c 1,15,16
 387 -158 387 -158 333 -89 c 128,-1,17
 279 -20 279 -20 279 66 c 0,18,19
 279 135 279 135 346.5 261 c 128,-1,20
 414 387 414 387 414 444 c 0,21,22
 414 561 414 561 221 610 c 1,23,24
 477 676 477 676 512 811 c 0,25,26
 524 858 524 858 522 951 c 128,-1,27
 520 1044 520 1044 532 1090 c 0,28,29
 559 1192 559 1192 662.5 1284 c 128,-1,30
 766 1376 766 1376 868 1389 c 1,0,1
EndSplineSet
EndChar

StartChar: bar
Encoding: 92 124 95
Width: 930
Flags: W
LayerCount: 2
Fore
SplineSet
569 -279 m 1,0,-1
 424 -279 l 1,1,-1
 424 1262 l 1,2,-1
 569 1262 l 1,3,-1
 569 -279 l 1,0,-1
EndSplineSet
EndChar

StartChar: braceright
Encoding: 93 125 96
Width: 995
Flags: W
LayerCount: 2
Fore
SplineSet
776 592 m 1,0,1
 539 545 539 545 498 391 c 1,2,3
 487 344 487 344 488 251 c 128,-1,4
 489 158 489 158 477 113 c 0,5,6
 451 10 451 10 348 -86 c 0,7,8
 240 -186 240 -186 137 -190 c 1,9,10
 289 -121 289 -121 328 -45 c 0,11,12
 358 14 358 14 358 189.5 c 128,-1,13
 358 365 358 365 465 463 c 0,14,15
 553 543 553 543 739 592 c 1,16,17
 510 659 510 659 510 803 c 0,18,19
 510 893 510 893 582.5 1027 c 128,-1,20
 655 1161 655 1161 655 1214 c 0,21,22
 655 1296 655 1296 553 1360 c 1,23,24
 631 1335 631 1335 682 1274.5 c 128,-1,25
 733 1214 733 1214 733 1135 c 0,26,27
 733 1065 733 1065 665.5 941 c 128,-1,28
 598 817 598 817 598 762 c 0,29,30
 598 637 598 637 776 592 c 1,0,1
EndSplineSet
EndChar

StartChar: asciitilde
Encoding: 94 126 97
Width: 1128
Flags: W
LayerCount: 2
Fore
SplineSet
1026 580 m 1,0,-1
 1012 426 l 1,1,2
 911 373 911 373 805 373 c 0,3,4
 731 373 731 373 599 424 c 128,-1,5
 467 475 467 475 399 475 c 0,6,7
 315 475 315 475 186 399 c 1,8,-1
 203 549 l 1,9,10
 291 602 291 602 403 602 c 0,11,12
 481 602 481 602 614.5 552 c 128,-1,13
 748 502 748 502 815 502 c 0,14,15
 899 502 899 502 1026 580 c 1,0,-1
EndSplineSet
EndChar

StartChar: currency
Encoding: 95 164 98
Width: 1139
Flags: W
LayerCount: 2
Fore
SplineSet
1130 1196 m 1,0,-1
 958 1057 l 1,1,2
 993 973 993 973 993 889 c 0,3,4
 993 723 993 723 852 559 c 1,5,-1
 967 420 l 1,6,-1
 854 326 l 1,7,-1
 743 469 l 1,8,9
 606 387 606 387 475 387 c 256,10,11
 344 387 344 387 244 469 c 1,12,-1
 70 326 l 1,13,-1
 0 420 l 1,14,-1
 172 559 l 1,15,16
 137 641 137 641 137 725 c 0,17,18
 137 891 137 891 279 1057 c 1,19,-1
 164 1196 l 1,20,-1
 274 1288 l 1,21,-1
 387 1147 l 1,22,23
 524 1229 524 1229 655 1229 c 256,24,25
 786 1229 786 1229 887 1147 c 1,26,-1
 1059 1288 l 1,27,-1
 1130 1196 l 1,0,-1
864 872 m 0,28,29
 864 975 864 975 795.5 1037.5 c 128,-1,30
 727 1100 727 1100 625 1100 c 0,31,32
 504 1100 504 1100 400.5 1014 c 128,-1,33
 297 928 297 928 272 809 c 0,34,35
 266 780 266 780 266 745 c 0,36,37
 266 641 266 641 331.5 578.5 c 128,-1,38
 397 516 397 516 502 516 c 0,39,40
 627 516 627 516 728 601 c 128,-1,41
 829 686 829 686 856 809 c 0,42,43
 864 846 864 846 864 872 c 0,28,29
EndSplineSet
EndChar

StartChar: section
Encoding: 96 167 99
Width: 1280
Flags: W
LayerCount: 2
Fore
SplineSet
1032 1343 m 0,0,1
 1032 1313 1032 1313 1026 1280 c 1,2,-1
 895 1280 l 1,3,4
 901 1309 901 1309 901 1333 c 0,5,6
 901 1454 901 1454 762 1454 c 0,7,8
 694 1454 694 1454 634.5 1407 c 128,-1,9
 575 1360 575 1360 575 1294 c 0,10,11
 575 1219 575 1219 688 1145 c 1,12,13
 760 1102 760 1102 897 1008 c 1,14,15
 1008 926 1008 926 1008 813 c 0,16,17
 1008 637 1008 637 774 502 c 1,18,19
 827 426 827 426 827 354 c 0,20,21
 827 233 827 233 709 139 c 1,22,23
 598 53 598 53 473 53 c 0,24,25
 205 53 205 53 205 266 c 0,26,27
 205 307 205 307 213 354 c 1,28,-1
 350 354 l 1,29,30
 344 319 344 319 344 293 c 0,31,32
 344 170 344 170 475 170 c 0,33,34
 553 170 553 170 616 213 c 1,35,36
 688 260 688 260 688 334 c 0,37,38
 688 401 688 401 559 502 c 1,39,40
 463 567 463 567 367 633 c 1,41,42
 254 727 254 727 254 827 c 0,43,44
 254 1010 254 1010 481 1133 c 1,45,46
 432 1198 432 1198 432 1262 c 0,47,48
 432 1386 432 1386 549 1483 c 0,49,50
 659 1573 659 1573 788 1573 c 0,51,52
 899 1573 899 1573 965.5 1512.5 c 128,-1,53
 1032 1452 1032 1452 1032 1343 c 0,0,1
874 768 m 0,54,55
 874 846 874 846 797 899 c 2,56,-1
 543 1075 l 1,57,58
 389 999 389 999 389 866 c 0,59,60
 389 803 389 803 440 764 c 2,61,-1
 711 563 l 1,62,63
 874 641 874 641 874 768 c 0,54,55
EndSplineSet
EndChar

StartChar: copyright
Encoding: 97 169 100
Width: 1434
Flags: W
LayerCount: 2
Fore
SplineSet
1251 1192 m 0,0,1
 1251 1139 1251 1139 1239 1081 c 0,2,3
 1192 860 1192 860 1005.5 705.5 c 128,-1,4
 819 551 819 551 594 551 c 0,5,6
 406 551 406 551 284 666.5 c 128,-1,7
 162 782 162 782 162 969 c 0,8,9
 162 1024 162 1024 174 1081 c 0,10,11
 221 1303 221 1303 407.5 1458.5 c 128,-1,12
 594 1614 594 1614 819 1614 c 0,13,14
 1008 1614 1008 1614 1129.5 1496 c 128,-1,15
 1251 1378 1251 1378 1251 1192 c 0,0,1
1206 1186 m 0,16,17
 1206 1358 1206 1358 1095.5 1464.5 c 128,-1,18
 985 1571 985 1571 811 1571 c 0,19,20
 602 1571 602 1571 431 1428.5 c 128,-1,21
 260 1286 260 1286 217 1081 c 0,22,23
 205 1024 205 1024 205 977 c 0,24,25
 205 805 205 805 316.5 698.5 c 128,-1,26
 428 592 428 592 602 592 c 0,27,28
 807 592 807 592 980 735.5 c 128,-1,29
 1153 879 1153 879 1196 1081 c 0,30,31
 1206 1130 1206 1130 1206 1186 c 0,16,17
1034 1419 m 1,32,-1
 1008 1233 l 1,33,34
 987 1401 987 1401 797 1401 c 0,35,36
 532 1401 532 1401 467 1092 c 0,37,38
 455 1034 455 1034 455 989 c 0,39,40
 455 774 455 774 672 774 c 0,41,42
 788 774 788 774 938 885 c 1,43,44
 807 750 807 750 639 750 c 0,45,46
 518 750 518 750 442 817 c 1,47,48
 360 887 360 887 360 1006 c 0,49,50
 360 1049 360 1049 367 1077 c 1,51,52
 397 1225 397 1225 526 1322 c 128,-1,53
 655 1419 655 1419 809 1419 c 0,54,55
 838 1419 838 1419 891 1401.5 c 128,-1,56
 944 1384 944 1384 973 1384 c 0,57,58
 1010 1384 1010 1384 1030 1419 c 1,59,-1
 1034 1419 l 1,32,-1
EndSplineSet
EndChar

StartChar: logicalnot
Encoding: 98 172 101
Width: 1282
Flags: W
LayerCount: 2
Fore
SplineSet
1026 776 m 1,0,-1
 901 195 l 1,1,-1
 778 195 l 1,2,-1
 879 662 l 1,3,-1
 250 662 l 1,4,-1
 274 776 l 1,5,-1
 1026 776 l 1,0,-1
EndSplineSet
EndChar

StartChar: registered
Encoding: 99 174 102
Width: 1450
Flags: W
LayerCount: 2
Fore
SplineSet
1272 1198 m 0,0,1
 1272 1145 1272 1145 1260 1087 c 0,2,3
 1212 864 1212 864 1027 709.5 c 128,-1,4
 842 555 842 555 614 555 c 0,5,6
 426 555 426 555 304 669.5 c 128,-1,7
 182 784 182 784 182 973 c 0,8,9
 182 1260 182 1260 430 1464 c 0,10,11
 618 1618 618 1618 840 1618 c 0,12,13
 1026 1618 1026 1618 1149 1501 c 128,-1,14
 1272 1384 1272 1384 1272 1198 c 0,0,1
1229 1192 m 0,15,16
 1229 1364 1229 1364 1117.5 1470.5 c 128,-1,17
 1006 1577 1006 1577 831 1577 c 0,18,19
 627 1577 627 1577 454 1433.5 c 128,-1,20
 281 1290 281 1290 238 1087 c 0,21,22
 227 1038 227 1038 227 983 c 0,23,24
 227 811 227 811 338 704.5 c 128,-1,25
 449 598 449 598 623 598 c 0,26,27
 829 598 829 598 1000 740.5 c 128,-1,28
 1171 883 1171 883 1217 1087 c 1,29,30
 1229 1145 1229 1145 1229 1192 c 0,15,16
975 1282 m 0,31,32
 975 1270 975 1270 971 1251 c 0,33,34
 946 1135 946 1135 754 1090 c 1,35,-1
 877 840 l 1,36,37
 903 784 903 784 936 772 c 1,38,-1
 834 772 l 1,39,-1
 672 1081 l 1,40,-1
 590 1081 l 1,41,-1
 537 829 l 2,42,43
 528 786 528 786 575 772 c 1,44,-1
 397 772 l 1,45,46
 444 786 444 786 463 868 c 1,47,-1
 559 1321 l 2,48,49
 575 1397 575 1397 526 1409 c 1,50,-1
 791 1409 l 2,51,52
 862 1409 862 1409 913 1382 c 0,53,54
 975 1348 975 1348 975 1282 c 0,31,32
879 1276 m 0,55,56
 879 1374 879 1374 733 1374 c 0,57,58
 692 1374 692 1374 649 1360 c 1,59,-1
 600 1120 l 1,60,61
 729 1122 729 1122 762 1130 c 0,62,63
 856 1153 856 1153 874 1241 c 1,64,65
 879 1260 879 1260 879 1276 c 0,55,56
EndSplineSet
EndChar

StartChar: degree
Encoding: 100 176 103
Width: 766
Flags: W
LayerCount: 2
Fore
SplineSet
541 1382 m 0,0,1
 541 1284 541 1284 475.5 1218.5 c 128,-1,2
 410 1153 410 1153 311 1153 c 0,3,4
 217 1153 217 1153 149.5 1220.5 c 128,-1,5
 82 1288 82 1288 82 1382 c 0,6,7
 82 1477 82 1477 149.5 1544.5 c 128,-1,8
 217 1612 217 1612 311 1612 c 0,9,10
 406 1612 406 1612 473.5 1544.5 c 128,-1,11
 541 1477 541 1477 541 1382 c 0,0,1
502 1382 m 0,12,13
 502 1462 502 1462 446.5 1517.5 c 128,-1,14
 391 1573 391 1573 311 1573 c 0,15,16
 233 1573 233 1573 177 1516.5 c 128,-1,17
 121 1460 121 1460 121 1382 c 0,18,19
 121 1305 121 1305 177 1248.5 c 128,-1,20
 233 1192 233 1192 311 1192 c 256,21,22
 389 1192 389 1192 445.5 1248.5 c 128,-1,23
 502 1305 502 1305 502 1382 c 0,12,13
EndSplineSet
EndChar

StartChar: paragraph
Encoding: 101 182 104
Width: 1104
Flags: W
LayerCount: 2
Fore
SplineSet
1057 1638 m 1,0,-1
 612 12 l 1,1,-1
 535 12 l 1,2,-1
 952 1548 l 1,3,-1
 756 1548 l 1,4,-1
 334 6 l 1,5,-1
 256 6 l 1,6,-1
 547 1073 l 1,7,8
 453 1077 453 1077 390.5 1134.5 c 128,-1,9
 328 1192 328 1192 328 1284 c 0,10,11
 328 1362 328 1362 377 1446 c 0,12,13
 487 1634 487 1634 696 1636 c 2,14,-1
 1057 1638 l 1,0,-1
EndSplineSet
EndChar

StartChar: periodcentered
Encoding: 102 183 105
Width: 428
Flags: W
LayerCount: 2
Fore
SplineSet
465 588 m 0,0,1
 465 539 465 539 438 494 c 1,2,3
 408 438 408 438 362 438 c 0,4,5
 268 438 268 438 268 522 c 0,6,7
 268 578 268 578 309 627 c 128,-1,8
 350 676 350 676 403 676 c 0,9,10
 465 676 465 676 465 588 c 0,0,1
EndSplineSet
EndChar

StartChar: quoteleft
Encoding: 108 8216 106
Width: 621
Flags: W
LayerCount: 2
Fore
SplineSet
555 1341 m 1,0,-1
 537 1284 l 1,1,2
 334 1219 334 1219 254 1061 c 1,3,-1
 311 1024 l 1,4,5
 350 1026 350 1026 379 1000.5 c 128,-1,6
 408 975 408 975 408 936 c 0,7,8
 408 866 408 866 347.5 808 c 128,-1,9
 287 750 287 750 217 750 c 0,10,11
 100 750 100 750 100 868 c 0,12,13
 100 1028 100 1028 254 1169 c 0,14,15
 385 1290 385 1290 555 1341 c 1,0,-1
EndSplineSet
EndChar

StartChar: quoteright
Encoding: 109 8217 107
Width: 537
Flags: W
LayerCount: 2
Fore
SplineSet
473 1204 m 0,0,1
 473 1047 473 1047 322 905 c 0,2,3
 190 782 190 782 23 733 c 1,4,-1
 41 791 l 1,5,6
 250 864 250 864 319 1024 c 1,7,-1
 262 1049 l 1,8,9
 172 1053 172 1053 172 1135 c 0,10,11
 172 1204 172 1204 228.5 1263.5 c 128,-1,12
 285 1323 285 1323 354 1323 c 0,13,14
 473 1323 473 1323 473 1204 c 0,0,1
EndSplineSet
EndChar

StartChar: quotedblleft
Encoding: 110 8220 108
Width: 1122
Flags: W
LayerCount: 2
Fore
SplineSet
1169 1260 m 1,0,-1
 1151 1202 l 1,1,2
 948 1137 948 1137 868 979 c 1,3,-1
 926 942 l 1,4,5
 965 944 965 944 993.5 918.5 c 128,-1,6
 1022 893 1022 893 1022 854 c 0,7,8
 1022 784 1022 784 961.5 726 c 128,-1,9
 901 668 901 668 831 668 c 0,10,11
 715 668 715 668 715 786 c 0,12,13
 715 946 715 946 868 1087 c 0,14,15
 999 1208 999 1208 1169 1260 c 1,0,-1
670 1257 m 1,16,-1
 651 1200 l 1,17,18
 453 1135 453 1135 377 975 c 1,19,-1
 430 938 l 1,20,21
 467 938 467 938 493.5 914.5 c 128,-1,22
 520 891 520 891 520 854 c 0,23,24
 520 782 520 782 464 724 c 128,-1,25
 408 666 408 666 336 666 c 0,26,27
 223 666 223 666 223 786 c 0,28,29
 223 944 223 944 373 1085 c 0,30,31
 502 1206 502 1206 670 1257 c 1,16,-1
EndSplineSet
EndChar

StartChar: quotedblright
Encoding: 111 8221 109
Width: 1155
Flags: W
LayerCount: 2
Fore
SplineSet
1149 1102 m 0,0,1
 1149 944 1149 944 997 803 c 1,2,3
 866 680 866 680 698 631 c 1,4,-1
 717 688 l 1,5,6
 926 762 926 762 995 922 c 1,7,-1
 938 946 l 1,8,9
 848 950 848 950 848 1032 c 0,10,11
 848 1102 848 1102 904.5 1161.5 c 128,-1,12
 961 1221 961 1221 1030 1221 c 0,13,14
 1149 1221 1149 1221 1149 1102 c 0,0,1
649 1094 m 0,15,16
 649 930 649 930 502 793 c 1,17,18
 375 672 375 672 203 623 c 1,19,-1
 221 682 l 1,20,21
 410 743 410 743 494 911 c 1,22,-1
 442 940 l 1,23,24
 350 944 350 944 350 1028 c 0,25,26
 350 1098 350 1098 407.5 1157.5 c 128,-1,27
 465 1217 465 1217 535 1217 c 0,28,29
 649 1217 649 1217 649 1094 c 0,15,16
EndSplineSet
EndChar

StartChar: bullet
Encoding: 112 8226 110
Width: 1491
Flags: W
LayerCount: 2
Fore
SplineSet
1202 616 m 0,0,1
 1202 465 1202 465 1006 348 c 1,2,3
 829 244 829 244 668 244 c 0,4,5
 545 244 545 244 438 297 c 1,6,7
 305 365 305 365 305 477 c 0,8,9
 305 502 305 502 317 537 c 1,10,11
 369 676 369 676 537 762 c 1,12,13
 686 840 686 840 848 840 c 0,14,15
 977 840 977 840 1075 793 c 0,16,17
 1202 731 1202 731 1202 616 c 0,0,1
EndSplineSet
EndChar

StartChar: H18543
Encoding: 114 9642 111
Width: 1452
Flags: W
LayerCount: 2
Fore
SplineSet
1214 819 m 1,0,-1
 991 248 l 1,1,-1
 319 248 l 1,2,-1
 543 819 l 1,3,-1
 1214 819 l 1,0,-1
EndSplineSet
EndChar

StartChar: ellipsis
Encoding: 113 8230 112
Width: 1178
Flags: W
LayerCount: 2
Fore
SplineSet
1094 84 m 256,0,1
 1094 41 1094 41 1065 9 c 128,-1,2
 1036 -23 1036 -23 993 -23 c 0,3,4
 952 -23 952 -23 924.5 10 c 128,-1,5
 897 43 897 43 897 84 c 0,6,7
 897 127 897 127 924.5 158.5 c 128,-1,8
 952 190 952 190 993 190 c 0,9,10
 1036 190 1036 190 1065 158.5 c 128,-1,11
 1094 127 1094 127 1094 84 c 256,0,1
711 84 m 0,12,13
 711 41 711 41 680 9 c 128,-1,14
 649 -23 649 -23 606 -23 c 0,15,16
 565 -23 565 -23 534.5 10 c 128,-1,17
 504 43 504 43 504 84 c 256,18,19
 504 125 504 125 534.5 160 c 128,-1,20
 565 195 565 195 606 195 c 0,21,22
 651 195 651 195 681 162 c 128,-1,23
 711 129 711 129 711 84 c 0,12,13
311 82 m 0,24,25
 311 41 311 41 281.5 8 c 128,-1,26
 252 -25 252 -25 211 -25 c 0,27,28
 168 -25 168 -25 138.5 7 c 128,-1,29
 109 39 109 39 109 82 c 256,30,31
 109 125 109 125 138.5 157.5 c 128,-1,32
 168 190 168 190 211 190 c 0,33,34
 252 190 252 190 281.5 157.5 c 128,-1,35
 311 125 311 125 311 82 c 0,24,25
EndSplineSet
EndChar

StartChar: afii57929
Encoding: 103 700 113
Width: 461
Flags: W
LayerCount: 2
Fore
SplineSet
348 1296 m 0,0,1
 348 1276 348 1276 198.5 1085.5 c 128,-1,2
 49 895 49 895 14 868 c 0,3,4
 -10 850 -10 850 -41 850 c 0,5,6
 -86 850 -86 850 -86 903 c 0,7,8
 -86 997 -86 997 33 1223 c 0,9,10
 63 1282 63 1282 91 1299.5 c 128,-1,11
 119 1317 119 1317 182 1317 c 2,12,-1
 209 1317 l 2,13,14
 348 1317 348 1317 348 1296 c 0,0,1
EndSplineSet
EndChar

StartChar: macronlowmod
Encoding: 104 717 114
Width: 1012
Flags: W
LayerCount: 2
Fore
SplineSet
807 213 m 1,0,1
 807 184 807 184 773 108.5 c 128,-1,2
 739 33 739 33 719.5 13.5 c 128,-1,3
 700 -6 700 -6 -2 -6 c 0,4,5
 -39 -6 -39 -6 -39 16 c 0,6,7
 -39 33 -39 33 -6 121 c 0,8,9
 4 150 4 150 37 193 c 1,10,11
 53 217 53 217 131 217 c 0,12,13
 182 217 182 217 358 217 c 1,14,15
 535 219 535 219 586 219 c 0,16,17
 629 219 629 219 696 217 c 1,18,19
 784 213 784 213 807 213 c 1,0,1
EndSplineSet
EndChar

StartChar: uniA4D0
Encoding: 118 42192 115
Width: 1190
Flags: W
LayerCount: 2
Fore
SplineSet
1157 856 m 0,0,1
 1157 745 1157 745 1057 664 c 1,2,3
 1001 616 1001 616 860 549 c 1,4,5
 1008 430 1008 430 1008 332 c 0,6,7
 1008 111 1008 111 668 14 c 1,8,9
 551 -18 551 -18 494 -18 c 2,10,-1
 307 -18 l 2,11,12
 244 -18 244 -18 220.5 -6 c 128,-1,13
 197 6 197 6 125 79 c 128,-1,14
 53 152 53 152 51 172 c 1,15,16
 78 262 78 262 129 444 c 1,17,18
 154 526 154 526 283 866 c 1,19,20
 193 864 193 864 139 848 c 0,21,22
 125 844 125 844 94 838 c 1,23,-1
 98 840 l 1,24,25
 98 887 98 887 128 963.5 c 128,-1,26
 158 1040 158 1040 190 1067 c 1,27,28
 244 1108 244 1108 414 1135 c 0,29,30
 549 1157 549 1157 653 1157 c 0,31,32
 678 1157 678 1157 733 1149 c 0,33,34
 813 1137 813 1137 870 1126 c 0,35,36
 981 1106 981 1106 1063 1038 c 1,37,38
 1157 958 1157 958 1157 856 c 0,0,1
829 809 m 0,39,40
 829 936 829 936 598 936 c 0,41,42
 498 936 498 936 373 907 c 1,43,44
 260 879 260 879 150 850 c 1,45,46
 254 844 254 844 356 838 c 1,47,48
 524 823 524 823 551 801 c 1,49,-1
 553 793 l 1,50,51
 553 782 553 782 489 625 c 1,52,-1
 567 625 l 2,53,54
 649 625 649 625 733 676 c 0,55,56
 829 733 829 733 829 809 c 0,39,40
698 340 m 0,57,58
 698 385 698 385 659 406 c 0,59,60
 598 440 598 440 596 442 c 1,61,62
 590 475 590 475 580 539 c 1,63,64
 575 563 575 563 539 653 c 1,65,66
 475 559 475 559 453 489 c 1,67,-1
 352 193 l 1,68,69
 412 176 412 176 440 176 c 0,70,71
 606 176 606 176 670 264 c 1,72,73
 698 305 698 305 698 340 c 0,57,58
EndSplineSet
EndChar

StartChar: uniA4D1
Encoding: 119 42193 116
Width: 1114
Flags: W
LayerCount: 2
Fore
SplineSet
1106 809 m 0,0,1
 1106 653 1106 653 973 518 c 1,2,3
 852 397 852 397 690 350 c 1,4,5
 594 324 594 324 565 324 c 0,6,7
 530 324 530 324 508 428 c 0,8,9
 504 446 504 446 488.5 471 c 128,-1,10
 473 496 473 496 473 528 c 1,11,12
 444 481 444 481 416 426 c 1,13,14
 420 432 420 432 424 434 c 0,15,16
 426 434 426 434 424 428 c 1,17,18
 424 406 424 406 363.5 211 c 128,-1,19
 303 16 303 16 291 -4 c 1,20,21
 268 -14 268 -14 225 -14 c 0,22,23
 23 -14 23 -14 23 37 c 0,24,25
 23 68 23 68 158 481 c 1,26,27
 238 721 238 721 315 958 c 1,28,29
 227 872 227 872 215 862 c 0,30,31
 152 811 152 811 92 811 c 0,32,33
 70 811 70 811 70 819 c 0,34,35
 70 895 70 895 98 975 c 0,36,37
 141 1094 141 1094 281 1130 c 1,38,39
 356 1151 356 1151 535 1151 c 0,40,41
 655 1151 655 1151 772 1135 c 0,42,43
 901 1118 901 1118 999 1030 c 0,44,45
 1106 934 1106 934 1106 809 c 0,0,1
799 772 m 0,46,47
 799 864 799 864 715 891 c 1,48,49
 635 903 635 903 555 915 c 0,50,51
 541 918 541 918 496 928 c 1,52,53
 461 938 461 938 438 938 c 0,54,55
 412 938 412 938 360 934 c 1,56,57
 399 905 399 905 475 862 c 0,58,59
 479 860 479 860 483 862 c 1,60,61
 485 854 485 854 515 817 c 128,-1,62
 545 780 545 780 545 756 c 0,63,64
 545 717 545 717 469 555 c 1,65,66
 588 569 588 569 676 612 c 1,67,68
 799 674 799 674 799 772 c 0,46,47
EndSplineSet
EndChar

StartChar: uniA4D2
Encoding: 120 42194 117
Width: 1128
Flags: W
LayerCount: 2
Fore
SplineSet
1051 1057 m 0,0,1
 1051 1028 1051 1028 915 612 c 0,2,3
 838 375 838 375 758 137 c 1,4,5
 907 283 907 283 961 283 c 0,6,7
 1004 283 1004 283 1004 254 c 0,8,9
 1004 199 1004 199 975 121 c 0,10,11
 930 2 930 2 793 -35 c 0,12,13
 717 -55 717 -55 539 -55 c 0,14,15
 420 -55 420 -55 301 -41 c 1,16,17
 172 -23 172 -23 74 63 c 1,18,19
 -33 160 -33 160 -33 285 c 0,20,21
 -33 440 -33 440 100 575 c 1,22,23
 221 696 221 696 383 743 c 0,24,25
 479 770 479 770 508 770 c 0,26,27
 524 770 524 770 531.5 719 c 128,-1,28
 539 668 539 668 610 571 c 1,29,30
 637 633 637 633 696 852 c 1,31,32
 752 1049 752 1049 782 1098 c 1,33,34
 805 1110 805 1110 848 1110 c 0,35,36
 1051 1110 1051 1110 1051 1057 c 0,0,1
764 236 m 1,37,38
 723 238 723 238 696 256 c 0,39,40
 664 276 664 276 651 279 c 0,41,42
 616 287 616 287 580 297 c 1,43,44
 528 313 528 313 528 338 c 0,45,46
 528 377 528 377 606 539 c 1,47,48
 485 524 485 524 397 481 c 0,49,50
 274 420 274 420 274 324 c 0,51,52
 274 180 274 180 518 180 c 0,53,54
 588 180 588 180 646.5 198.5 c 128,-1,55
 705 217 705 217 764 236 c 1,37,38
EndSplineSet
EndChar

StartChar: uniA4D3
Encoding: 121 42195 118
Width: 1243
Flags: W
LayerCount: 2
Fore
SplineSet
1159 694 m 0,0,1
 1159 487 1159 487 999 309 c 0,2,3
 864 158 864 158 653 57 c 1,4,5
 469 -29 469 -29 332 -29 c 0,6,7
 248 -29 248 -29 176 14 c 1,8,9
 127 47 127 47 55 125 c 0,10,11
 23 160 23 160 23 174 c 0,12,13
 23 270 23 270 115 532 c 1,14,15
 182 717 182 717 252 901 c 1,16,17
 168 897 168 897 74 868 c 1,18,19
 82 920 82 920 117 997 c 1,20,21
 156 1090 156 1090 186 1106 c 0,22,23
 209 1118 209 1118 332 1137 c 1,24,25
 449 1153 449 1153 489 1153 c 0,26,27
 588 1153 588 1153 741 1135 c 0,28,29
 907 1116 907 1116 1033 987 c 128,-1,30
 1159 858 1159 858 1159 694 c 0,0,1
831 670 m 0,31,32
 831 805 831 805 707 881 c 1,33,34
 602 942 602 942 457 942 c 0,35,36
 424 942 424 942 311 934 c 1,37,-1
 317 897 l 1,38,39
 340 895 340 895 373 874.5 c 128,-1,40
 406 854 406 854 420 850 c 0,41,42
 518 819 518 819 518 766 c 0,43,44
 518 741 518 741 483 657 c 1,45,46
 420 498 420 498 346 229 c 1,47,48
 471 246 471 246 518 258 c 1,49,50
 616 287 616 287 668 340 c 0,51,52
 831 508 831 508 831 670 c 0,31,32
EndSplineSet
EndChar

StartChar: uniA4D4
Encoding: 122 42196 119
Width: 1020
Flags: W
LayerCount: 2
Fore
SplineSet
1124 1118 m 0,0,1
 1124 1100 1124 1100 1098 1026 c 1,2,3
 1079 979 1079 979 1063 930 c 1,4,5
 1049 913 1049 913 963 913 c 0,6,7
 913 913 913 913 813 916.5 c 128,-1,8
 713 920 713 920 664 920 c 0,9,10
 489 920 489 920 502 922 c 1,11,12
 571 874 571 874 717 819 c 0,13,14
 766 801 766 801 766 780 c 0,15,16
 766 745 766 745 748 696 c 1,17,18
 731 655 731 655 715 614 c 1,19,20
 653 424 653 424 522 45 c 1,21,22
 500 -14 500 -14 432 -14 c 0,23,24
 385 -14 385 -14 303 -2 c 1,25,26
 199 10 199 10 199 31 c 0,27,28
 199 76 199 76 233 160 c 0,29,30
 260 225 260 225 289 291 c 1,31,32
 346 461 346 461 473 795 c 1,33,34
 496 846 496 846 496 866 c 0,35,36
 496 926 496 926 428 926 c 0,37,38
 395 926 395 926 329.5 923 c 128,-1,39
 264 920 264 920 231 920 c 0,40,41
 131 920 131 920 131 961 c 0,42,43
 131 993 131 993 153.5 1055.5 c 128,-1,44
 176 1118 176 1118 197.5 1130.5 c 128,-1,45
 219 1143 219 1143 295 1143 c 2,46,-1
 504 1143 l 2,47,48
 596 1143 596 1143 1040 1133 c 1,49,50
 1124 1130 1124 1130 1124 1118 c 0,0,1
EndSplineSet
EndChar

StartChar: uniA4D5
Encoding: 123 42197 120
Width: 1049
Flags: W
LayerCount: 2
Fore
SplineSet
893 178 m 0,0,1
 893 145 893 145 870.5 81.5 c 128,-1,2
 848 18 848 18 827.5 6 c 128,-1,3
 807 -6 807 -6 729 -6 c 2,4,-1
 520 -6 l 2,5,6
 428 -6 428 -6 -16 4 c 0,7,8
 -100 6 -100 6 -100 18 c 0,9,10
 -100 35 -100 35 -73.5 116 c 128,-1,11
 -47 197 -47 197 -37 210 c 128,-1,12
 -27 223 -27 223 61 223 c 0,13,14
 111 223 111 223 211 220 c 128,-1,15
 311 217 311 217 362 217 c 0,16,17
 369 217 369 217 608 225 c 1,18,19
 506 254 506 254 307 317 c 1,20,21
 258 336 258 336 258 356 c 0,22,23
 258 389 258 389 276 438 c 1,24,25
 348 657 348 657 502 1092 c 1,26,27
 524 1151 524 1151 592 1151 c 0,28,29
 629 1151 629 1151 711 1141 c 1,30,31
 805 1128 805 1128 821 1118 c 1,32,33
 825 1114 825 1114 825 1100 c 0,34,35
 825 1061 825 1061 791 975 c 0,36,37
 764 909 764 909 735 846 c 1,38,39
 678 678 678 678 551 342 c 1,40,41
 530 291 530 291 530 270 c 0,42,43
 530 211 530 211 596 211 c 0,44,45
 629 211 629 211 694.5 214 c 128,-1,46
 760 217 760 217 793 217 c 0,47,48
 893 217 893 217 893 178 c 0,0,1
EndSplineSet
EndChar

StartChar: uniA4D6
Encoding: 124 42198 121
Width: 1221
Flags: W
LayerCount: 2
Fore
SplineSet
1157 575 m 0,0,1
 1157 565 1157 565 1135.5 495.5 c 128,-1,2
 1114 426 1114 426 1073 408 c 1,3,4
 1044 393 1044 393 967 393 c 1,5,6
 950 276 950 276 868 190 c 1,7,-1
 793 113 l 1,8,9
 668 -18 668 -18 412 -18 c 0,10,11
 215 -18 215 -18 119 117 c 1,12,13
 35 231 35 231 35 434 c 0,14,15
 35 537 35 537 111 702 c 1,16,17
 182 862 182 862 250 942 c 0,18,19
 334 1042 334 1042 475 1102 c 0,20,21
 602 1155 602 1155 688 1155 c 0,22,23
 848 1155 848 1155 963 1112 c 1,24,25
 1126 1049 1126 1049 1126 911 c 0,26,27
 1126 844 1126 844 1106.5 828.5 c 128,-1,28
 1087 813 1087 813 1016 801 c 1,29,30
 879 780 879 780 813 780 c 0,31,32
 788 780 788 780 788 795 c 0,33,34
 788 805 788 805 791.5 826.5 c 128,-1,35
 795 848 795 848 795 860 c 0,36,37
 795 938 795 938 686 938 c 0,38,39
 526 938 526 938 414 731 c 1,40,41
 315 553 315 553 315 375 c 0,42,43
 315 311 315 311 354 260 c 128,-1,44
 393 209 393 209 453 209 c 0,45,46
 530 209 530 209 577.5 256 c 128,-1,47
 625 303 625 303 625 377 c 1,48,49
 547 358 547 358 487 358 c 0,50,51
 457 358 457 358 457 377 c 0,52,53
 457 389 457 389 477.5 459.5 c 128,-1,54
 498 530 498 530 504 541 c 1,55,56
 522 567 522 567 731 584 c 0,57,58
 881 596 881 596 987 596 c 0,59,60
 1157 596 1157 596 1157 575 c 0,0,1
EndSplineSet
EndChar

StartChar: uniA4D7
Encoding: 125 42199 122
Width: 1323
Flags: W
LayerCount: 2
Fore
SplineSet
1354 1061 m 0,0,1
 1354 1030 1354 1030 1294 942 c 1,2,3
 1051 567 1051 567 694 494 c 1,4,5
 711 459 711 459 803 336 c 1,6,7
 932 168 932 168 1047 -25 c 1,8,9
 1044 -39 1044 -39 997 -59 c 0,10,11
 936 -86 936 -86 934 -88 c 1,12,13
 918 -92 918 -92 873.5 -109.5 c 128,-1,14
 829 -127 829 -127 807 -127 c 0,15,16
 778 -127 778 -127 557 225 c 0,17,18
 502 311 502 311 403 430 c 1,19,20
 403 293 403 293 379 201 c 0,21,22
 367 154 367 154 305 -12 c 1,23,-1
 297 -12 l 1,24,25
 238 -14 238 -14 150 -4 c 1,26,27
 29 12 29 12 29 43 c 0,28,29
 29 88 29 88 106 299 c 1,30,31
 158 438 158 438 211 575 c 1,32,33
 221 608 221 608 299 854 c 0,34,35
 352 1022 352 1022 401 1124 c 0,36,37
 414 1151 414 1151 467 1151 c 0,38,39
 696 1151 696 1151 696 1098 c 0,40,41
 696 1049 696 1049 537 700 c 1,42,43
 618 686 618 686 623 686 c 0,44,45
 672 686 672 686 743 731 c 0,46,47
 973 879 973 879 1067 1073 c 1,48,49
 1075 1092 1075 1092 1085.5 1113.5 c 128,-1,50
 1096 1135 1096 1135 1114 1135 c 0,51,52
 1169 1135 1169 1135 1249 1118 c 0,53,54
 1354 1096 1354 1096 1354 1061 c 0,0,1
EndSplineSet
EndChar

StartChar: uniA4D8
Encoding: 126 42200 123
Width: 1282
Flags: W
LayerCount: 2
Fore
SplineSet
1257 1067 m 0,0,1
 1257 1022 1257 1022 1180 811 c 1,2,3
 1128 674 1128 674 1075 535 c 0,4,5
 1063 502 1063 502 987 258 c 0,6,7
 934 88 934 88 885 -14 c 0,8,9
 872 -41 872 -41 819 -41 c 0,10,11
 590 -41 590 -41 590 12 c 0,12,13
 590 61 590 61 750 410 c 1,14,15
 668 426 668 426 664 426 c 0,16,17
 614 426 614 426 543 379 c 1,18,19
 313 231 313 231 219 39 c 1,20,21
 211 18 211 18 203 0 c 1,22,23
 190 -25 190 -25 172 -25 c 0,24,25
 117 -25 117 -25 37 -6 c 1,26,27
 -68 16 -68 16 -68 49 c 256,28,29
 -68 82 -68 82 2 186 c 0,30,31
 240 543 240 543 592 618 c 1,32,33
 575 653 575 653 483 774 c 1,34,35
 356 938 356 938 240 1135 c 1,36,37
 242 1149 242 1149 289 1169 c 1,38,39
 350 1198 350 1198 352 1200 c 1,40,41
 369 1202 369 1202 416 1221 c 0,42,43
 457 1237 457 1237 479 1237 c 0,44,45
 508 1237 508 1237 729 885 c 0,46,47
 784 799 784 799 883 682 c 1,48,49
 883 817 883 817 907 909 c 0,50,51
 920 958 920 958 981 1122 c 1,52,-1
 989 1122 l 1,53,54
 1049 1126 1049 1126 1137 1114 c 0,55,56
 1257 1098 1257 1098 1257 1067 c 0,0,1
EndSplineSet
EndChar

StartChar: uniA4D9
Encoding: 127 42201 124
Width: 997
Flags: W
LayerCount: 2
Fore
SplineSet
1010 1081 m 0,0,1
 1010 1038 1010 1038 938 840 c 1,2,3
 889 711 889 711 842 580 c 1,4,5
 811 479 811 479 780 381 c 1,6,7
 741 262 741 262 698 188 c 1,8,9
 627 72 627 72 539 29 c 1,10,11
 461 -6 461 -6 315 -6 c 0,12,13
 207 -6 207 -6 72 35 c 1,14,15
 -49 74 -49 74 -49 223 c 0,16,17
 -49 276 -49 276 -29 369 c 0,18,19
 -6 477 -6 477 23 496 c 1,20,21
 41 506 41 506 156 506 c 0,22,23
 254 506 254 506 254 479 c 0,24,25
 254 449 254 449 228.5 384 c 128,-1,26
 203 319 203 319 203 283 c 0,27,28
 203 203 203 203 313 203 c 0,29,30
 403 203 403 203 451 301 c 1,31,32
 463 322 463 322 494 422 c 1,33,34
 557 598 557 598 676 954 c 1,35,36
 694 1016 694 1016 713 1079 c 1,37,38
 745 1149 745 1149 811 1149 c 0,39,40
 1010 1149 1010 1149 1010 1081 c 0,0,1
EndSplineSet
EndChar

StartChar: uniA4DA
Encoding: 128 42202 125
Width: 1040
Flags: W
LayerCount: 2
Fore
SplineSet
1030 956 m 0,0,1
 1030 840 1030 840 977 797 c 1,2,3
 932 762 932 762 807 762 c 0,4,5
 750 762 750 762 737 780 c 1,6,7
 758 838 758 838 758 870 c 0,8,9
 758 938 758 938 666 938 c 0,10,11
 594 938 594 938 500 807 c 0,12,13
 424 700 424 700 391 606 c 0,14,15
 340 463 340 463 340 344 c 0,16,17
 340 246 340 246 453 246 c 0,18,19
 530 246 530 246 583.5 338 c 128,-1,20
 637 430 637 430 694 430 c 0,21,22
 756 430 756 430 827 424 c 0,23,24
 844 422 844 422 861.5 419 c 128,-1,25
 879 416 879 416 879 395 c 0,26,27
 879 369 879 369 854 311 c 0,28,29
 793 168 793 168 743 117 c 1,30,31
 684 55 684 55 545 10 c 1,32,33
 444 -20 444 -20 360 -20 c 0,34,35
 190 -20 190 -20 106 113 c 1,36,37
 35 223 35 223 35 403 c 0,38,39
 35 487 35 487 80 623 c 1,40,41
 152 829 152 829 336 1020 c 1,42,43
 473 1159 473 1159 731 1159 c 0,44,45
 1030 1159 1030 1159 1030 956 c 0,0,1
EndSplineSet
EndChar

StartChar: uniA4DB
Encoding: 129 42203 126
Width: 1055
Flags: W
LayerCount: 2
Fore
SplineSet
999 752 m 0,0,1
 999 668 999 668 954 535 c 0,2,3
 883 326 883 326 698 137 c 0,4,5
 561 -4 561 -4 303 -4 c 0,6,7
 4 -4 4 -4 4 201 c 0,8,9
 4 317 4 317 57 358 c 0,10,11
 104 395 104 395 227 395 c 0,12,13
 285 395 285 395 299 377 c 1,14,15
 279 319 279 319 279 287 c 0,16,17
 279 219 279 219 371 219 c 0,18,19
 440 219 440 219 535 350 c 0,20,21
 612 457 612 457 643 549 c 1,22,23
 694 692 694 692 694 811 c 0,24,25
 694 911 694 911 582 911 c 0,26,27
 504 911 504 911 450.5 819 c 128,-1,28
 397 727 397 727 340 727 c 0,29,30
 279 727 279 727 207 733 c 0,31,32
 190 735 190 735 173 738 c 128,-1,33
 156 741 156 741 156 762 c 0,34,35
 156 788 156 788 180 846 c 0,36,37
 270 1057 270 1057 381 1106 c 0,38,39
 541 1178 541 1178 674 1178 c 0,40,41
 844 1178 844 1178 928 1044 c 1,42,43
 999 934 999 934 999 752 c 0,0,1
EndSplineSet
EndChar

StartChar: uniA4DC
Encoding: 130 42204 127
Width: 1014
Flags: W
LayerCount: 2
Fore
SplineSet
1016 920 m 0,0,1
 1016 895 1016 895 983 862 c 1,2,3
 956 840 956 840 930 815 c 0,4,5
 764 647 764 647 436 309 c 0,6,7
 391 262 391 262 258 164 c 1,8,9
 422 180 422 180 709 180 c 0,10,11
 723 180 723 180 748.5 183 c 128,-1,12
 774 186 774 186 784 186 c 1,13,14
 782 158 782 158 764 106 c 1,15,16
 754 68 754 68 721 10 c 1,17,18
 702 -6 702 -6 479 -6 c 2,19,-1
 322 -6 l 2,20,21
 76 -6 76 -6 55.5 7 c 128,-1,22
 35 20 35 20 3 83.5 c 128,-1,23
 -29 147 -29 147 -29 174 c 0,24,25
 -29 197 -29 197 53 281 c 1,26,27
 98 322 98 322 184 403 c 1,28,29
 264 487 264 487 428 655 c 1,30,31
 569 801 569 801 770 961 c 1,32,33
 535 940 535 940 422 940 c 2,34,-1
 193 942 l 1,35,36
 193 971 193 971 231 1065 c 1,37,38
 240 1094 240 1094 262 1141 c 1,39,40
 276 1161 276 1161 580 1161 c 2,41,-1
 735 1161 l 2,42,43
 868 1161 868 1161 891 1153 c 0,44,45
 946 1135 946 1135 981 1045.5 c 128,-1,46
 1016 956 1016 956 1016 920 c 0,0,1
EndSplineSet
EndChar

StartChar: uniA4DD
Encoding: 131 42205 128
Width: 995
Flags: W
LayerCount: 2
Fore
SplineSet
1032 1110 m 0,0,1
 1032 1102 1032 1102 1016.5 1056 c 128,-1,2
 1001 1010 1001 1010 989 967 c 1,3,4
 967 913 967 913 926 913 c 0,5,6
 864 913 864 913 739 917.5 c 128,-1,7
 614 922 614 922 551 922 c 0,8,9
 455 922 455 922 346 915 c 1,10,11
 387 891 387 891 473 854 c 1,12,13
 557 827 557 827 557 797 c 0,14,15
 557 748 557 748 516 651 c 1,16,-1
 829 651 l 2,17,18
 881 651 881 651 881 637 c 0,19,20
 881 580 881 580 862 512 c 1,21,22
 836 424 836 424 795 424 c 2,23,-1
 428 426 l 1,24,25
 395 319 395 319 365 211 c 1,26,27
 324 86 324 86 279 4 c 1,28,29
 270 -8 270 -8 238 -8 c 0,30,31
 0 -8 0 -8 0 57 c 0,32,33
 0 68 0 68 55 221 c 0,34,35
 115 389 115 389 123 420 c 1,36,37
 84 424 84 424 33 442 c 1,38,39
 33 463 33 463 66.5 550 c 128,-1,40
 100 637 100 637 113 647 c 1,41,42
 123 651 123 651 150 653 c 0,43,44
 221 659 221 659 231 694 c 2,45,-1
 297 918 l 1,46,47
 244 918 244 918 141 928 c 1,48,49
 143 948 143 948 197 1069 c 0,50,51
 221 1122 221 1122 240.5 1133.5 c 128,-1,52
 260 1145 260 1145 319 1145 c 0,53,54
 684 1145 684 1145 956 1128 c 1,55,56
 1032 1122 1032 1122 1032 1110 c 0,0,1
EndSplineSet
EndChar

StartChar: uniA4DE
Encoding: 132 42206 129
Width: 1026
Flags: W
LayerCount: 2
Fore
SplineSet
956 1079 m 0,0,1
 956 1069 956 1069 901 913 c 0,2,3
 842 748 842 748 834 717 c 1,4,5
 872 713 872 713 924 694 c 1,6,7
 924 674 924 674 890 587 c 128,-1,8
 856 500 856 500 844 487 c 1,9,10
 834 485 834 485 807 483 c 0,11,12
 735 475 735 475 725 440 c 2,13,-1
 659 219 l 1,14,15
 713 219 713 219 815 209 c 1,16,17
 813 188 813 188 760 66 c 1,18,19
 735 14 735 14 715.5 2 c 128,-1,20
 696 -10 696 -10 637 -10 c 0,21,22
 270 -10 270 -10 0 8 c 1,23,24
 -76 12 -76 12 -76 27 c 0,25,26
 -76 33 -76 33 -59 82 c 0,27,28
 -45 125 -45 125 -33 170 c 1,29,30
 -10 223 -10 223 31 223 c 0,31,32
 92 223 92 223 217 218 c 128,-1,33
 342 213 342 213 406 213 c 0,34,35
 449 213 449 213 520 225 c 0,36,37
 610 240 610 240 637 242 c 1,38,39
 557 274 557 274 489 295 c 1,40,41
 399 319 399 319 399 340 c 0,42,43
 399 387 399 387 440 485 c 1,44,-1
 127 485 l 2,45,46
 76 485 76 485 76 500 c 0,47,48
 76 557 76 557 94 623 c 1,49,50
 121 713 121 713 162 713 c 2,51,-1
 528 711 l 1,52,53
 559 817 559 817 592 926 c 1,54,55
 635 1055 635 1055 678 1130 c 0,56,57
 686 1145 686 1145 719 1145 c 0,58,59
 956 1145 956 1145 956 1079 c 0,0,1
EndSplineSet
EndChar

StartChar: uniA4DF
Encoding: 133 42207 130
Width: 1622
Flags: W
LayerCount: 2
Fore
SplineSet
1544 1061 m 0,0,1
 1544 1038 1544 1038 1524 885 c 1,2,3
 1505 770 1505 770 1473 541 c 1,4,5
 1456 381 1456 381 1413 61 c 1,6,7
 1399 -14 1399 -14 1319 -14 c 0,8,9
 1143 -14 1143 -14 1106 4 c 1,10,11
 1092 12 1092 12 1092 41 c 0,12,13
 1092 66 1092 66 1122 225 c 1,14,15
 1139 299 1139 299 1190 489 c 0,16,17
 1235 657 1235 657 1251 754 c 1,18,19
 1190 678 1190 678 1028 498 c 0,20,21
 907 365 907 365 819 233 c 0,22,23
 788 188 788 188 772 174 c 1,24,25
 745 156 745 156 700 156 c 0,26,27
 584 156 584 156 553 174 c 0,28,29
 504 203 504 203 504 305 c 0,30,31
 504 346 504 346 496 618 c 2,32,-1
 489 856 l 1,33,34
 444 729 444 729 381 512 c 1,35,36
 307 252 307 252 279 166 c 0,37,38
 236 31 236 31 216.5 12.5 c 128,-1,39
 197 -6 197 -6 170 -6 c 0,40,41
 -35 -6 -35 -6 -35 45 c 0,42,43
 -35 127 -35 127 152.5 621.5 c 128,-1,44
 340 1116 340 1116 381 1137 c 1,45,46
 403 1147 403 1147 455 1147 c 0,47,48
 483 1147 483 1147 537 1141 c 1,49,50
 659 1124 659 1124 680.5 1098.5 c 128,-1,51
 702 1073 702 1073 713 948 c 0,52,53
 715 928 715 928 725 877 c 0,54,55
 733 836 733 836 731 805 c 1,56,-1
 727 647 l 2,57,58
 727 643 727 643 729 545 c 0,59,60
 731 496 731 496 719 438 c 1,61,62
 829 623 829 623 961 778 c 0,63,64
 1006 831 1006 831 1243 1092 c 1,65,66
 1286 1141 1286 1141 1327 1141 c 0,67,68
 1544 1141 1544 1141 1544 1061 c 0,0,1
EndSplineSet
EndChar

StartChar: uniA4E0
Encoding: 134 42208 131
Width: 1260
Flags: W
LayerCount: 2
Fore
SplineSet
1257 1067 m 0,0,1
 1257 999 1257 999 1147 666 c 1,2,3
 1053 377 1053 377 1001 250 c 1,4,5
 979 201 979 201 956 152 c 1,6,7
 930 90 930 90 930 45 c 0,8,9
 930 37 930 37 944 0 c 1,10,11
 934 -6 934 -6 905 -6 c 0,12,13
 684 -6 684 -6 631 55 c 1,14,15
 625 66 625 66 541 459 c 1,16,17
 494 686 494 686 444 913 c 1,18,19
 358 438 358 438 268 145 c 1,20,21
 258 109 258 109 231 35 c 1,22,23
 213 -8 213 -8 174 -8 c 0,24,25
 -47 -8 -47 -8 -47 57 c 0,26,27
 -47 70 -47 70 76 455 c 1,28,29
 195 823 195 823 219 893 c 0,30,31
 309 1151 309 1151 332 1151 c 0,32,33
 379 1151 379 1151 468 1130.5 c 128,-1,34
 557 1110 557 1110 594 1090 c 1,35,36
 674 1042 674 1042 743 702 c 1,37,38
 780 487 780 487 817 270 c 1,39,40
 831 395 831 395 858 641 c 1,41,42
 868 748 868 748 915 889 c 1,43,44
 961 1010 961 1010 1004 1130 c 1,45,46
 1016 1143 1016 1143 1044 1143 c 0,47,48
 1094 1143 1094 1143 1167 1124 c 0,49,50
 1257 1100 1257 1100 1257 1067 c 0,0,1
EndSplineSet
EndChar

StartChar: uniA4E1
Encoding: 135 42209 132
Width: 942
Flags: W
LayerCount: 2
Fore
SplineSet
795 227 m 0,0,1
 795 215 795 215 760 119 c 0,2,3
 731 37 731 37 723 27 c 0,4,5
 698 -8 698 -8 635 -8 c 2,6,-1
 510 -8 l 2,7,8
 285 -8 285 -8 197 -2 c 1,9,10
 137 4 137 4 67.5 58.5 c 128,-1,11
 -2 113 -2 113 -2 172 c 0,12,13
 -2 254 -2 254 39 373 c 1,14,15
 66 440 66 440 117 575 c 1,16,17
 184 770 184 770 338 1149 c 1,18,19
 354 1159 354 1159 395 1159 c 0,20,21
 453 1159 453 1159 528 1149 c 0,22,23
 637 1133 637 1133 637 1106 c 0,24,25
 637 1073 637 1073 598 977 c 0,26,27
 481 690 481 690 330 238 c 1,28,29
 426 233 426 233 770 233 c 0,30,31
 795 233 795 233 795 227 c 0,0,1
EndSplineSet
EndChar

StartChar: uniA4E2
Encoding: 136 42210 133
Width: 942
Flags: W
LayerCount: 2
Fore
SplineSet
1020 1100 m 0,0,1
 1020 1055 1020 1055 989 952 c 1,2,3
 967 874 967 874 920 860 c 1,4,5
 907 858 907 858 791 858 c 0,6,7
 752 858 752 858 715 862 c 1,8,-1
 733 918 l 1,9,-1
 645 918 l 2,10,11
 594 918 594 918 553 893 c 1,12,13
 502 864 502 864 502 817 c 0,14,15
 502 782 502 782 518 750 c 1,16,17
 545 719 545 719 594 657 c 0,18,19
 741 471 741 471 741 350 c 0,20,21
 741 152 741 152 575 57 c 1,22,23
 444 -20 444 -20 229 -20 c 0,24,25
 94 -20 94 -20 8 -8 c 0,26,27
 -45 0 -45 0 -57.5 15.5 c 128,-1,28
 -70 31 -70 31 -70 88 c 0,29,30
 -70 119 -70 119 -44 208 c 128,-1,31
 -18 297 -18 297 -3 315.5 c 128,-1,32
 12 334 12 334 59 334 c 0,33,34
 203 334 203 334 215 330 c 1,35,36
 211 297 211 297 190 229 c 1,37,38
 248 211 248 211 281 211 c 0,39,40
 442 211 442 211 442 317 c 0,41,42
 442 395 442 395 310 559 c 128,-1,43
 178 723 178 723 178 807 c 0,44,45
 178 926 178 926 328 1030 c 1,46,47
 457 1118 457 1118 588 1139 c 1,48,49
 702 1155 702 1155 877 1155 c 0,50,51
 1020 1155 1020 1155 1020 1100 c 0,0,1
EndSplineSet
EndChar

StartChar: uniA4E3
Encoding: 137 42211 134
Width: 1186
Flags: W
LayerCount: 2
Fore
SplineSet
1139 825 m 0,0,1
 1139 666 1139 666 1004 551 c 0,2,3
 926 485 926 485 729 389 c 1,4,5
 786 326 786 326 895 182 c 1,6,7
 1024 8 1024 8 1024 -23 c 0,8,9
 1024 -43 1024 -43 929 -83 c 128,-1,10
 834 -123 834 -123 805 -123 c 0,11,12
 803 -123 803 -123 799 -121 c 1,13,14
 782 -106 782 -106 705 4 c 1,15,16
 606 135 606 135 422 403 c 1,17,-1
 287 -4 l 1,18,19
 254 -10 254 -10 164 -10 c 0,20,21
 8 -10 8 -10 8 39 c 0,22,23
 8 78 8 78 37 160 c 1,24,25
 59 219 59 219 82 279 c 1,26,-1
 295 899 l 1,27,28
 127 868 127 868 123 868 c 0,29,30
 100 868 100 868 84 872 c 1,31,32
 84 907 84 907 111.5 984 c 128,-1,33
 139 1061 139 1061 164.5 1083.5 c 128,-1,34
 190 1106 190 1106 383 1130 c 1,35,36
 551 1153 551 1153 627 1153 c 0,37,38
 815 1153 815 1153 956 1083 c 1,39,40
 1139 995 1139 995 1139 825 c 0,0,1
844 780 m 0,41,42
 844 942 844 942 553 942 c 0,43,44
 471 942 471 942 307 889 c 1,45,46
 336 866 336 866 397 834 c 1,47,48
 438 827 438 827 481 819 c 0,49,50
 541 807 541 807 541 782 c 0,51,52
 541 756 541 756 514 695.5 c 128,-1,53
 487 635 487 635 487 598 c 1,54,-1
 489 561 l 1,55,56
 608 561 608 561 715 612 c 0,57,58
 844 674 844 674 844 780 c 0,41,42
EndSplineSet
EndChar

StartChar: uniA4E4
Encoding: 138 42212 135
Width: 1200
Flags: W
LayerCount: 2
Fore
SplineSet
1153 1081 m 0,0,1
 1153 1042 1153 1042 1124 963 c 0,2,3
 1102 901 1102 901 1079 842 c 1,4,-1
 866 223 l 1,5,6
 938 240 938 240 1077 258 c 1,7,-1
 1077 250 l 2,8,9
 1077 215 1077 215 1049.5 137 c 128,-1,10
 1022 59 1022 59 997.5 37.5 c 128,-1,11
 973 16 973 16 793 -8 c 1,12,13
 635 -31 635 -31 565 -31 c 0,14,15
 389 -31 389 -31 297 0 c 0,16,17
 23 90 23 90 23 297 c 0,18,19
 23 455 23 455 158 571 c 0,20,21
 236 637 236 637 432 731 c 1,22,23
 375 795 375 795 266 938 c 1,24,25
 137 1112 137 1112 137 1143 c 0,26,27
 137 1163 137 1163 232.5 1203 c 128,-1,28
 328 1243 328 1243 356 1243 c 0,29,30
 358 1243 358 1243 362 1241 c 1,31,32
 401 1208 401 1208 555 989 c 1,33,34
 676 815 676 815 739 717 c 1,35,-1
 874 1126 l 1,36,37
 907 1130 907 1130 997 1130 c 0,38,39
 1153 1130 1153 1130 1153 1081 c 0,0,1
860 256 m 1,40,41
 821 266 821 266 743 283 c 1,42,43
 621 299 621 299 621 340 c 0,44,45
 621 365 621 365 647.5 425 c 128,-1,46
 674 485 674 485 674 522 c 1,47,-1
 672 559 l 1,48,49
 553 559 553 559 446 510 c 1,50,51
 317 446 317 446 317 340 c 0,52,53
 317 258 317 258 408 215 c 1,54,55
 481 178 481 178 571 178 c 0,56,57
 670 178 670 178 725 199 c 1,58,59
 793 227 793 227 860 256 c 1,40,41
EndSplineSet
EndChar

StartChar: uniA4E5
Encoding: 139 42213 136
Width: 1090
Flags: W
LayerCount: 2
Fore
SplineSet
901 455 m 0,0,1
 901 4 901 4 893 -14.5 c 128,-1,2
 885 -33 885 -33 860 -33 c 0,3,4
 829 -33 829 -33 725 -20 c 0,5,6
 637 -10 637 -10 615.5 8.5 c 128,-1,7
 594 27 594 27 594 109 c 0,8,9
 594 137 594 137 602 186 c 1,10,11
 610 246 610 246 612 262 c 0,12,13
 621 358 621 358 621 516 c 0,14,15
 621 532 621 532 627 565 c 128,-1,16
 633 598 633 598 633 614 c 0,17,18
 633 627 633 627 625 823 c 1,19,20
 563 696 563 696 434 457 c 0,21,22
 301 211 301 211 242 90 c 1,23,24
 225 51 225 51 209 14 c 1,25,26
 182 -29 182 -29 143 -29 c 0,27,28
 100 -29 100 -29 14 -14 c 0,29,30
 -90 4 -90 4 -90 25 c 0,31,32
 -90 133 -90 133 240.5 633 c 128,-1,33
 571 1133 571 1133 643 1133 c 0,34,35
 674 1133 674 1133 771 1107 c 128,-1,36
 868 1081 868 1081 874 1065 c 1,37,38
 877 1028 877 1028 881 967 c 1,39,40
 901 735 901 735 901 455 c 0,0,1
EndSplineSet
EndChar

StartChar: uniA4E6
Encoding: 140 42214 137
Width: 1104
Flags: W
LayerCount: 2
Fore
SplineSet
1167 1085 m 0,0,1
 1167 979 1167 979 836.5 479.5 c 128,-1,2
 506 -20 506 -20 434 -20 c 0,3,4
 403 -20 403 -20 309 4 c 1,5,6
 209 31 209 31 203 47 c 1,7,8
 201 82 201 82 197 145 c 1,9,10
 176 375 176 375 176 657 c 0,11,12
 176 1106 176 1106 184.5 1124.5 c 128,-1,13
 193 1143 193 1143 217 1143 c 0,14,15
 272 1143 272 1143 354 1133 c 1,16,17
 459 1118 459 1118 471 1097.5 c 128,-1,18
 483 1077 483 1077 483 1012 c 0,19,20
 483 979 483 979 477 930 c 1,21,22
 467 866 467 866 467 848 c 1,23,24
 459 752 459 752 459 594 c 0,25,26
 459 578 459 578 451.5 545 c 128,-1,27
 444 512 444 512 444 496 c 0,28,29
 444 485 444 485 455 289 c 1,30,31
 514 416 514 416 646 658.5 c 128,-1,32
 778 901 778 901 836 1022 c 1,33,34
 852 1059 852 1059 873.5 1100 c 128,-1,35
 895 1141 895 1141 936 1141 c 256,36,37
 977 1141 977 1141 1063 1124 c 1,38,39
 1167 1106 1167 1106 1167 1085 c 0,0,1
EndSplineSet
EndChar

StartChar: uniA4E7
Encoding: 141 42215 138
Width: 1264
Flags: W
LayerCount: 2
Fore
SplineSet
1284 1053 m 0,0,1
 1284 1014 1284 1014 1113 533.5 c 128,-1,2
 942 53 942 53 911 6 c 0,3,4
 899 -14 899 -14 807 -14 c 0,5,6
 623 -14 623 -14 623 31 c 0,7,8
 623 66 623 66 743 367 c 1,9,10
 840 614 840 614 889 723 c 1,11,12
 823 659 823 659 760 596 c 1,13,14
 684 518 684 518 641 459 c 1,15,16
 631 442 631 442 614 422 c 1,17,18
 604 418 604 418 391 410 c 1,19,20
 344 250 344 250 274 45 c 1,21,22
 246 -12 246 -12 201 -12 c 0,23,24
 172 -12 172 -12 94 0 c 128,-1,25
 16 12 16 12 -2 21.5 c 128,-1,26
 -20 31 -20 31 -20 51 c 0,27,28
 -20 72 -20 72 29 219 c 1,29,30
 61 311 61 311 92 406 c 1,31,32
 0 414 0 414 0 446 c 0,33,34
 0 487 0 487 43 590 c 1,35,36
 68 647 68 647 98 662 c 1,37,38
 115 668 115 668 195 680 c 1,39,40
 215 752 215 752 264 887 c 0,41,42
 317 1034 317 1034 349 1088.5 c 128,-1,43
 381 1143 381 1143 420 1143 c 0,44,45
 643 1143 643 1143 643 1071 c 0,46,47
 643 1034 643 1034 616 977 c 1,48,49
 571 877 571 877 485 664 c 1,50,51
 600 659 600 659 838 653 c 1,52,53
 877 760 877 760 954 977 c 1,54,55
 963 1014 963 1014 991 1085 c 1,56,57
 1016 1137 1016 1137 1049 1137 c 0,58,59
 1073 1137 1073 1137 1146 1124.5 c 128,-1,60
 1219 1112 1219 1112 1239 1104 c 0,61,62
 1284 1087 1284 1087 1284 1053 c 0,0,1
EndSplineSet
EndChar

StartChar: uniA4E8
Encoding: 142 42216 139
Width: 1221
Flags: W
LayerCount: 2
Fore
SplineSet
1157 705 m 0,0,1
 1157 600 1157 600 1083.5 437 c 128,-1,2
 1010 274 1010 274 942 195 c 0,3,4
 856 96 856 96 715 35 c 0,5,6
 590 -18 590 -18 504 -18 c 0,7,8
 344 -18 344 -18 229 25 c 1,9,10
 66 88 66 88 66 225 c 0,11,12
 66 293 66 293 88 311 c 1,13,14
 102 324 102 324 176 336 c 1,15,16
 311 356 311 356 379 356 c 0,17,18
 401 356 401 356 401 344 c 256,19,20
 401 332 401 332 398 310.5 c 128,-1,21
 395 289 395 289 395 276 c 0,22,23
 395 199 395 199 506 199 c 0,24,25
 666 199 666 199 778 408 c 0,26,27
 874 586 874 586 874 762 c 0,28,29
 874 825 874 825 836.5 876.5 c 128,-1,30
 799 928 799 928 737 928 c 0,31,32
 655 928 655 928 600 889 c 128,-1,33
 545 850 545 850 545 780 c 1,34,35
 625 799 625 799 684 799 c 0,36,37
 713 799 713 799 713 780 c 0,38,39
 713 768 713 768 693.5 697.5 c 128,-1,40
 674 627 674 627 668 616 c 1,41,42
 649 590 649 590 438 573 c 0,43,44
 289 561 289 561 184 561 c 0,45,46
 14 561 14 561 14 582 c 0,47,48
 14 592 14 592 34.5 661.5 c 128,-1,49
 55 731 55 731 96 750 c 0,50,51
 127 764 127 764 203 764 c 1,52,53
 254 874 254 874 324 946 c 2,54,-1
 399 1024 l 2,55,56
 524 1155 524 1155 780 1155 c 0,57,58
 977 1155 977 1155 1073 1020 c 1,59,60
 1157 905 1157 905 1157 705 c 0,0,1
EndSplineSet
EndChar

StartChar: uniA4E9
Encoding: 143 42217 140
Width: 1069
Flags: W
LayerCount: 2
Fore
SplineSet
1022 918 m 0,0,1
 1022 864 1022 864 1001 772 c 1,2,3
 979 662 979 662 950 645 c 1,4,5
 932 633 932 633 817 633 c 0,6,7
 700 633 700 633 700 659 c 0,8,9
 700 692 700 692 725 756.5 c 128,-1,10
 750 821 750 821 750 858 c 0,11,12
 750 938 750 938 659 938 c 0,13,14
 569 938 569 938 522 840 c 0,15,16
 512 819 512 819 479 717 c 1,17,18
 416 541 416 541 297 186 c 1,19,20
 279 123 279 123 260 61 c 1,21,22
 227 -8 227 -8 162 -8 c 0,23,24
 -57 -8 -57 -8 -57 57 c 0,25,26
 -57 102 -57 102 14 301 c 1,27,28
 63 430 63 430 111 561 c 1,29,30
 141 662 141 662 172 760 c 1,31,32
 211 877 211 877 254 950 c 0,33,34
 326 1071 326 1071 430 1114 c 1,35,36
 514 1147 514 1147 670 1147 c 0,37,38
 766 1147 766 1147 901 1104 c 1,39,40
 1022 1067 1022 1067 1022 918 c 0,0,1
EndSplineSet
EndChar

StartChar: uniA4EA
Encoding: 144 42218 141
Width: 1720
Flags: W
LayerCount: 2
Fore
SplineSet
1769 1081 m 0,0,1
 1769 1008 1769 1008 1497 532.5 c 128,-1,2
 1225 57 1225 57 1155 4 c 1,3,4
 1128 -14 1128 -14 1106 -14 c 0,5,6
 928 -14 928 -14 895 37 c 0,7,8
 874 68 874 68 874 256 c 0,9,10
 874 317 874 317 872 487 c 0,11,12
 870 621 870 621 872 721 c 1,13,14
 815 608 815 608 707 422 c 1,15,16
 676 375 676 375 616 281 c 1,17,18
 578 209 578 209 539 137 c 1,19,20
 492 53 492 53 444 8 c 1,21,22
 428 -10 428 -10 401 -10 c 0,23,24
 209 -10 209 -10 186 49 c 1,25,26
 176 78 176 78 176 373 c 0,27,28
 176 487 176 487 181 716.5 c 128,-1,29
 186 946 186 946 186 1063 c 0,30,31
 186 1149 186 1149 248 1149 c 0,32,33
 309 1149 309 1149 414 1126 c 1,34,35
 479 1114 479 1114 479 1063 c 0,36,37
 479 918 479 918 459 694 c 0,38,39
 430 367 430 367 428 328 c 1,40,41
 522 514 522 514 616 702 c 1,42,43
 774 1010 774 1010 807 1045.5 c 128,-1,44
 840 1081 840 1081 881 1081 c 0,45,46
 911 1081 911 1081 987 1071 c 1,47,48
 1075 1063 1075 1063 1085 1053 c 1,49,50
 1094 1018 1094 1018 1094 915 c 0,51,52
 1094 520 1094 520 1081 375 c 1,53,54
 1202 551 1202 551 1358 856 c 0,55,56
 1425 989 1425 989 1511 1135 c 1,57,58
 1524 1141 1524 1141 1538 1141 c 0,59,60
 1606 1141 1606 1141 1671 1130 c 0,61,62
 1769 1112 1769 1112 1769 1081 c 0,0,1
EndSplineSet
EndChar

StartChar: uniA4EB
Encoding: 145 42219 142
Width: 1118
Flags: W
LayerCount: 2
Fore
SplineSet
1110 1092 m 0,0,1
 1110 1069 1110 1069 928 823 c 1,2,3
 819 682 819 682 711 539 c 1,4,5
 766 381 766 381 889 170 c 1,6,7
 948 66 948 66 948 18 c 0,8,9
 948 -16 948 -16 846 -16 c 2,10,-1
 807 -16 l 1,11,12
 709 -14 709 -14 663.5 22.5 c 128,-1,13
 618 59 618 59 586 156 c 1,14,15
 555 244 555 244 500 371 c 1,16,17
 371 -14 371 -14 231 -14 c 1,18,-1
 170 -16 l 1,19,20
 -4 -18 -4 -18 -4 29 c 0,21,22
 -4 43 -4 43 174 279 c 1,23,24
 373 539 373 539 387 559 c 1,25,26
 346 670 346 670 311 748 c 1,27,28
 268 836 268 836 225 924 c 1,29,30
 172 1040 172 1040 172 1106 c 0,31,32
 172 1135 172 1135 203 1141 c 0,33,34
 211 1143 211 1143 254 1143 c 0,35,36
 289 1143 289 1143 367 1133 c 0,37,38
 455 1122 455 1122 467 1114 c 0,39,40
 487 1100 487 1100 573 768 c 1,41,42
 614 821 614 821 694 932 c 1,43,44
 721 979 721 979 778 1067 c 1,45,46
 831 1141 831 1141 883 1141 c 0,47,48
 1110 1141 1110 1141 1110 1092 c 0,0,1
EndSplineSet
EndChar

StartChar: uniA4EC
Encoding: 146 42220 143
Width: 1055
Flags: W
LayerCount: 2
Fore
SplineSet
1104 1092 m 0,0,1
 1104 1057 1104 1057 1083 1026 c 2,2,-1
 557 211 l 1,3,4
 518 141 518 141 426 12 c 1,5,6
 399 -18 399 -18 354 -18 c 0,7,8
 297 -18 297 -18 225 -6 c 0,9,10
 121 12 121 12 121 41 c 0,11,12
 121 63 121 63 162 123 c 0,13,14
 190 164 190 164 219 205 c 1,15,16
 254 262 254 262 326 379 c 1,17,18
 319 410 319 410 266 621 c 1,19,20
 248 707 248 707 207 883 c 0,21,22
 168 1047 168 1047 168 1114 c 0,23,24
 168 1151 168 1151 195 1151 c 0,25,26
 240 1151 240 1151 332 1137 c 0,27,28
 440 1120 440 1120 451 1102 c 0,29,30
 453 1100 453 1100 469 999.5 c 128,-1,31
 485 899 485 899 485 815 c 0,32,33
 485 705 485 705 467 522 c 1,34,35
 541 668 541 668 616 813 c 1,36,37
 709 983 709 983 788 1092 c 1,38,39
 829 1145 829 1145 870 1145 c 0,40,41
 1104 1145 1104 1145 1104 1092 c 0,0,1
EndSplineSet
EndChar

StartChar: uniA4ED
Encoding: 147 42221 144
Width: 1176
Flags: W
LayerCount: 2
Fore
SplineSet
1223 850 m 0,0,1
 1223 805 1223 805 1204 733 c 0,2,3
 1182 645 1182 645 1151 645 c 1,4,-1
 1153 649 l 1,5,6
 1092 705 1092 705 1010 741 c 1,7,8
 950 555 950 555 891 371 c 1,9,10
 791 74 791 74 764 49 c 0,11,12
 748 35 748 35 638 1 c 128,-1,13
 528 -33 528 -33 500 -33 c 0,14,15
 485 -33 485 -33 389 10 c 1,16,17
 348 27 348 27 272 63 c 1,18,19
 174 115 174 115 94 211 c 1,20,21
 0 319 0 319 0 416 c 0,22,23
 0 532 0 532 102 608 c 0,24,25
 186 670 186 670 315 694 c 1,26,27
 205 856 205 856 205 942 c 0,28,29
 205 1073 205 1073 332 1149 c 1,30,31
 440 1212 440 1212 582 1212 c 0,32,33
 698 1212 698 1212 879 1141 c 1,34,35
 969 1104 969 1104 1081 1020 c 1,36,37
 1223 918 1223 918 1223 850 c 0,0,1
995 756 m 1,38,39
 920 834 920 834 829 893 c 1,40,41
 717 969 717 969 637 969 c 0,42,43
 569 969 569 969 525 931 c 128,-1,44
 481 893 481 893 481 827 c 0,45,46
 481 748 481 748 610 647 c 1,47,-1
 684 625 l 1,48,49
 698 688 698 688 737 791 c 1,50,51
 825 791 825 791 995 756 c 1,38,39
651 551 m 1,52,-1
 651 670 l 1,53,54
 614 639 614 639 545 575 c 1,55,56
 524 551 524 551 477 504 c 1,57,58
 385 496 385 496 354 479 c 1,59,60
 297 453 297 453 297 375 c 0,61,62
 297 307 297 307 381 250 c 0,63,64
 449 203 449 203 524 190 c 1,65,66
 567 299 567 299 641 522 c 0,67,68
 643 530 643 530 651 551 c 1,52,-1
EndSplineSet
EndChar

StartChar: uniA4EE
Encoding: 148 42222 145
Width: 1130
Flags: W
LayerCount: 2
Fore
SplineSet
938 651 m 0,0,1
 938 489 938 489 922 176 c 0,2,3
 922 158 922 158 915 92 c 1,4,5
 911 41 911 41 911 8 c 0,6,7
 911 -16 911 -16 817 -16 c 0,8,9
 715 -16 715 -16 709 -16 c 0,10,11
 639 -6 639 -6 639 45 c 0,12,13
 639 82 639 82 651 131 c 1,14,15
 664 174 664 174 676 217 c 1,16,17
 696 301 696 301 709 424 c 1,18,19
 637 313 637 313 582 313 c 0,20,21
 571 313 571 313 557 318.5 c 128,-1,22
 543 324 543 324 541 324 c 1,23,24
 528 311 528 311 514 295 c 1,25,26
 489 276 489 276 410 276 c 0,27,28
 397 276 397 276 356 289 c 1,29,30
 332 254 332 254 248 109 c 1,31,32
 233 80 233 80 203 25 c 1,33,34
 176 -12 176 -12 154 -12 c 0,35,36
 121 -12 121 -12 59 2 c 1,37,38
 -8 14 -8 14 -27 31 c 1,39,40
 -80 49 -80 49 -80 63 c 0,41,42
 -80 78 -80 78 -39 160 c 0,43,44
 8 252 8 252 14 268 c 1,45,46
 -43 274 -43 274 -43 283 c 0,47,48
 -43 311 -43 311 -11.5 406.5 c 128,-1,49
 20 502 20 502 37 516 c 1,50,51
 49 524 49 524 174 524 c 1,52,53
 174 526 174 526 283 696 c 1,54,55
 352 809 352 809 424 924 c 1,56,57
 522 1077 522 1077 582 1128 c 1,58,59
 606 1151 606 1151 641 1151 c 0,60,61
 702 1151 702 1151 782 1141 c 1,62,63
 887 1126 887 1126 909 1102 c 0,64,65
 926 1083 926 1083 934 897 c 0,66,67
 938 799 938 799 938 651 c 0,0,1
723 610 m 0,68,69
 723 655 723 655 717 747.5 c 128,-1,70
 711 840 711 840 711 885 c 0,71,72
 711 948 711 948 713 1034 c 1,73,74
 670 950 670 950 571 793 c 1,75,76
 506 707 506 707 440 621 c 1,77,78
 369 522 369 522 334 434 c 1,79,-1
 717 518 l 1,80,81
 723 563 723 563 723 610 c 0,68,69
EndSplineSet
EndChar

StartChar: uniA4EF
Encoding: 149 42223 146
Width: 1116
Flags: W
LayerCount: 2
Fore
SplineSet
1147 1079 m 0,0,1
 1147 1067 1147 1067 1106 983 c 1,2,3
 1057 887 1057 887 1051 870 c 1,4,5
 1110 868 1110 868 1110 860 c 0,6,7
 1110 831 1110 831 1078.5 736 c 128,-1,8
 1047 641 1047 641 1032.5 631 c 128,-1,9
 1018 621 1018 621 893 621 c 1,10,11
 891 618 891 618 784 449 c 1,12,13
 715 334 715 334 643 219 c 1,14,15
 545 66 545 66 485 14 c 0,16,17
 461 -8 461 -8 426 -8 c 0,18,19
 365 -8 365 -8 285 2 c 0,20,21
 180 16 180 16 158 41 c 0,22,23
 141 59 141 59 133 248 c 0,24,25
 129 346 129 346 129 492 c 0,26,27
 129 653 129 653 145 967 c 1,28,29
 145 987 145 987 152 1051 c 1,30,31
 156 1104 156 1104 156 1132.5 c 128,-1,32
 156 1161 156 1161 248 1161 c 0,33,34
 352 1161 352 1161 358 1159 c 1,35,36
 428 1149 428 1149 428 1098 c 0,37,38
 428 1079 428 1079 399 922 c 1,39,40
 387 844 387 844 375 731 c 1,41,42
 412 791 412 791 426 803 c 0,43,44
 453 827 453 827 500 827 c 0,45,46
 516 827 516 827 557 846.5 c 128,-1,47
 598 866 598 866 643 866 c 0,48,49
 670 866 670 866 711 854 c 1,50,51
 735 891 735 891 819 1036 c 1,52,53
 831 1065 831 1065 864 1120 c 1,54,55
 891 1155 891 1155 913 1155 c 0,56,57
 946 1155 946 1155 1010.5 1141.5 c 128,-1,58
 1075 1128 1075 1128 1094 1114 c 1,59,60
 1147 1096 1147 1096 1147 1079 c 0,0,1
696 705 m 1,61,-1
 387 649 l 1,62,63
 383 625 383 625 361.5 566.5 c 128,-1,64
 340 508 340 508 340 477 c 1,65,66
 340 483 340 483 356 387 c 0,67,68
 362 348 362 348 358 145 c 1,69,70
 465 340 465 340 561 471 c 0,71,72
 651 594 651 594 696 705 c 1,61,-1
EndSplineSet
EndChar

StartChar: uniA4F0
Encoding: 150 42224 147
Width: 1065
Flags: W
LayerCount: 2
Fore
SplineSet
1104 1116 m 0,0,1
 1104 1094 1104 1094 1076.5 1012 c 128,-1,2
 1049 930 1049 930 1035.5 913.5 c 128,-1,3
 1022 897 1022 897 952 897 c 0,4,5
 885 897 885 897 749.5 903 c 128,-1,6
 614 909 614 909 547 909 c 0,7,8
 514 909 514 909 457 905 c 1,9,10
 389 899 389 899 367 899 c 1,11,12
 446 844 446 844 512 809 c 1,13,14
 526 805 526 805 551 791 c 1,15,16
 551 780 551 780 508 651 c 1,17,18
 541 651 541 651 805 651 c 0,19,20
 938 651 938 651 938 627 c 0,21,22
 938 612 938 612 907 524 c 1,23,24
 895 496 895 496 885 473 c 0,25,26
 868 436 868 436 855 430 c 128,-1,27
 842 424 842 424 795 424 c 0,28,29
 758 424 758 424 684 426 c 1,30,31
 610 426 610 426 573 426 c 0,32,33
 571 426 571 426 424 424 c 1,34,35
 397 348 397 348 336 201 c 1,36,37
 375 199 375 199 737 199 c 0,38,39
 805 199 805 199 805 174 c 0,40,41
 805 158 805 158 774 63 c 0,42,43
 758 16 758 16 737.5 1 c 128,-1,44
 717 -14 717 -14 668 -14 c 0,45,46
 602 -14 602 -14 471 -12 c 1,47,48
 338 -12 338 -12 272 -12 c 0,49,50
 199 -12 199 -12 170 -4 c 0,51,52
 129 8 129 8 82 50 c 128,-1,53
 35 92 35 92 35 152 c 0,54,55
 35 203 35 203 63 287 c 1,56,57
 88 354 88 354 113 422 c 1,58,59
 25 420 25 420 25 451 c 0,60,61
 25 461 25 461 41 522 c 1,62,63
 66 606 66 606 82 625 c 0,64,65
 109 655 109 655 188 647 c 1,66,67
 190 653 190 653 289 899 c 1,68,69
 236 899 236 899 154 913 c 1,70,71
 154 922 154 922 188 1034 c 1,72,73
 215 1114 215 1114 239.5 1129.5 c 128,-1,74
 264 1145 264 1145 354 1145 c 2,75,-1
 625 1145 l 2,76,77
 690 1145 690 1145 825.5 1143 c 128,-1,78
 961 1141 961 1141 1028 1141 c 0,79,80
 1104 1141 1104 1141 1104 1116 c 0,0,1
EndSplineSet
EndChar

StartChar: uniA4F1
Encoding: 151 42225 148
Width: 1108
Flags: W
LayerCount: 2
Fore
SplineSet
1012 686 m 0,0,1
 1012 678 1012 678 995 616 c 0,2,3
 971 530 971 530 954 512 c 0,4,5
 928 483 928 483 848 489 c 1,6,7
 846 485 846 485 748 240 c 1,8,9
 801 238 801 238 883 223 c 1,10,11
 883 217 883 217 848 104 c 1,12,13
 821 25 821 25 796.5 8.5 c 128,-1,14
 772 -8 772 -8 682 -8 c 2,15,-1
 412 -8 l 2,16,17
 346 -8 346 -8 211 -6 c 128,-1,18
 76 -4 76 -4 8 -4 c 0,19,20
 -68 -4 -68 -4 -68 23 c 0,21,22
 -68 45 -68 45 -40 126 c 128,-1,23
 -12 207 -12 207 1 223.5 c 128,-1,24
 14 240 14 240 84 240 c 0,25,26
 152 240 152 240 287 233.5 c 128,-1,27
 422 227 422 227 489 227 c 0,28,29
 563 227 563 227 725 250 c 1,30,31
 508 328 508 328 485 346 c 1,32,33
 485 356 485 356 528 485 c 1,34,35
 496 487 496 487 233 487 c 0,36,37
 98 487 98 487 98 512 c 0,38,39
 98 526 98 526 129 614 c 1,40,41
 141 643 141 643 152 664 c 1,42,43
 168 700 168 700 184 709 c 1,44,45
 195 713 195 713 242 713 c 0,46,47
 279 713 279 713 352 713 c 1,48,49
 426 711 426 711 463 711 c 0,50,51
 467 711 467 711 612 715 c 1,52,53
 639 788 639 788 700 938 c 1,54,55
 662 938 662 938 299 938 c 0,56,57
 231 938 231 938 231 963 c 0,58,59
 231 979 231 979 262 1073 c 0,60,61
 279 1122 279 1122 299 1137.5 c 128,-1,62
 319 1153 319 1153 369 1153 c 0,63,64
 434 1153 434 1153 566 1151 c 128,-1,65
 698 1149 698 1149 764 1149 c 0,66,67
 838 1149 838 1149 866 1141 c 0,68,69
 907 1130 907 1130 954 1088.5 c 128,-1,70
 1001 1047 1001 1047 1001 987 c 0,71,72
 1001 934 1001 934 973 850 c 1,73,74
 948 784 948 784 924 717 c 1,75,76
 1012 717 1012 717 1012 686 c 0,0,1
EndSplineSet
EndChar

StartChar: uniA4F2
Encoding: 152 42226 149
Width: 829
Flags: W
LayerCount: 2
Fore
SplineSet
786 1090 m 0,0,1
 786 1069 786 1069 713 874 c 1,2,3
 680 793 680 793 618 629 c 1,4,5
 524 336 524 336 408 16 c 1,6,7
 389 -8 389 -8 350 -8 c 0,8,9
 61 -8 61 -8 61 74 c 0,10,11
 61 117 61 117 242.5 600 c 128,-1,12
 424 1083 424 1083 455 1122 c 1,13,14
 477 1147 477 1147 557 1147 c 0,15,16
 786 1147 786 1147 786 1090 c 0,0,1
EndSplineSet
EndChar

StartChar: uniA4F3
Encoding: 153 42227 150
Width: 1245
Flags: W
LayerCount: 2
Fore
SplineSet
1165 854 m 0,0,1
 1165 377 1165 377 848 119 c 0,2,3
 670 -27 670 -27 492 -27 c 0,4,5
 426 -27 426 -27 336 -12 c 1,6,7
 209 6 209 6 125 133 c 1,8,9
 49 250 49 250 49 385 c 0,10,11
 49 610 49 610 168 811 c 0,12,13
 293 1024 293 1024 492 1108 c 1,14,15
 635 1167 635 1167 729 1167 c 0,16,17
 762 1167 762 1167 762 1155 c 0,18,19
 762 1151 762 1151 802 1120.5 c 128,-1,20
 842 1090 842 1090 834 1028 c 1,21,22
 887 1065 887 1065 940 1102 c 1,23,24
 1018 1153 1018 1153 1044 1153 c 0,25,26
 1165 1153 1165 1153 1165 854 c 0,0,1
850 885 m 0,27,28
 850 934 850 934 803 1022 c 1,29,30
 770 922 770 922 702 922 c 1,31,-1
 633 887 l 2,32,33
 512 825 512 825 434 676 c 1,34,35
 358 537 358 537 358 393 c 0,36,37
 358 319 358 319 399 275 c 128,-1,38
 440 231 440 231 514 231 c 0,39,40
 586 231 586 231 676 332 c 0,41,42
 756 422 756 422 782 502 c 1,43,44
 840 670 840 670 840 811 c 0,45,46
 840 823 840 823 845 847.5 c 128,-1,47
 850 872 850 872 850 885 c 0,27,28
EndSplineSet
EndChar

StartChar: uniA4F4
Encoding: 154 42228 151
Width: 1221
Flags: W
LayerCount: 2
Fore
SplineSet
1227 1081 m 0,0,1
 1227 1028 1227 1028 1174 874 c 1,2,3
 1135 768 1135 768 1096 662 c 1,4,5
 965 264 965 264 825 86 c 1,6,7
 743 -20 743 -20 530 -20 c 0,8,9
 342 -20 342 -20 213 49 c 0,10,11
 51 135 51 135 51 305 c 0,12,13
 51 375 51 375 78 467 c 0,14,15
 102 547 102 547 127 625 c 1,16,17
 162 743 162 743 236 983 c 1,18,19
 250 1032 250 1032 283 1128 c 1,20,21
 293 1151 293 1151 369 1151 c 0,22,23
 592 1151 592 1151 592 1112 c 0,24,25
 592 1069 592 1069 561 987 c 0,26,27
 537 924 537 924 514 862 c 1,28,29
 412 569 412 569 367 344 c 1,30,31
 381 283 381 283 407.5 260.5 c 128,-1,32
 434 238 434 238 498 238 c 0,33,34
 524 238 524 238 551 242 c 0,35,36
 641 254 641 254 723 459 c 1,37,38
 770 604 770 604 817 752 c 1,39,40
 848 838 848 838 909 1014 c 1,41,42
 918 1044 918 1044 944 1102 c 1,43,44
 965 1133 965 1133 1032 1133 c 0,45,46
 1227 1133 1227 1133 1227 1081 c 0,0,1
EndSplineSet
EndChar

StartChar: uniA4F5
Encoding: 155 42229 152
Width: 1264
Flags: W
LayerCount: 2
Fore
SplineSet
1135 819 m 0,0,1
 1135 750 1135 750 1108 657 c 1,2,3
 1083 578 1083 578 1059 500 c 1,4,5
 1024 381 1024 381 950 141 c 1,6,7
 936 92 936 92 903 -4 c 1,8,9
 893 -27 893 -27 817 -27 c 0,10,11
 594 -27 594 -27 594 12 c 0,12,13
 594 55 594 55 625 137 c 0,14,15
 649 201 649 201 672 262 c 1,16,17
 774 555 774 555 819 780 c 1,18,19
 805 842 805 842 778.5 864.5 c 128,-1,20
 752 887 752 887 688 887 c 0,21,22
 592 887 592 887 543 825 c 0,23,24
 489 758 489 758 440 608 c 1,25,26
 406 492 406 492 369 375 c 1,27,28
 338 287 338 287 276 111 c 1,29,30
 268 80 268 80 242 23 c 1,31,32
 221 -8 221 -8 152 -8 c 0,33,34
 -41 -8 -41 -8 -41 43 c 0,35,36
 -41 96 -41 96 12 250 c 1,37,38
 51 356 51 356 90 465 c 1,39,40
 221 860 221 860 360 1038 c 1,41,42
 442 1145 442 1145 655 1145 c 0,43,44
 844 1145 844 1145 973 1077 c 0,45,46
 1135 991 1135 991 1135 819 c 0,0,1
EndSplineSet
EndChar

StartChar: uniA4F6
Encoding: 156 42230 153
Width: 985
Flags: W
LayerCount: 2
Fore
SplineSet
930 965 m 0,0,1
 930 885 930 885 889 764 c 1,2,3
 862 696 862 696 811 561 c 1,4,5
 743 369 743 369 590 -12 c 1,6,7
 573 -20 573 -20 532 -20 c 0,8,9
 475 -20 475 -20 399 -10 c 0,10,11
 291 4 291 4 291 31 c 0,12,13
 291 63 291 63 330 160 c 0,14,15
 446 446 446 446 598 899 c 1,16,17
 502 903 502 903 158 903 c 0,18,19
 133 903 133 903 133 911 c 0,20,21
 133 922 133 922 168 1018 c 1,22,23
 199 1100 199 1100 205 1110 c 0,24,25
 229 1145 229 1145 293 1145 c 2,26,-1
 418 1145 l 2,27,28
 643 1145 643 1145 731 1139 c 0,29,30
 791 1135 791 1135 860.5 1079.5 c 128,-1,31
 930 1024 930 1024 930 965 c 0,0,1
EndSplineSet
EndChar

StartChar: uniA4F7
Encoding: 157 42231 154
Width: 1229
Flags: W
LayerCount: 2
Fore
SplineSet
1280 913 m 0,0,1
 1280 868 1280 868 1255 801 c 1,2,3
 1219 696 1219 696 1217 692 c 1,4,5
 1141 758 1141 758 1083 788 c 1,6,7
 991 500 991 500 958 408 c 1,8,9
 854 100 854 100 827 76 c 0,10,11
 795 47 795 47 690 16 c 1,12,13
 594 -10 594 -10 541 -10 c 0,14,15
 365 -10 365 -10 207 215 c 0,16,17
 61 424 61 424 61 608 c 0,18,19
 61 881 61 881 240 1044 c 0,20,21
 414 1202 414 1202 688 1202 c 0,22,23
 905 1202 905 1202 1204 997 c 0,24,25
 1280 946 1280 946 1280 913 c 0,0,1
1063 803 m 1,26,27
 979 852 979 852 893 899 c 1,28,29
 793 952 793 952 709 952 c 0,30,31
 565 952 565 952 462.5 846.5 c 128,-1,32
 360 741 360 741 360 596 c 0,33,34
 360 461 360 461 409.5 384 c 128,-1,35
 459 307 459 307 584 254 c 1,36,37
 629 375 629 375 672 481 c 1,38,39
 692 549 692 549 733 682 c 0,40,41
 745 719 745 719 758 758 c 1,42,43
 780 811 780 811 805 817 c 0,44,45
 811 819 811 819 838 819 c 0,46,47
 944 819 944 819 1063 803 c 1,26,27
EndSplineSet
EndChar

StartChar: uniA4F8
Encoding: 158 42232 155
Width: 467
Flags: W
LayerCount: 2
Fore
SplineSet
221 182 m 0,0,1
 221 -6 221 -6 4 -6 c 0,2,3
 -70 -6 -70 -6 -82 37 c 0,4,5
 -86 53 -86 53 -86 88 c 0,6,7
 -86 164 -86 164 -26.5 223.5 c 128,-1,8
 33 283 33 283 109 283 c 0,9,10
 221 283 221 283 221 182 c 0,0,1
EndSplineSet
EndChar

StartChar: uniA4F9
Encoding: 159 42233 156
Width: 461
Flags: W
LayerCount: 2
Fore
SplineSet
287 252 m 0,0,1
 287 231 287 231 137.5 40.5 c 128,-1,2
 -12 -150 -12 -150 -47 -176 c 0,3,4
 -72 -195 -72 -195 -102 -195 c 0,5,6
 -147 -195 -147 -195 -147 -141 c 0,7,8
 -147 -47 -147 -47 -29 178 c 0,9,10
 2 238 2 238 29.5 255 c 128,-1,11
 57 272 57 272 121 272 c 2,12,-1
 147 272 l 2,13,14
 287 272 287 272 287 252 c 0,0,1
EndSplineSet
EndChar

StartChar: uniA4FA
Encoding: 160 42234 157
Width: 836
Flags: W
LayerCount: 2
Fore
SplineSet
610 182 m 0,0,1
 610 -6 610 -6 430 -6 c 0,2,3
 381 -6 381 -6 367 16 c 0,4,5
 356 33 356 33 356 88 c 0,6,7
 356 158 356 158 403.5 220.5 c 128,-1,8
 451 283 451 283 518 283 c 0,9,10
 610 283 610 283 610 182 c 0,0,1
188 182 m 0,11,12
 188 -6 188 -6 8 -6 c 0,13,14
 -41 -6 -41 -6 -55 16 c 0,15,16
 -66 33 -66 33 -66 88 c 0,17,18
 -66 158 -66 158 -18.5 220.5 c 128,-1,19
 29 283 29 283 96 283 c 0,20,21
 188 283 188 283 188 182 c 0,11,12
EndSplineSet
EndChar

StartChar: uniA4FB
Encoding: 161 42235 158
Width: 852
Flags: W
LayerCount: 2
Fore
SplineSet
705 242 m 0,0,1
 705 221 705 221 560.5 23.5 c 128,-1,2
 416 -174 416 -174 383 -205 c 1,3,4
 362 -223 362 -223 334 -223 c 0,5,6
 295 -223 295 -223 295 -170 c 0,7,8
 295 -121 295 -121 352.5 22.5 c 128,-1,9
 410 166 410 166 440.5 209 c 128,-1,10
 471 252 471 252 528 260 c 1,11,12
 547 264 547 264 633 264 c 0,13,14
 705 264 705 264 705 242 c 0,0,1
217 182 m 0,15,16
 217 -6 217 -6 37 -6 c 0,17,18
 -12 -6 -12 -6 -27 16 c 1,19,20
 -37 33 -37 33 -37 88 c 0,21,22
 -37 158 -37 158 10 220.5 c 128,-1,23
 57 283 57 283 125 283 c 0,24,25
 217 283 217 283 217 182 c 0,15,16
EndSplineSet
EndChar

StartChar: uniA4FC
Encoding: 162 42236 159
Width: 549
Flags: W
LayerCount: 2
Fore
SplineSet
412 623 m 0,0,1
 412 457 412 457 221 457 c 0,2,3
 172 457 172 457 158.5 472 c 128,-1,4
 145 487 145 487 145 535 c 0,5,6
 145 602 145 602 196.5 651 c 128,-1,7
 248 700 248 700 315 700 c 0,8,9
 350 700 350 700 381 678.5 c 128,-1,10
 412 657 412 657 412 623 c 0,0,1
266 221 m 0,11,12
 266 201 266 201 124 25.5 c 128,-1,13
 -18 -150 -18 -150 -51 -176 c 0,14,15
 -74 -195 -74 -195 -104 -195 c 0,16,17
 -147 -195 -147 -195 -147 -145 c 0,18,19
 -147 -98 -147 -98 -96 27 c 128,-1,20
 -45 152 -45 152 -14 193 c 1,21,22
 25 240 25 240 111 240 c 2,23,-1
 156 240 l 2,24,25
 266 240 266 240 266 221 c 0,11,12
EndSplineSet
EndChar

StartChar: uniA4FD
Encoding: 163 42237 160
Width: 559
Flags: W
LayerCount: 2
Fore
SplineSet
381 612 m 0,0,1
 381 424 381 424 201 424 c 0,2,3
 152 424 152 424 137 446 c 1,4,5
 127 463 127 463 127 518 c 0,6,7
 127 588 127 588 174 650.5 c 128,-1,8
 221 713 221 713 289 713 c 0,9,10
 381 713 381 713 381 612 c 0,0,1
217 182 m 0,11,12
 217 -6 217 -6 37 -6 c 0,13,14
 -12 -6 -12 -6 -27 16 c 1,15,16
 -37 33 -37 33 -37 88 c 0,17,18
 -37 158 -37 158 10 220.5 c 128,-1,19
 57 283 57 283 125 283 c 0,20,21
 217 283 217 283 217 182 c 0,11,12
EndSplineSet
EndChar

StartChar: uniA4FE
Encoding: 164 42238 161
Width: 1071
Flags: W
LayerCount: 2
Fore
SplineSet
836 684 m 1,0,1
 836 659 836 659 803 579.5 c 128,-1,2
 770 500 770 500 752 483 c 0,3,4
 725 459 725 459 96 459 c 0,5,6
 61 459 61 459 61 477 c 0,7,8
 61 492 61 492 92 565 c 1,9,10
 104 602 104 602 133 659 c 1,11,12
 158 688 158 688 625 688 c 0,13,14
 664 688 664 688 729 686 c 0,15,16
 815 684 815 684 836 684 c 1,0,1
864 162 m 0,17,18
 864 0 864 0 690 0 c 0,19,20
 643 0 643 0 630.5 16.5 c 128,-1,21
 618 33 618 33 618 80 c 0,22,23
 618 143 618 143 664.5 195.5 c 128,-1,24
 711 248 711 248 774 248 c 0,25,26
 864 248 864 248 864 162 c 0,17,18
EndSplineSet
EndChar

StartChar: uniA4FF
Encoding: 165 42239 162
Width: 1329
Flags: W
LayerCount: 2
Fore
SplineSet
1141 639 m 256,0,1
 1141 553 1141 553 1030 553 c 2,2,-1
 338 553 l 2,3,4
 227 553 227 553 227 639 c 256,5,6
 227 725 227 725 338 725 c 2,7,-1
 1030 725 l 2,8,9
 1141 725 1141 725 1141 639 c 256,0,1
1018 289 m 0,10,11
 1018 203 1018 203 907 203 c 2,12,-1
 215 203 l 2,13,14
 104 203 104 203 104 289 c 0,15,16
 104 373 104 373 215 373 c 2,17,-1
 907 373 l 2,18,19
 1018 373 1018 373 1018 289 c 0,10,11
EndSplineSet
EndChar

StartChar: endash
Encoding: 106 8211 163
Width: 922
Flags: W
LayerCount: 2
Fore
SplineSet
934 375 m 1,0,-1
 -12 375 l 1,1,-1
 -12 561 l 1,2,-1
 934 561 l 1,3,-1
 934 375 l 1,0,-1
EndSplineSet
EndChar

StartChar: emdash
Encoding: 107 8212 164
Width: 1843
Flags: W
LayerCount: 2
Fore
SplineSet
1858 375 m 1,0,-1
 -14 375 l 1,1,-1
 -14 561 l 1,2,-1
 1858 561 l 1,3,-1
 1858 375 l 1,0,-1
EndSplineSet
EndChar

StartChar: blackstar
Encoding: 115 9733 165
Width: 1819
Flags: W
LayerCount: 2
Fore
SplineSet
1634 764 m 1,0,-1
 1192 524 l 1,1,-1
 1243 129 l 1,2,-1
 913 381 l 1,3,-1
 467 156 l 1,4,-1
 711 535 l 1,5,-1
 385 786 l 1,6,-1
 864 786 l 1,7,-1
 1112 1157 l 1,8,-1
 1161 764 l 1,9,-1
 1634 764 l 1,0,-1
EndSplineSet
EndChar

StartChar: hyphentwo
Encoding: 105 8208 166
Width: 922
Flags: W
LayerCount: 2
Fore
SplineSet
793 571 m 1,0,-1
 748 391 l 1,1,-1
 137 391 l 1,2,-1
 182 571 l 1,3,-1
 793 571 l 1,0,-1
EndSplineSet
EndChar

StartChar: dblanglebracketleft
Encoding: 116 12298 167
Width: 1100
Flags: W
LayerCount: 2
Fore
SplineSet
885 -22 m 1,0,-1
 672 666 l 1,1,-1
 1153 1356 l 1,2,-1
 1253 1303 l 1,3,-1
 810 666 l 1,4,-1
 1005 29 l 1,5,-1
 885 -22 l 1,0,-1
604 -22 m 1,6,-1
 391 666 l 1,7,-1
 872 1356 l 1,8,-1
 972 1303 l 1,9,-1
 529 666 l 1,10,-1
 725 29 l 1,11,-1
 604 -22 l 1,6,-1
EndSplineSet
EndChar

StartChar: dblanglebracketright
Encoding: 117 12299 168
Width: 1100
Flags: W
LayerCount: 2
Fore
SplineSet
68 28 m 1,0,-1
 511 666 l 1,1,2
 487 742 487 742 462.5 823 c 128,-1,3
 438 904 438 904 413 986 c 128,-1,4
 388 1068 388 1068 363.5 1149 c 128,-1,5
 339 1230 339 1230 316 1306 c 1,6,7
 346 1318 346 1318 376 1330.5 c 128,-1,8
 406 1343 406 1343 435 1356 c 1,9,-1
 647 666 l 1,10,-1
 167 -23 l 1,11,-1
 68 28 l 1,0,-1
349 28 m 1,12,13
 460 189 460 189 570 347 c 128,-1,14
 680 505 680 505 790 666 c 1,15,16
 767 742 767 742 742.5 823 c 128,-1,17
 718 904 718 904 693.5 986 c 128,-1,18
 669 1068 669 1068 644.5 1149 c 128,-1,19
 620 1230 620 1230 597 1306 c 1,20,21
 626 1318 626 1318 656.5 1330.5 c 128,-1,22
 687 1343 687 1343 716 1356 c 1,23,-1
 928 666 l 1,24,-1
 448 -23 l 1,25,-1
 349 28 l 1,12,13
EndSplineSet
EndChar

StartChar: NameMe.169
Encoding: 169 -1 169
Width: 922
Flags: W
LayerCount: 2
Fore
SplineSet
793 571 m 1,0,-1
 748 391 l 1,1,-1
 137 391 l 1,2,-1
 182 571 l 1,3,-1
 793 571 l 1,0,-1
EndSplineSet
EndChar
